<?xml version="1.0" encoding="UTF-8"?>
<svg width="236px" height="211px" viewBox="0 0 236 211" version="1.1" xmlns="http://www.w3.org/2000/svg" xmlns:xlink="http://www.w3.org/1999/xlink">
    <!-- Generator: Sketch 55.2 (78181) - https://sketchapp.com -->
    <title>emblemafelirattal</title>
    <desc>Created with Sketch.</desc>
    <g id="logo" stroke="none" stroke-width="1" fill="none" fill-rule="evenodd">
        <g id="emblemafelirattal">
            <path d="M6.708,180.562 C7.218,181.779 7.69,182.721 9.259,184.645 L17.306,194.654 L26.099,183.781 C26.963,182.721 27.355,182.251 28.219,180.68 L33.989,180.68 C32.773,182.132 31.634,183.467 31.634,187.746 L31.634,202.23 C31.634,204.35 31.673,207.137 32.968,210.002 L25.903,210.002 C26.884,207.804 27.198,205.527 27.198,202.701 L27.198,188.727 L17.306,201.052 L7.336,188.727 L7.336,203.447 C7.336,203.918 7.336,207.176 8.592,210.002 L1.605,210.002 C2.194,208.628 2.94,206.705 2.94,202.152 L2.94,183.781 L0.035,180.562 L6.708,180.562" id="Fill-1" fill="#131614"></path>
            <path d="M47.079,197.402 L54.223,197.402 L50.808,189.512 L47.079,197.402 Z M61.092,201.955 C63.211,206.548 64.585,208.432 65.684,209.925 L58.697,210.002 C58.697,208.707 58.54,207.216 57.481,204.821 L55.753,200.857 L45.43,200.857 L43.938,204.036 C43.427,205.134 42.29,207.687 42.447,210.002 L35.263,210.002 C36.244,208.864 37.108,207.804 39.542,202.976 L50.886,180.444 L51.122,180.444 L61.092,201.955 L61.092,201.955 Z" id="Fill-2" fill="#131614"></path>
            <path d="M73.469,195.95 C76.257,195.165 80.731,193.908 80.731,189.395 C80.731,187.196 79.358,183.663 73.469,183.075 L73.469,195.95 Z M69.112,186.726 C69.112,183.271 68.641,181.661 68.327,180.642 L74.059,180.562 C81.634,180.444 85.207,184.998 85.207,188.964 C85.207,193.752 80.967,196.107 79.632,196.813 C82.262,201.446 85.873,205.802 89.367,210.002 L85.324,210.002 C81.359,206.588 79.553,204.468 73.469,196.381 L73.469,203.644 C73.469,205.921 73.509,206.862 74.294,210.002 L68.327,210.002 C68.955,207.097 69.112,204.939 69.112,202.387 L69.112,186.726 L69.112,186.726 Z" id="Fill-3" fill="#131614"></path>
            <path d="M97.227,195.95 C100.014,195.165 104.489,193.908 104.489,189.395 C104.489,187.196 103.115,183.663 97.227,183.075 L97.227,195.95 Z M92.87,186.726 C92.87,183.271 92.398,181.661 92.086,180.642 L97.816,180.562 C105.392,180.444 108.963,184.998 108.963,188.964 C108.963,193.752 104.724,196.107 103.39,196.813 C106.02,201.446 109.63,205.802 113.123,210.002 L109.081,210.002 C105.116,206.588 103.311,204.468 97.227,196.381 L97.227,203.644 C97.227,205.921 97.266,206.862 98.051,210.002 L92.086,210.002 C92.713,207.097 92.87,204.939 92.87,202.387 L92.87,186.726 L92.87,186.726 Z" id="Fill-4" fill="#131614"></path>
            <path d="M126.6,197.402 L133.745,197.402 L130.33,189.512 L126.6,197.402 Z M140.615,201.955 C142.733,206.548 144.108,208.432 145.207,209.925 L138.219,210.002 C138.219,208.707 138.064,207.216 137.003,204.821 L135.276,200.857 L124.952,200.857 L123.46,204.036 C122.95,205.134 121.813,207.687 121.969,210.002 L114.786,210.002 C115.767,208.864 116.63,207.804 119.064,202.976 L130.409,180.444 L130.644,180.444 L140.615,201.955 L140.615,201.955 Z" id="Fill-5" fill="#131614"></path>
            <path d="M154.441,180.562 C153.735,182.525 153.264,183.821 153.264,187.863 L153.264,193.634 L160.84,184.409 C162.724,182.172 162.881,181.504 163.116,180.562 L170.574,180.562 C168.65,181.976 166.334,184.016 163.626,187.315 L158.327,193.634 L168.336,206.235 C169.436,207.609 169.671,207.962 171.674,209.963 L164.49,210.002 C164.098,208.589 163.665,207.137 161.311,204.272 L153.264,194.144 L153.264,202.622 C153.264,205.921 153.93,208.746 154.285,210.002 L147.65,210.002 C148.475,207.491 148.829,204.899 148.829,202.27 L148.829,186.922 C148.829,184.96 148.436,182.525 147.808,180.642 L154.441,180.562" id="Fill-6" fill="#131614"></path>
            <path d="M189.95,180.562 L187.713,185.116 C184.416,183.624 182.688,183.233 179.587,183.35 L179.587,193.634 L188.812,193.634 L186.3,197.756 C182.923,196.775 181.825,196.617 179.587,196.461 L179.587,207.216 C183.355,207.216 185.437,207.216 191.678,205.096 L189.519,210.002 L174.092,210.002 C174.603,208.276 175.19,206.194 175.19,202.426 L175.19,188.021 C175.19,186.019 174.916,183.114 174.092,180.562 L189.95,180.562" id="Fill-7" fill="#131614"></path>
            <path d="M207.604,186.215 C206.309,185.194 204.66,183.899 202.03,183.899 C199.478,183.899 197.477,185.548 197.477,187.863 C197.477,190.651 199.95,192.103 203.639,194.222 C207.879,196.656 209.056,198.972 209.056,201.798 C209.056,206.666 205.249,210.198 199.086,210.198 C196.77,210.198 195.396,209.806 194.022,209.414 L194.022,203.172 C195.356,204.703 197.084,206.744 199.792,206.744 C202.344,206.744 204.189,204.703 204.189,202.622 C204.189,200.581 202.58,199.286 201.716,198.737 C195.435,194.812 192.923,193.241 192.923,188.766 C192.923,184.094 196.81,180.249 201.637,180.249 C204.306,180.249 206.19,181.073 207.604,181.661 L207.604,186.215" id="Fill-8" fill="#131614"></path>
            <path d="M218.247,180.485 C217.736,181.859 217.068,183.507 217.068,187.236 L217.068,193.203 L229.668,193.203 L229.668,187.982 C229.668,183.938 229.041,182.054 228.531,180.485 L235.244,180.485 C234.576,182.407 234.104,183.821 234.104,188.334 L234.104,201.955 C234.104,206.823 234.614,208.276 235.244,210.002 L228.531,210.002 C229.159,208.196 229.668,206.823 229.668,202.113 L229.668,196.932 L217.068,196.932 L217.068,201.798 C217.068,206.47 217.657,208.276 218.168,210.002 L211.495,210.002 C212.005,208.628 212.633,206.823 212.633,202.426 L212.633,188.06 C212.633,183.859 211.966,181.818 211.495,180.485 L218.247,180.485" id="Fill-9" fill="#131614"></path>
            <path d="M137.876,88.802 C137.876,91.794 135.449,94.222 132.457,94.222 C129.462,94.222 127.035,91.794 127.035,88.802 C127.035,85.808 129.462,83.382 132.457,83.382 C135.449,83.382 137.876,85.808 137.876,88.802" id="Fill-10" fill="#0A0B09"></path>
            <path d="M145.632,114.497 C145.632,116.456 144.042,118.048 142.082,118.048 C140.121,118.048 138.533,116.456 138.533,114.497 C138.533,112.534 140.121,110.946 142.082,110.946 C144.042,110.946 145.632,112.534 145.632,114.497" id="Fill-11" fill="#0A0B09"></path>
            <path d="M97.208,114.497 C97.208,116.456 95.617,118.048 93.658,118.048 C91.695,118.048 90.107,116.456 90.107,114.497 C90.107,112.534 91.695,110.946 93.658,110.946 C95.617,110.946 97.208,112.534 97.208,114.497" id="Fill-12" fill="#0A0B09"></path>
            <path d="M108.048,88.802 C108.048,91.794 105.621,94.222 102.628,94.222 C99.634,94.222 97.208,91.794 97.208,88.802 C97.208,85.808 99.634,83.382 102.628,83.382 C105.621,83.382 108.048,85.808 108.048,88.802" id="Fill-13" fill="#0A0B09"></path>
            <path d="M117.64,21.901 C114.646,21.901 112.22,19.475 112.22,16.483 C112.22,13.488 114.646,11.063 117.64,11.063 C120.632,11.063 123.06,13.488 123.06,16.483 C123.06,19.475 120.632,21.901 117.64,21.901 Z M117.64,44.465 C114.646,44.465 112.22,42.038 112.22,39.046 C112.22,36.051 114.646,33.626 117.64,33.626 C120.632,33.626 123.06,36.051 123.06,39.046 C123.06,42.038 120.632,44.465 117.64,44.465 Z M117.64,66.698 C114.646,66.698 112.22,64.27 112.22,61.278 C112.22,58.284 114.646,55.859 117.64,55.859 C120.632,55.859 123.06,58.284 123.06,61.278 C123.06,64.27 120.632,66.698 117.64,66.698 Z M126.673,16.252 C126.673,12.957 124.91,10.075 122.273,8.499 C120.921,7.687 117.64,3.47 117.64,0.575 C117.64,3.929 114.361,7.687 113.005,8.499 C110.371,10.075 108.605,12.957 108.605,16.252 C108.605,16.481 108.619,16.707 108.634,16.932 C108.619,17.154 108.605,17.379 108.605,17.608 L108.605,73.724 C111.482,72.921 114.511,72.489 117.64,72.489 C120.767,72.489 123.796,72.921 126.673,73.724 L126.673,17.608 C126.673,17.379 126.662,17.156 126.646,16.934 C126.662,16.71 126.673,16.483 126.673,16.252 L126.673,16.252 Z" id="Fill-14" fill="#0A0B09"></path>
            <path d="M154.498,83.382 C151.503,83.382 149.076,80.954 149.076,77.964 C149.076,74.97 151.503,72.542 154.498,72.542 C157.49,72.542 159.916,74.97 159.916,77.964 C159.916,80.954 157.49,83.382 154.498,83.382 Z M75.365,77.964 C75.365,74.97 77.793,72.542 80.787,72.542 C83.779,72.542 86.205,74.97 86.205,77.964 C86.205,80.956 83.779,83.384 80.787,83.384 C77.793,83.384 75.365,80.956 75.365,77.964 Z M97.21,60.003 C100.203,60.003 102.628,62.428 102.628,65.423 C102.628,68.415 100.203,70.843 97.21,70.843 C94.216,70.843 91.791,68.415 91.791,65.423 C91.791,62.428 94.216,60.003 97.21,60.003 Z M97.21,39.046 C100.203,39.046 102.628,41.471 102.628,44.465 C102.628,47.458 100.203,49.883 97.21,49.883 C94.216,49.883 91.791,47.458 91.791,44.465 C91.791,41.471 94.216,39.046 97.21,39.046 Z M97.21,19.473 C100.203,19.473 102.628,21.901 102.628,24.893 C102.628,27.887 100.203,30.313 97.21,30.313 C94.216,30.313 91.791,27.887 91.791,24.893 C91.791,21.901 94.216,19.473 97.21,19.473 Z M137.876,30.313 C134.882,30.313 132.457,27.887 132.457,24.893 C132.457,21.901 134.882,19.473 137.876,19.473 C140.869,19.473 143.296,21.901 143.296,24.893 C143.296,27.887 140.869,30.313 137.876,30.313 Z M137.876,49.883 C134.882,49.883 132.457,47.458 132.457,44.465 C132.457,41.471 134.882,39.046 137.876,39.046 C140.869,39.046 143.296,41.471 143.296,44.465 C143.296,47.458 140.869,49.883 137.876,49.883 Z M137.876,70.843 C134.882,70.843 132.457,68.415 132.457,65.423 C132.457,62.428 134.882,60.003 137.876,60.003 C140.869,60.003 143.296,62.428 143.296,65.423 C143.296,68.415 140.869,70.843 137.876,70.843 Z M174.333,76.448 C169.487,71.761 162.892,68.878 155.621,68.878 C151.748,68.878 150.234,69.696 146.908,71.167 L146.908,24.561 C146.908,19.594 142.845,15.529 137.876,15.529 C132.906,15.529 128.841,19.594 128.841,24.561 L128.841,74.411 C141.88,79.034 151.242,91.489 151.242,106.091 C151.242,124.621 136.167,139.696 117.64,139.696 C99.111,139.696 84.037,124.621 84.037,106.091 C84.037,91.485 93.408,79.025 106.453,74.405 C106.447,74.359 106.439,74.312 106.439,74.263 L106.439,24.561 C106.439,19.594 102.373,15.529 97.406,15.529 C92.437,15.529 88.373,19.594 88.373,24.561 L88.373,71.167 C85.046,69.696 83.533,68.878 79.662,68.878 C72.389,68.878 65.791,71.761 60.947,76.448 C70.91,77.278 78.734,85.622 78.734,95.796 L78.617,106.079 C78.617,127.634 96.087,145.102 117.64,145.102 C139.193,145.102 156.664,127.634 156.664,106.079 L156.548,95.796 C156.548,85.622 164.372,77.278 174.333,76.448 L174.333,76.448 Z" id="Fill-15" fill="#0A0B09"></path>
            <path d="M117.64,123.367 C112.533,123.367 108.378,119.212 108.378,114.109 C108.378,108.999 112.533,104.845 117.64,104.845 C122.746,104.845 126.9,108.999 126.9,114.109 C126.9,119.212 122.746,123.367 117.64,123.367 Z M147.503,96.579 C147.503,96.579 139.355,93.782 129.324,99.575 C127.236,100.78 125.529,102.103 124.107,103.437 C124.941,100.876 125.521,97.853 125.521,94.327 C125.521,81.23 117.64,74.836 117.64,74.836 C117.64,74.836 109.759,81.23 109.759,94.327 C109.759,97.853 110.337,100.876 111.171,103.437 C109.75,102.103 108.042,100.78 105.957,99.575 C95.923,93.782 87.779,96.579 87.779,96.579 C87.779,96.579 89.429,105.032 99.46,110.825 C101.914,112.243 104.251,113.14 106.39,113.696 C105.292,114.064 104.16,114.548 103.001,115.216 C95.218,119.71 94.472,127.195 94.472,127.195 C94.472,127.195 101.326,130.293 109.111,125.801 C110.046,125.257 110.876,124.672 111.621,124.062 C111.566,124.584 111.533,125.121 111.533,125.682 C111.533,133.73 117.64,137.653 117.64,137.653 C117.64,137.653 123.751,133.73 123.751,125.682 C123.751,125.121 123.716,124.586 123.66,124.065 C124.402,124.675 125.232,125.257 126.169,125.801 C133.953,130.293 140.808,127.195 140.808,127.195 C140.808,127.195 140.06,119.71 132.277,115.216 C131.119,114.548 129.988,114.064 128.89,113.696 C131.025,113.14 133.365,112.243 135.82,110.825 C145.849,105.032 147.503,96.579 147.503,96.579 L147.503,96.579 Z" id="Fill-16" fill="#0A0B09"></path>
            <path d="M126.899,114.103 C126.899,119.215 122.751,123.361 117.64,123.361 C112.53,123.361 108.383,119.215 108.383,114.103 C108.383,108.99 112.53,104.846 117.64,104.846 C122.751,104.846 126.899,108.99 126.899,114.103" id="Fill-17" fill="#DF542A"></path>
        </g>
    </g>
</svg>