<?xml version="1.0" encoding="UTF-8"?>
<svg width="323px" height="412px" viewBox="0 0 323 412" version="1.1" xmlns="http://www.w3.org/2000/svg" xmlns:xlink="http://www.w3.org/1999/xlink">
    <!-- Generator: Sketch 55.2 (78181) - https://sketchapp.com -->
    <title>emblemaonly</title>
    <desc>Created with Sketch.</desc>
    <g id="logo" stroke="none" stroke-width="1" fill="none" fill-rule="evenodd">
        <g id="emblemaonly">
            <path d="M217.935,251.438 C217.935,259.261 211.586,265.609 203.761,265.609 C195.931,265.609 189.583,259.261 189.583,251.438 C189.583,243.606 195.931,237.263 203.761,237.263 C211.586,237.263 217.935,243.606 217.935,251.438" id="Fill-1" fill="#0A0B09"></path>
            <path d="M241.218,324.485 C241.218,330.053 236.699,334.579 231.124,334.579 C225.549,334.579 221.035,330.053 221.035,324.485 C221.035,318.905 225.549,314.389 231.124,314.389 C236.699,314.389 241.218,318.905 241.218,324.485" id="Fill-2" fill="#0A0B09"></path>
            <path d="M103.556,324.485 C103.556,330.053 99.031,334.579 93.461,334.579 C87.881,334.579 83.367,330.053 83.367,324.485 C83.367,318.905 87.881,314.389 93.461,314.389 C99.031,314.389 103.556,318.905 103.556,324.485" id="Fill-3" fill="#0A0B09"></path>
            <path d="M133.137,251.438 C133.137,259.261 126.789,265.609 118.964,265.609 C111.134,265.609 104.791,259.261 104.791,251.438 C104.791,243.606 111.134,237.263 118.964,237.263 C126.789,237.263 133.137,243.606 133.137,251.438" id="Fill-4" fill="#0A0B09"></path>
            <path d="M266.421,234.793 C258.591,234.793 252.242,228.444 252.242,220.625 C252.242,212.796 258.591,206.446 266.421,206.446 C274.246,206.446 280.589,212.796 280.589,220.625 C280.589,228.444 274.246,234.793 266.421,234.793 Z M42.692,220.625 C42.692,212.797 49.042,206.447 56.87,206.447 C64.695,206.447 71.039,212.797 71.039,220.625 C71.039,228.449 64.695,234.799 56.87,234.799 C49.042,234.799 42.692,228.449 42.692,220.625 Z M103.562,169.193 C111.387,169.193 117.732,175.538 117.732,183.369 C117.732,191.195 111.387,197.545 103.562,197.545 C95.73,197.545 89.385,191.195 89.385,183.369 C89.385,175.538 95.73,169.193 103.562,169.193 Z M103.562,111.375 C111.387,111.375 117.732,117.719 117.732,125.55 C117.732,133.377 111.387,139.722 103.562,139.722 C95.73,139.722 89.385,133.377 89.385,125.55 C89.385,117.719 95.73,111.375 103.562,111.375 Z M103.562,55.152 C111.387,55.152 117.732,61.502 117.732,69.329 C117.732,77.16 111.387,83.505 103.562,83.505 C95.73,83.505 89.385,77.16 89.385,69.329 C89.385,61.502 95.73,55.152 103.562,55.152 Z M219.169,83.484 C211.34,83.484 204.997,77.141 204.997,69.312 C204.997,61.485 211.34,55.137 219.169,55.137 C226.994,55.137 233.343,61.485 233.343,69.312 C233.343,77.141 226.994,83.484 219.169,83.484 Z M219.169,139.719 C211.34,139.719 204.997,133.376 204.997,125.551 C204.997,117.721 211.34,111.378 219.169,111.378 C226.994,111.378 233.343,117.721 233.343,125.551 C233.343,133.376 226.994,139.719 219.169,139.719 Z M219.169,197.533 C211.34,197.533 204.997,191.184 204.997,183.36 C204.997,175.53 211.34,169.186 219.169,169.186 C226.994,169.186 233.343,175.53 233.343,183.36 C233.343,191.184 226.994,197.533 219.169,197.533 Z M322.811,216.317 C309.035,202.99 290.284,194.794 269.614,194.794 C258.604,194.794 254.3,197.12 244.844,201.301 L244.844,68.808 C244.844,54.688 233.295,43.131 219.169,43.131 C205.039,43.131 193.484,54.688 193.484,68.808 L193.484,210.525 C230.552,223.67 257.165,259.076 257.165,300.587 C257.165,353.264 214.311,396.121 161.64,396.121 C108.964,396.121 66.11,353.264 66.11,300.587 C66.11,259.061 92.751,223.64 129.835,210.507 C129.819,210.375 129.797,210.242 129.797,210.104 L129.797,68.808 C129.797,54.688 118.237,43.131 104.117,43.131 C89.991,43.131 78.437,54.688 78.437,68.808 L78.437,201.301 C68.98,197.12 64.677,194.794 53.672,194.794 C32.997,194.794 14.24,202.99 0.47,216.317 C28.792,218.676 51.037,242.397 51.037,271.319 L50.703,300.553 C50.703,361.832 100.369,411.49 161.64,411.49 C222.912,411.49 272.579,361.832 272.579,300.553 L272.251,271.319 C272.251,242.397 294.493,218.676 322.811,216.317 L322.811,216.317 Z" id="Fill-5" fill="#0A0B09"></path>
            <path d="M161.64,349.699 C147.121,349.699 135.311,337.888 135.311,323.38 C135.311,308.854 147.121,297.044 161.64,297.044 C176.155,297.044 187.965,308.854 187.965,323.38 C187.965,337.888 176.155,349.699 161.64,349.699 Z M246.538,273.546 C246.538,273.546 223.373,265.595 194.855,282.064 C188.92,285.488 184.067,289.25 180.024,293.042 C182.396,285.761 184.044,277.168 184.044,267.144 C184.044,229.909 161.64,211.732 161.64,211.732 C161.64,211.732 139.236,229.909 139.236,267.144 C139.236,277.168 140.88,285.761 143.25,293.042 C139.208,289.25 134.355,285.488 128.425,282.064 C99.902,265.595 76.749,273.546 76.749,273.546 C76.749,273.546 81.44,297.577 109.958,314.046 C116.932,318.077 123.578,320.625 129.658,322.206 C126.538,323.252 123.317,324.629 120.024,326.527 C97.898,339.304 95.777,360.582 95.777,360.582 C95.777,360.582 115.261,369.389 137.393,356.618 C140.052,355.074 142.412,353.408 144.528,351.676 C144.372,353.159 144.278,354.686 144.278,356.279 C144.278,379.161 161.64,390.314 161.64,390.314 C161.64,390.314 179.014,379.161 179.014,356.279 C179.014,354.686 178.914,353.164 178.753,351.682 C180.863,353.42 183.223,355.074 185.888,356.618 C208.015,369.389 227.504,360.582 227.504,360.582 C227.504,360.582 225.377,339.304 203.25,326.527 C199.958,324.629 196.743,323.252 193.623,322.206 C199.691,320.625 206.343,318.077 213.323,314.046 C241.834,297.577 246.538,273.546 246.538,273.546 L246.538,273.546 Z" id="Fill-6" fill="#0A0B09"></path>
            <path d="M161.643,115.649 C153.815,115.649 147.47,109.303 147.47,101.475 C147.47,93.648 153.815,87.303 161.643,87.303 C169.47,87.303 175.816,93.648 175.816,101.475 C175.816,109.303 169.47,115.649 161.643,115.649 Z M161.643,173.402 C153.815,173.402 147.47,167.056 147.47,159.229 C147.47,151.401 153.815,145.056 161.643,145.056 C169.47,145.056 175.816,151.401 175.816,159.229 C175.816,167.056 169.47,173.402 161.643,173.402 Z M161.64,31.668 C169.465,31.668 175.813,38.012 175.813,45.841 C175.813,53.666 169.465,60.01 161.64,60.01 C153.811,60.01 147.467,53.666 147.467,45.841 C147.467,38.012 153.811,31.668 161.64,31.668 Z M187.321,45.186 C187.321,35.819 182.307,27.627 174.811,23.146 C170.969,20.838 161.64,8.849 161.64,0.619 C161.64,10.153 152.318,20.838 148.464,23.146 C140.974,27.627 135.955,35.819 135.955,45.186 C135.955,45.836 135.994,46.48 136.038,47.119 C135.994,47.75 135.955,48.39 135.955,49.04 L135.955,208.571 C144.133,206.289 152.745,205.062 161.64,205.062 C170.53,205.062 179.142,206.289 187.321,208.571 L187.321,49.04 C187.321,48.39 187.287,47.757 187.243,47.124 C187.287,46.487 187.321,45.841 187.321,45.186 L187.321,45.186 Z" id="Fill-7" fill="#0A0B09"></path>
            <path d="M161.64,349.699 C147.121,349.699 135.311,337.888 135.311,323.38 C135.311,308.854 147.121,297.044 161.64,297.044 C176.155,297.044 187.965,308.854 187.965,323.38 C187.965,337.888 176.155,349.699 161.64,349.699" id="Fill-8" fill="#DF542A"></path>
        </g>
    </g>
</svg>