<?xml version="1.0" encoding="UTF-8"?>
<svg width="667px" height="68px" viewBox="0 0 667 68" version="1.1" xmlns="http://www.w3.org/2000/svg" xmlns:xlink="http://www.w3.org/1999/xlink">
    <!-- Generator: Sketch 52.4 (67378) - http://www.bohemiancoding.com/sketch -->
    <title>logo-de</title>
    <desc>Created with Sketch.</desc>
    <g id="logo" stroke="none" stroke-width="1" fill="none" fill-rule="evenodd">
        <g id="logo-de">
            <g id="zementfliesen" transform="translate(338.535000, 28.000000)" fill="#131614">
                <path d="M0.937314453,34.7999992 C4.46519668,28.441276 7.43824637,22.9219302 9.85655273,18.2417961 C11.8054232,14.4294073 13.9889788,10.0125081 16.4072852,4.99096603 L13.9747656,4.99096603 C11.0158967,4.99096603 8.5940703,5.21501165 6.70921387,5.66310959 C4.82435744,6.11120753 3.05688651,6.87580763 1.40674805,7.95693283 L2.6443457,4.67089767 L3.88194336,1.36352463 L24.0675879,1.36352463 L8.68296875,31.1725578 L12.8011816,31.1725578 C15.603572,31.1725578 17.9649416,30.9520685 19.8853613,30.5110832 C21.8057811,30.0700979 23.7119469,29.3090541 25.603916,28.2279289 L24.2596289,31.5139641 L22.8940039,34.7999992 L0.937314453,34.7999992 Z" id="Path"></path>
                <path d="M28.5454394,34.7999992 C28.9721993,33.3205648 29.2709268,31.8696027 29.4416308,30.4470695 C29.6123348,29.0245364 29.6976855,27.2463966 29.6976855,25.1125969 L29.6976855,11.050927 C29.6976855,8.95980323 29.6123348,7.20300114 29.4416308,5.78046799 C29.2709268,4.35793483 28.9650868,2.8856351 28.5241015,1.36352463 L46.9813769,1.36352463 L45.7011035,4.09477463 L44.3994921,6.84736252 C43.1192123,6.1645466 41.8602893,5.68444887 40.6226855,5.4070549 C39.3850817,5.12966094 37.8914442,4.99096603 36.1417285,4.99096603 L34.7761035,4.99096603 L34.7761035,15.9373039 L45.8077929,15.9373039 L42.7351367,21.3571281 C41.6540115,20.7027629 40.5302271,20.2404466 39.3637499,19.9701653 C38.1972728,19.699884 36.7320856,19.5647453 34.9681445,19.5647453 L34.7761035,19.5647453 L34.7761035,31.129882 C37.7918738,31.0445301 40.2741569,30.8240407 42.2230273,30.4684074 C44.8120376,29.9989715 47.1093942,29.1952523 49.115166,28.0572258 L47.7282031,31.4286125 L46.3199023,34.7999992 L28.5454394,34.7999992 Z" id="Path"></path>
                <path d="M57.4765136,25.1125969 C57.4765136,27.217946 57.5618643,28.9818606 57.7325683,30.4043938 C57.9032722,31.8269269 58.2091123,33.2921141 58.6500976,34.7999992 L51.2458495,34.7999992 C51.6726095,33.3205648 51.9713369,31.8696027 52.1420409,30.4470695 C52.3127449,29.0245364 52.3980956,27.2463966 52.3980956,25.1125969 L52.3980956,5.37504807 L48.9413573,1.36352463 L56.7937011,1.36352463 C56.8079264,1.80450991 56.943065,2.30594532 57.199121,2.86784592 C57.455177,3.42974651 57.7894672,3.95963216 58.2020018,4.45751877 L68.7429198,17.473632 L78.3663085,5.22568283 C78.9353218,4.51441625 79.3976381,3.80671663 79.7532714,3.10256271 C80.1089047,2.3984088 80.2867186,1.81873524 80.2867186,1.36352463 L87.434912,1.36352463 C86.4106881,2.87140977 85.6958759,4.33659694 85.290454,5.7591301 C84.885032,7.18166325 84.6823241,8.9455779 84.6823241,11.050927 L84.6823241,25.1125969 C84.6823241,27.217946 84.7676748,28.9818606 84.9383788,30.4043938 C85.1090828,31.8269269 85.4149228,33.2921141 85.8559081,34.7999992 L78.4516601,34.7999992 C78.87842,33.3205648 79.1771475,31.8696027 79.3478515,30.4470695 C79.5185554,29.0245364 79.6039061,27.2463966 79.6039061,25.1125969 L79.6039061,10.7095207 L68.5508788,25.1125969 L57.4765136,11.4563469 L57.4765136,25.1125969 Z" id="Path"></path>
                <path d="M90.8672069,34.7999992 C91.2939668,33.3205648 91.5926943,31.8696027 91.7633983,30.4470695 C91.9341023,29.0245364 92.019453,27.2463966 92.019453,25.1125969 L92.019453,11.050927 C92.019453,8.95980323 91.9341023,7.20300114 91.7633983,5.78046799 C91.5926943,4.35793483 91.2868543,2.8856351 90.845869,1.36352463 L109.303144,1.36352463 L108.022871,4.09477463 L106.72126,6.84736252 C105.44098,6.1645466 104.182057,5.68444887 102.944453,5.4070549 C101.706849,5.12966094 100.213212,4.99096603 98.4634959,4.99096603 L97.0978709,4.99096603 L97.0978709,15.9373039 L108.12956,15.9373039 L105.056904,21.3571281 C103.975779,20.7027629 102.851995,20.2404466 101.685517,19.9701653 C100.51904,19.699884 99.0538531,19.5647453 97.289912,19.5647453 L97.0978709,19.5647453 L97.0978709,31.129882 C100.113641,31.0445301 102.595924,30.8240407 104.544795,30.4684074 C107.133805,29.9989715 109.431162,29.1952523 111.436933,28.0572258 L110.049971,31.4286125 L108.64167,34.7999992 L90.8672069,34.7999992 Z" id="Path"></path>
                <path d="M120.075674,25.1125969 C120.075674,27.217946 120.161024,28.9818606 120.331728,30.4043938 C120.502432,31.8269269 120.808272,33.2921141 121.249258,34.7999992 L114.44247,34.7999992 C114.86923,33.3205648 115.167958,31.8696027 115.338662,30.4470695 C115.509366,29.0245364 115.594717,27.2463966 115.594717,25.1125969 L115.594717,6.29257736 C114.840774,5.29680415 114.193531,4.47885986 113.652969,3.83871994 C112.472266,2.41618679 111.696997,1.59112993 111.327138,1.36352463 L119.264834,1.36352463 C120.18948,3.04211375 121.074994,4.52152604 121.921401,5.80180588 C122.767808,7.08208572 123.802686,8.51171009 125.026064,10.0907219 L137.764785,26.648925 L137.764785,11.050927 C137.764785,8.95980323 137.679434,7.20300114 137.50873,5.78046799 C137.338026,4.35793483 137.032186,2.8856351 136.591201,1.36352463 L143.397988,1.36352463 C142.971228,2.85718444 142.672501,4.31525905 142.501797,5.73779221 C142.331093,7.16032536 142.245742,8.93135257 142.245742,11.050927 L142.245742,26.7769524 C142.245742,28.4128655 142.35243,30.0060787 142.56581,31.5566399 C142.77919,33.107201 143.042355,34.18831 143.355312,34.7999992 L136.548525,34.7999992 C136.477399,34.316338 136.068426,33.4592746 135.321596,32.2287834 C134.574767,30.9982922 133.696366,29.735813 132.686367,28.4413078 L120.075674,11.9684563 L120.075674,25.1125969 Z" id="Path"></path>
                <path d="M156.432334,25.1125969 L156.432334,4.96962814 C154.668393,5.0407548 153.153418,5.16878086 151.887363,5.35371017 C149.426381,5.70934346 147.399301,6.30679843 145.806064,7.14609299 L146.787607,4.26547775 L147.76915,1.36352463 L171.838291,1.36352463 L171.048789,4.11611252 L170.237949,6.86870041 C168.274853,6.12898317 166.603402,5.6026538 165.223545,5.2896965 C164.014391,5.03364053 162.776806,4.88427679 161.510752,4.8416008 L161.510752,25.1125969 C161.510752,27.047242 161.606771,28.7258059 161.798813,30.1483391 C161.990855,31.5708722 162.328702,33.1214101 162.812363,34.7999992 L155.15206,34.7999992 C155.635722,33.1640861 155.970012,31.6348859 156.154941,30.2123528 C156.33987,28.7898196 156.432334,27.089918 156.432334,25.1125969 Z" id="Path"></path>
                <path d="M175.334599,25.1125969 L175.334599,11.050927 C175.334599,8.95980323 175.249249,7.20300114 175.078545,5.78046799 C174.907841,4.35793483 174.602001,2.8856351 174.161015,1.36352463 L192.447588,1.36352463 L191.167314,4.09477463 L189.865703,6.84736252 C188.571198,6.1645466 187.305162,5.68444887 186.067558,5.4070549 C184.829954,5.12966094 183.34343,4.99096603 181.607939,4.99096603 L180.413017,4.99096603 L180.413017,15.9373039 L191.231328,15.9373039 L188.158672,21.3571281 C187.077546,20.7027629 185.953762,20.2404466 184.787285,19.9701653 C183.620808,19.699884 182.162733,19.5647453 180.413017,19.5647453 L180.413017,25.1125969 C180.413017,27.217946 180.498368,28.9818606 180.669072,30.4043938 C180.839776,31.8269269 181.145616,33.2921141 181.586601,34.7999992 L174.182353,34.7999992 C174.609113,33.3205648 174.907841,31.8696027 175.078545,30.4470695 C175.249249,29.0245364 175.334599,27.2463966 175.334599,25.1125969 Z" id="Path"></path>
                <path d="M195.709179,34.7999992 C196.135939,33.3205648 196.434667,31.8696027 196.605371,30.4470695 C196.776075,29.0245364 196.861425,27.2463966 196.861425,25.1125969 L196.861425,11.050927 C196.861425,8.95980323 196.776075,7.20300114 196.605371,5.78046799 C196.434667,4.35793483 196.128827,2.8856351 195.687841,1.36352463 L203.092089,1.36352463 C202.66533,2.85718444 202.366602,4.31170277 202.195898,5.72712326 C202.025194,7.14254375 201.939843,8.91712724 201.939843,11.050927 L201.939843,31.0872063 C204.457727,30.9876289 206.570157,30.7813647 208.277197,30.4684074 C210.866207,29.9989715 213.163564,29.1952523 215.169336,28.0572258 L213.782373,31.4286125 L212.374072,34.7999992 L195.709179,34.7999992 Z" id="Path"></path>
                <path d="M219.348457,25.1125969 L219.348457,11.050927 C219.348457,8.95980323 219.263106,7.20300114 219.092402,5.78046799 C218.921698,4.35793483 218.615858,2.8856351 218.174873,1.36352463 L225.579121,1.36352463 C225.152361,2.85718444 224.853633,4.31170277 224.682929,5.72712326 C224.512225,7.14254375 224.426875,8.91712724 224.426875,11.050927 L224.426875,25.1125969 C224.426875,27.217946 224.512225,28.9818606 224.682929,30.4043938 C224.853633,31.8269269 225.159473,33.2921141 225.600459,34.7999992 L218.196211,34.7999992 C218.62297,33.3205648 218.921698,31.8696027 219.092402,30.4470695 C219.263106,29.0387617 219.348457,27.260622 219.348457,25.1125969 Z" id="Path"></path>
                <path d="M231.102529,34.7999992 C231.529289,33.3205648 231.828016,31.8696027 231.99872,30.4470695 C232.169424,29.0245364 232.254775,27.2463966 232.254775,25.1125969 L232.254775,11.050927 C232.254775,8.95980323 232.169424,7.20300114 231.99872,5.78046799 C231.828016,4.35793483 231.522176,2.8856351 231.081191,1.36352463 L249.538466,1.36352463 L248.258193,4.09477463 L246.956582,6.84736252 C245.676302,6.1645466 244.417379,5.68444887 243.179775,5.4070549 C241.942171,5.12966094 240.448534,4.99096603 238.698818,4.99096603 L237.333193,4.99096603 L237.333193,15.9373039 L248.364882,15.9373039 L245.292226,21.3571281 C244.211101,20.7027629 243.087317,20.2404466 241.920839,19.9701653 C240.754362,19.699884 239.289175,19.5647453 237.525234,19.5647453 L237.333193,19.5647453 L237.333193,31.129882 C240.348963,31.0445301 242.831246,30.8240407 244.780117,30.4684074 C247.369127,29.9989715 249.666484,29.1952523 251.672255,28.0572258 L250.285292,31.4286125 L248.876992,34.7999992 L231.102529,34.7999992 Z" id="Path"></path>
                <path d="M270.169101,7.95693283 C269.173328,6.89003297 268.17757,6.11476403 267.181796,5.63110275 C266.186023,5.14744148 265.090689,4.90561447 263.895761,4.90561447 C262.501679,4.90561447 261.345888,5.32881174 260.428354,6.17521896 C259.51082,7.02162619 259.05206,8.07784121 259.05206,9.34389572 C259.05206,10.4250209 259.407688,11.4065541 260.118955,12.2885246 C260.815996,13.1562699 262.074919,14.1662532 263.895761,15.3185051 C266.655476,17.0824462 268.597204,18.7325599 269.721005,20.2688957 C270.844807,21.8052315 271.406699,23.5975964 271.406699,25.6460442 C271.406699,28.4199838 270.425166,30.724453 268.46207,32.5595207 C266.498974,34.3945885 264.030916,35.3121086 261.057822,35.3121086 C259.578387,35.3121086 258.312352,35.2054202 257.259677,34.9920403 C256.207003,34.7786603 254.97653,34.380357 253.568222,33.7971184 L253.568222,27.5451164 C254.592446,28.8253963 255.652217,29.7642541 256.747568,30.361718 C257.842918,30.9591819 259.044941,31.2579094 260.353671,31.2579094 C262.00381,31.2579094 263.372977,30.7849242 264.461215,29.8389397 C265.549453,28.8929551 266.093564,27.708714 266.093564,26.2861809 C266.093564,25.048577 265.723711,23.9532429 264.983994,23.0001457 C264.258502,22.0612738 262.956903,20.99439 261.07916,19.7994621 C258.376347,18.0924223 256.477293,16.5063217 255.381943,15.0411125 C254.286592,13.5759034 253.738925,11.8973394 253.738925,10.0053703 C253.738925,7.38790933 254.73824,5.20790997 256.736899,3.46530685 C258.735558,1.72270374 261.242735,0.851415253 264.258505,0.851415253 C265.467659,0.851415253 266.545211,0.958103639 267.491196,1.17148361 C268.43718,1.38486359 269.329806,1.71915386 270.169101,2.17436447 L270.169101,7.95693283 Z" id="Path"></path>
                <path d="M275.692509,34.7999992 C276.119269,33.3205648 276.417997,31.8696027 276.588701,30.4470695 C276.759405,29.0245364 276.844755,27.2463966 276.844755,25.1125969 L276.844755,11.050927 C276.844755,8.95980323 276.759405,7.20300114 276.588701,5.78046799 C276.417997,4.35793483 276.112157,2.8856351 275.671171,1.36352463 L294.128447,1.36352463 L292.848173,4.09477463 L291.546562,6.84736252 C290.266282,6.1645466 289.007359,5.68444887 287.769755,5.4070549 C286.532151,5.12966094 285.038514,4.99096603 283.288798,4.99096603 L281.923173,4.99096603 L281.923173,15.9373039 L292.954863,15.9373039 L289.882206,21.3571281 C288.801081,20.7027629 287.677297,20.2404466 286.51082,19.9701653 C285.344343,19.699884 283.879155,19.5647453 282.115214,19.5647453 L281.923173,19.5647453 L281.923173,31.129882 C284.938944,31.0445301 287.421227,30.8240407 289.370097,30.4684074 C291.959107,29.9989715 294.256464,29.1952523 296.262236,28.0572258 L294.875273,31.4286125 L293.466972,34.7999992 L275.692509,34.7999992 Z" id="Path"></path>
                <path d="M304.900976,25.1125969 C304.900976,27.217946 304.986327,28.9818606 305.157031,30.4043938 C305.327735,31.8269269 305.633575,33.2921141 306.07456,34.7999992 L299.267773,34.7999992 C299.694533,33.3205648 299.99326,31.8696027 300.163964,30.4470695 C300.334668,29.0245364 300.420019,27.2463966 300.420019,25.1125969 L300.420019,6.29257736 C299.666076,5.29680415 299.018833,4.47885986 298.478271,3.83871994 C297.297568,2.41618679 296.522299,1.59112993 296.152441,1.36352463 L304.090136,1.36352463 C305.014783,3.04211375 305.900296,4.52152604 306.746703,5.80180588 C307.593111,7.08208572 308.627988,8.51171009 309.851367,10.0907219 L322.590087,26.648925 L322.590087,11.050927 C322.590087,8.95980323 322.504737,7.20300114 322.334033,5.78046799 C322.163329,4.35793483 321.857489,2.8856351 321.416503,1.36352463 L328.22329,1.36352463 C327.79653,2.85718444 327.497803,4.31525905 327.327099,5.73779221 C327.156395,7.16032536 327.071044,8.93135257 327.071044,11.050927 L327.071044,26.7769524 C327.071044,28.4128655 327.177733,30.0060787 327.391113,31.5566399 C327.604493,33.107201 327.867657,34.18831 328.180615,34.7999992 L321.373827,34.7999992 C321.302701,34.316338 320.893729,33.4592746 320.146899,32.2287834 C319.400069,30.9982922 318.521668,29.735813 317.511669,28.4413078 L304.900976,11.9684563 L304.900976,25.1125969 Z" id="Path"></path>
            </g>
            <g id="marrakesh" transform="translate(0.000000, 28.516000)" fill="#131614">
                <path d="M7.54,0.353 C8.117,1.729 8.65,2.792 10.422,4.967 L19.514,16.275 L29.448,3.991 C30.424,2.792 30.868,2.261 31.843,0.487 L38.362,0.487 C36.989,2.127 35.701,3.636 35.701,8.47 L35.701,24.834 C35.701,27.229 35.745,30.378 37.209,33.615 L29.227,33.615 C30.335,31.133 30.69,28.56 30.69,25.367 L30.69,9.578 L19.514,23.503 L8.25,9.578 L8.25,26.208 C8.25,26.741 8.25,30.422 9.669,33.615 L1.775,33.615 C2.441,32.063 3.283,29.889 3.283,24.745 L3.283,3.991 L-1.42108547e-14,0.353 L7.54,0.353" id="Fill-1"></path>
                <path d="M53.151,19.38 L61.222,19.38 L57.364,10.465 L53.151,19.38 Z M68.984,24.523 C71.377,29.712 72.929,31.841 74.17,33.528 L66.277,33.615 C66.277,32.151 66.1,30.468 64.903,27.761 L62.952,23.282 L51.288,23.282 L49.602,26.874 C49.026,28.115 47.74,31 47.918,33.615 L39.801,33.615 C40.91,32.329 41.886,31.133 44.635,25.677 L57.453,0.221 L57.718,0.221 L68.984,24.523 Z" id="Fill-2"></path>
                <path d="M82.967,17.739 C86.117,16.852 91.171,15.432 91.171,10.333 C91.171,7.848 89.619,3.857 82.967,3.192 L82.967,17.739 Z M78.044,7.316 C78.044,3.414 77.511,1.595 77.158,0.444 L83.633,0.353 C92.192,0.221 96.228,5.365 96.228,9.845 C96.228,15.256 91.438,17.917 89.929,18.714 C92.901,23.948 96.98,28.87 100.928,33.615 L96.36,33.615 C91.881,29.758 89.84,27.362 82.967,18.226 L82.967,26.432 C82.967,29.004 83.012,30.068 83.899,33.615 L77.158,33.615 C77.867,30.334 78.044,27.894 78.044,25.011 L78.044,7.316 Z" id="Fill-3"></path>
                <path d="M109.808,17.739 C112.957,16.852 118.013,15.432 118.013,10.333 C118.013,7.848 116.46,3.857 109.808,3.192 L109.808,17.739 Z M104.885,7.316 C104.885,3.414 104.353,1.595 104,0.444 L110.474,0.353 C119.033,0.221 123.068,5.365 123.068,9.845 C123.068,15.256 118.279,17.917 116.772,18.714 C119.743,23.948 123.822,28.87 127.768,33.615 L123.201,33.615 C118.721,29.758 116.682,27.362 109.808,18.226 L109.808,26.432 C109.808,29.004 109.852,30.068 110.739,33.615 L104,33.615 C104.709,30.334 104.885,27.894 104.885,25.011 L104.885,7.316 Z" id="Fill-4"></path>
                <path d="M142.994,19.38 L151.066,19.38 L147.207,10.465 L142.994,19.38 Z M158.827,24.523 C161.221,29.712 162.774,31.841 164.016,33.528 L156.121,33.615 C156.121,32.151 155.946,30.468 154.746,27.761 L152.796,23.282 L141.132,23.282 L139.448,26.874 C138.869,28.115 137.585,31 137.762,33.615 L129.646,33.615 C130.753,32.329 131.731,31.133 134.48,25.677 L147.297,0.221 L147.563,0.221 L158.827,24.523 Z" id="Fill-5"></path>
                <path d="M174.449,0.353 C173.651,2.572 173.118,4.036 173.118,8.603 L173.118,15.122 L181.678,4.699 C183.807,2.172 183.985,1.418 184.25,0.353 L192.675,0.353 C190.502,1.951 187.886,4.256 184.826,7.982 L178.839,15.122 L190.148,29.357 C191.39,30.91 191.655,31.309 193.918,33.571 L185.802,33.615 C185.359,32.018 184.87,30.378 182.21,27.14 L173.118,15.698 L173.118,25.277 C173.118,29.004 173.871,32.196 174.272,33.615 L166.776,33.615 C167.708,30.778 168.108,27.848 168.108,24.88 L168.108,7.539 C168.108,5.322 167.664,2.572 166.954,0.444 L174.449,0.353" id="Fill-6"></path>
                <path d="M214.567,0.353 L212.039,5.5 C208.315,3.812 206.362,3.371 202.858,3.502 L202.858,15.122 L213.282,15.122 L210.443,19.779 C206.628,18.67 205.386,18.493 202.858,18.315 L202.858,30.468 C207.116,30.468 209.467,30.468 216.519,28.072 L214.079,33.615 L196.65,33.615 C197.227,31.664 197.891,29.312 197.891,25.055 L197.891,8.78 C197.891,6.518 197.58,3.237 196.65,0.353 L214.567,0.353" id="Fill-7"></path>
                <path d="M234.512,6.74 C233.049,5.588 231.186,4.124 228.214,4.124 C225.331,4.124 223.071,5.986 223.071,8.603 C223.071,11.75 225.865,13.392 230.033,15.787 C234.823,18.537 236.153,21.153 236.153,24.346 C236.153,29.846 231.851,33.837 224.888,33.837 C222.271,33.837 220.719,33.393 219.167,32.949 L219.167,25.897 C220.675,27.629 222.626,29.934 225.686,29.934 C228.569,29.934 230.654,27.629 230.654,25.277 C230.654,22.971 228.835,21.509 227.86,20.887 C220.763,16.453 217.926,14.677 217.926,9.622 C217.926,4.344 222.316,0 227.77,0 C230.785,0 232.914,0.93 234.512,1.595 L234.512,6.74" id="Fill-8"></path>
                <path d="M246.535,0.266 C245.958,1.818 245.204,3.68 245.204,7.893 L245.204,14.635 L259.441,14.635 L259.441,8.737 C259.441,4.168 258.731,2.039 258.156,0.266 L265.74,0.266 C264.984,2.439 264.452,4.036 264.452,9.135 L264.452,24.523 C264.452,30.023 265.029,31.664 265.74,33.615 L258.156,33.615 C258.865,31.575 259.441,30.023 259.441,24.701 L259.441,18.849 L245.204,18.849 L245.204,24.346 C245.204,29.624 245.87,31.664 246.448,33.615 L238.909,33.615 C239.484,32.063 240.195,30.023 240.195,25.055 L240.195,8.825 C240.195,4.079 239.441,1.773 238.909,0.266 L246.535,0.266" id="Fill-9"></path>
            </g>
            <g id="emblema" transform="translate(275.535000, 0.000000)">
                <path d="M37,42.0002822 C37,43.1042122 35.6563911,44 34.0004233,44 C32.3433973,44 31,43.1042122 31,42.0002822 C31,40.8950822 32.3433973,40 34.0004233,40 C35.6563911,40 37,40.8950822 37,42.0002822" id="Fill-1" fill="#0A0B09"></path>
                <path d="M41,53.0001981 C41,54.1033185 40.1043948,55 38.9995045,55 C37.8946143,55 37,54.1033185 37,53.0001981 C37,51.8947003 37.8946143,51 38.9995045,51 C40.1043948,51 41,51.8947003 41,53.0001981" id="Fill-2" fill="#0A0B09"></path>
                <path d="M18,53.0001981 C18,54.1033185 17.1034722,55 15.9999009,55 C14.8943484,55 14,54.1033185 14,53.0001981 C14,51.8947003 14.8943484,51 15.9999009,51 C17.1034722,51 18,51.8947003 18,53.0001981" id="Fill-3" fill="#0A0B09"></path>
                <path d="M23,42.0002822 C23,43.1042122 21.6563184,44 20,44 C18.3426233,44 17,43.1042122 17,42.0002822 C17,40.8950822 18.3426233,40 20,40 C21.6563184,40 23,40.8950822 23,42.0002822" id="Fill-4" fill="#0A0B09"></path>
                <path d="M44.553296,39.2187838 C43.2415796,39.2187838 42.1779668,38.1846297 42.1779668,36.9110352 C42.1779668,35.6358118 43.2415796,34.6014947 44.553296,34.6014947 C45.8641749,34.6014947 46.9267825,35.6358118 46.9267825,36.9110352 C46.9267825,38.1846297 45.8641749,39.2187838 44.553296,39.2187838 Z M7.07321749,36.9110352 C7.07321749,35.6359747 8.13699778,34.6016576 9.4483792,34.6016576 C10.7592581,34.6016576 11.8220332,35.6359747 11.8220332,36.9110352 C11.8220332,38.1854441 10.7592581,39.2197612 9.4483792,39.2197612 C8.13699778,39.2197612 7.07321749,38.1854441 7.07321749,36.9110352 Z M17.270431,28.5335556 C18.5813099,28.5335556 19.6442525,29.5670582 19.6442525,30.8426073 C19.6442525,32.117342 18.5813099,33.1516591 17.270431,33.1516591 C15.9583795,33.1516591 14.8954368,32.117342 14.8954368,30.8426073 C14.8954368,29.5670582 15.9583795,28.5335556 17.270431,28.5335556 Z M17.270431,19.1158951 C18.5813099,19.1158951 19.6442525,20.1492348 19.6442525,21.424784 C19.6442525,22.6996816 18.5813099,23.7331842 17.270431,23.7331842 C15.9583795,23.7331842 14.8954368,22.6996816 14.8954368,21.424784 C14.8954368,20.1492348 15.9583795,19.1158951 17.270431,19.1158951 Z M17.270431,9.9580355 C18.5813099,9.9580355 19.6442525,10.9923526 19.6442525,12.2672502 C19.6442525,13.5427993 18.5813099,14.5763019 17.270431,14.5763019 C15.9583795,14.5763019 14.8954368,13.5427993 14.8954368,12.2672502 C14.8954368,10.9923526 15.9583795,9.9580355 17.270431,9.9580355 Z M36.6374305,14.5728813 C35.3258816,14.5728813 34.263274,13.5397045 34.263274,12.2644811 C34.263274,10.9895835 35.3258816,9.95559223 36.6374305,9.95559223 C37.9483094,9.95559223 39.0119222,10.9895835 39.0119222,12.2644811 C39.0119222,13.5397045 37.9483094,14.5728813 36.6374305,14.5728813 Z M36.6374305,23.7326955 C35.3258816,23.7326955 34.263274,22.6995187 34.263274,21.4249469 C34.263274,20.1495606 35.3258816,19.1163837 36.6374305,19.1163837 C37.9483094,19.1163837 39.0119222,20.1495606 39.0119222,21.4249469 C39.0119222,22.6995187 37.9483094,23.7326955 36.6374305,23.7326955 Z M36.6374305,33.1497045 C35.3258816,33.1497045 34.263274,32.1155503 34.263274,30.8411414 C34.263274,29.5657551 35.3258816,28.5324154 36.6374305,28.5324154 C37.9483094,28.5324154 39.0119222,29.5657551 39.0119222,30.8411414 C39.0119222,32.1155503 37.9483094,33.1497045 36.6374305,33.1497045 Z M54,36.2093284 C51.6921831,34.0385656 48.5509321,32.7035636 45.0882016,32.7035636 C43.2437574,32.7035636 42.5227321,33.0824332 40.9386209,33.7634536 L40.9386209,12.1823873 C40.9386209,9.88245706 39.003881,8 36.6374305,8 C34.27031,8 32.3345649,9.88245706 32.3345649,12.1823873 L32.3345649,35.2659009 C38.5443614,37.4070187 43.0026897,43.17411 43.0026897,49.9356117 C43.0026897,58.5158826 35.8235968,65.4966269 26.9999162,65.4966269 C18.1753981,65.4966269 10.9963052,58.5158826 10.9963052,49.9356117 C10.9963052,43.1716668 15.4593241,37.4021322 21.671801,35.262969 C21.6691206,35.2414682 21.6654351,35.2198046 21.6654351,35.1973265 L21.6654351,12.1823873 C21.6654351,9.88245706 19.7288524,8 17.3634071,8 C14.9969566,8 13.0613791,9.88245706 13.0613791,12.1823873 L13.0613791,33.7634536 C11.4771003,33.0824332 10.7562426,32.7035636 8.912636,32.7035636 C5.44906791,32.7035636 2.30681173,34.0385656 0,36.2093284 C4.74462758,36.5935731 8.47120906,40.4573582 8.47120906,45.1683059 L8.41525589,49.9300737 C8.41525589,59.9114777 16.7355254,68 26.9999162,68 C37.2644746,68 45.5849116,59.9114777 45.5849116,49.9300737 L45.5299636,45.1683059 C45.5299636,40.4573582 49.2560425,36.5935731 54,36.2093284 Z" id="Fill-5" fill="#0A0B09"></path>
                <path d="M26.9994228,57.4045145 C24.6050863,57.4045145 22.6574925,55.4865216 22.6574925,53.1305619 C22.6574925,50.7716791 24.6050863,48.8538487 26.9994228,48.8538487 C29.3930997,48.8538487 31.3406934,50.7716791 31.3406934,53.1305619 C31.3406934,55.4865216 29.3930997,57.4045145 26.9994228,57.4045145 Z M41,45.0379994 C41,45.0379994 37.1798468,43.7468334 32.4769272,46.4212407 C31.498183,46.9772653 30.6978721,47.588178 30.0311386,48.2039623 C30.4223065,47.0215979 30.6940791,45.6261773 30.6940791,43.9983761 C30.6940791,37.9517701 26.9994228,35 26.9994228,35 C26.9994228,35 23.3047665,37.9517701 23.3047665,43.9983761 C23.3047665,45.6261773 23.5758795,47.0215979 23.9667175,48.2039623 C23.300149,47.588178 22.499838,46.9772653 21.5219184,46.4212407 C16.8181743,43.7468334 13,45.0379994 13,45.0379994 C13,45.0379994 13.7735955,48.9404027 18.476515,51.61481 C19.6266013,52.2694057 20.7225969,52.6831764 21.7252531,52.9399156 C21.2107321,53.1097759 20.6795552,53.3333875 20.1365047,53.6416044 C16.4876935,55.7164664 16.1379182,59.171809 16.1379182,59.171809 C16.1379182,59.171809 19.3510357,60.6019812 23.0008363,58.5280935 C23.4393335,58.2773628 23.8285225,58.0068204 24.1774732,57.7255602 C24.1517472,57.9663852 24.1362456,58.2143553 24.1362456,58.4730432 C24.1362456,62.18886 26.9994228,64 26.9994228,64 C26.9994228,64 29.864579,62.18886 29.864579,58.4730432 C29.864579,58.2143553 29.8480879,57.9671971 29.8215373,57.7265346 C30.1694986,58.0087691 30.5586875,58.2773628 30.9981742,58.5280935 C34.6471503,60.6019812 37.8610923,59.171809 37.8610923,59.171809 C37.8610923,59.171809 37.5103275,55.7164664 33.8613514,53.6416044 C33.3184659,53.3333875 32.7882784,53.1097759 32.2737574,52.9399156 C33.2744347,52.6831764 34.3714198,52.2694057 35.5224956,51.61481 C40.2242607,48.9404027 41,45.0379994 41,45.0379994 Z" id="Fill-6" fill="#0A0B09"></path>
                <path d="M27.0007787,19.3604774 C25.7816065,19.3604774 24.7934042,18.2923944 24.7934042,16.9748788 C24.7934042,15.6575315 25.7816065,14.5896168 27.0007787,14.5896168 C28.2197952,14.5896168 29.2081533,15.6575315 29.2081533,16.9748788 C29.2081533,18.2923944 28.2197952,19.3604774 27.0007787,19.3604774 Z M27.0007787,29.0807734 C25.7816065,29.0807734 24.7934042,28.0126904 24.7934042,26.6953432 C24.7934042,25.3778276 25.7816065,24.3099129 27.0007787,24.3099129 C28.2197952,24.3099129 29.2081533,25.3778276 29.2081533,26.6953432 C29.2081533,28.0126904 28.2197952,29.0807734 27.0007787,29.0807734 Z M27.0003115,5.2257973 C28.2190165,5.2257973 29.207686,6.2935437 29.207686,7.61122759 C29.207686,8.92823825 28.2190165,9.99598465 27.0003115,9.99598465 C25.7809835,9.99598465 24.792937,8.92823825 24.792937,7.61122759 C24.792937,6.2935437 25.7809835,5.2257973 27.0003115,5.2257973 Z M31,7.5009858 C31,5.9244441 30.2190943,4.54566438 29.0516295,3.79147592 C28.453257,3.40302089 27.0003115,1.38517543 27.0003115,0 C27.0003115,1.60464915 25.5484562,3.40302089 24.9482148,3.79147592 C23.7816844,4.54566438 23,5.9244441 23,7.5009858 C23,7.61038605 23.0060741,7.71877645 23.0129268,7.82632531 C23.0060741,7.9325277 23,8.04024486 23,8.14964511 L23,35 C24.273683,34.615921 25.6149593,34.409407 27.0003115,34.409407 C28.3848849,34.409407 29.7261613,34.615921 31,35 L31,8.14964511 C31,8.04024486 30.9947047,7.93370586 30.9878519,7.82716685 C30.9947047,7.7199546 31,7.61122759 31,7.5009858 Z" id="Fill-7" fill="#0A0B09"></path>
                <path d="M27.0003039,57 C24.7943556,57 23,55.2055265 23,53.0012914 C23,50.7943215 24.7943556,49 27.0003039,49 C29.2056444,49 31,50.7943215 31,53.0012914 C31,55.2055265 29.2056444,57 27.0003039,57" id="Fill-8" fill="#DF542A"></path>
            </g>
        </g>
    </g>
</svg>