<?xml version="1.0" encoding="UTF-8"?>
<svg width="592px" height="68px" viewBox="0 0 592 68" version="1.1" xmlns="http://www.w3.org/2000/svg" xmlns:xlink="http://www.w3.org/1999/xlink">
    <!-- Generator: Sketch 55.2 (78181) - https://sketchapp.com -->
    <title>logo</title>
    <desc>Created with Sketch.</desc>
    <g id="logo" stroke="none" stroke-width="1" fill="none" fill-rule="evenodd">
        <g transform="translate(0.465000, 0.000000)">
            <g id="cementlap" transform="translate(339.535000, 29.000000)" fill="#131614">
                <path d="M26.52,6.607 C24.568,5.587 21.819,4.212 17.872,4.212 C10.468,4.212 5.278,9.712 5.278,17.119 C5.278,23.904 9.712,29.758 17.518,29.758 C22.618,29.758 25.501,27.539 27.318,26.165 L27.053,31.309 C24.924,32.372 21.908,33.837 16.675,33.837 C3.769,33.837 0,23.637 0,17.65 C0,8.78 7.451,0 19.381,0 C22.84,0 24.879,0.708 26.52,1.286 L26.52,6.607" id="Fill-10"></path>
                <path d="M47.568,0.309 L45.041,5.455 C41.316,3.769 39.363,3.326 35.861,3.457 L35.861,15.077 L46.283,15.077 L43.445,19.733 C39.631,18.627 38.389,18.449 35.861,18.271 L35.861,30.423 C40.119,30.423 42.47,30.423 49.52,28.027 L47.081,33.57 L29.653,33.57 C30.23,31.62 30.893,29.269 30.893,25.012 L30.893,8.736 C30.893,6.475 30.584,3.192 29.653,0.309 L47.568,0.309" id="Fill-11"></path>
                <path d="M57.612,0.309 C58.187,1.685 58.721,2.749 60.494,4.921 L69.585,16.23 L79.519,3.948 C80.495,2.749 80.938,2.217 81.914,0.444 L88.433,0.444 C87.058,2.084 85.772,3.593 85.772,8.425 L85.772,24.79 C85.772,27.185 85.816,30.333 87.279,33.57 L79.298,33.57 C80.406,31.086 80.762,28.515 80.762,25.323 L80.762,9.534 L69.585,23.46 L58.322,9.534 L58.322,26.165 C58.322,26.697 58.322,30.378 59.74,33.57 L51.845,33.57 C52.511,32.018 53.354,29.846 53.354,24.702 L53.354,3.948 L50.072,0.309 L57.612,0.309" id="Fill-12"></path>
                <path d="M109.474,0.309 L106.946,5.455 C103.221,3.769 101.27,3.326 97.766,3.457 L97.766,15.077 L108.187,15.077 L105.349,19.733 C101.536,18.627 100.295,18.449 97.766,18.271 L97.766,30.423 C102.023,30.423 104.374,30.423 111.426,28.027 L108.987,33.57 L91.558,33.57 C92.134,31.62 92.799,29.269 92.799,25.012 L92.799,8.736 C92.799,6.475 92.488,3.192 91.558,0.309 L109.474,0.309" id="Fill-13"></path>
                <path d="M120.061,0.309 C120.682,1.818 120.991,2.617 123.609,5.941 L138.642,25.012 L138.642,9.889 C138.642,3.769 138.244,2.217 137.712,0.309 L144.098,0.309 C143.654,2.084 143.256,3.857 143.256,7.405 L143.256,25.278 C143.256,30.423 143.876,32.197 144.363,33.57 L138.2,33.57 C137.623,31.798 136.514,30.245 135.361,28.781 L121.213,10.688 L121.213,23.815 C121.213,26.742 121.525,30.866 122.545,33.57 L115.494,33.57 C116.558,30.113 116.601,25.41 116.601,24.79 L116.601,4.789 C115.006,2.749 114.119,1.906 112.122,0.309 L120.061,0.309" id="Fill-14"></path>
                <path d="M173.351,0.354 L171.046,5.455 C167.409,3.99 166.211,3.681 162.352,3.681 L162.352,25.633 C162.352,28.294 162.574,30.999 163.284,33.57 L156.499,33.57 C156.986,31.487 157.43,29.048 157.43,25.1 L157.43,3.681 C155.212,3.636 153.262,3.636 146.831,5.941 L148.604,0.354 L173.351,0.354" id="Fill-15"></path>
                <path d="M192.415,33.57 L176.183,33.57 C177.026,31.442 177.514,30.156 177.514,22.884 L177.514,8.205 C177.514,3.416 176.892,1.818 176.36,0.354 L183.81,0.354 C183.145,2.084 182.568,3.593 182.523,8.515 L182.347,30.201 C188.29,29.669 191.616,28.738 195.164,27.317 L192.415,33.57" id="Fill-16"></path>
                <path d="M209.015,19.336 L217.087,19.336 L213.227,10.422 L209.015,19.336 Z M224.848,24.48 C227.242,29.669 228.793,31.798 230.035,33.482 L222.141,33.57 C222.141,32.108 221.965,30.423 220.766,27.717 L218.816,23.238 L207.151,23.238 L205.468,26.831 C204.89,28.071 203.603,30.955 203.78,33.57 L195.665,33.57 C196.774,32.285 197.749,31.086 200.5,25.633 L213.316,0.177 L213.583,0.177 L224.848,24.48 L224.848,24.48 Z" id="Fill-17"></path>
                <path d="M239.334,17.162 C241.462,16.809 246.296,15.921 246.296,9.934 C246.296,8.071 245.676,5.987 244.166,4.434 C242.748,2.973 241.107,2.704 239.511,2.527 C239.421,3.636 239.334,5.144 239.334,6.255 L239.334,17.162 Z M234.366,9.226 C234.366,3.326 233.613,1.552 233.08,0.309 L240.309,0.309 C247.005,0.309 251.528,3.99 251.528,9.624 C251.528,16.897 244.832,19.114 240.619,18.804 L239.334,18.714 L239.334,24.17 C239.334,26.742 239.998,30.999 240.619,33.57 L232.858,33.57 C233.478,31.266 234.366,28.207 234.366,22.705 L234.366,9.226 L234.366,9.226 Z" id="Fill-18"></path>
            </g>
            <g id="marrakesh" transform="translate(0.000000, 28.516000)" fill="#131614">
                <path d="M7.54,0.353 C8.117,1.729 8.65,2.792 10.422,4.967 L19.514,16.275 L29.448,3.991 C30.424,2.792 30.868,2.261 31.843,0.487 L38.362,0.487 C36.989,2.127 35.701,3.636 35.701,8.47 L35.701,24.834 C35.701,27.229 35.745,30.378 37.209,33.615 L29.227,33.615 C30.335,31.133 30.69,28.56 30.69,25.367 L30.69,9.578 L19.514,23.503 L8.25,9.578 L8.25,26.208 C8.25,26.741 8.25,30.422 9.669,33.615 L1.775,33.615 C2.441,32.063 3.283,29.889 3.283,24.745 L3.283,3.991 L-1.42108547e-14,0.353 L7.54,0.353" id="Fill-1"></path>
                <path d="M53.151,19.38 L61.222,19.38 L57.364,10.465 L53.151,19.38 Z M68.984,24.523 C71.377,29.712 72.929,31.841 74.17,33.528 L66.277,33.615 C66.277,32.151 66.1,30.468 64.903,27.761 L62.952,23.282 L51.288,23.282 L49.602,26.874 C49.026,28.115 47.74,31 47.918,33.615 L39.801,33.615 C40.91,32.329 41.886,31.133 44.635,25.677 L57.453,0.221 L57.718,0.221 L68.984,24.523 L68.984,24.523 Z" id="Fill-2"></path>
                <path d="M82.967,17.739 C86.117,16.852 91.171,15.432 91.171,10.333 C91.171,7.848 89.619,3.857 82.967,3.192 L82.967,17.739 Z M78.044,7.316 C78.044,3.414 77.511,1.595 77.158,0.444 L83.633,0.353 C92.192,0.221 96.228,5.365 96.228,9.845 C96.228,15.256 91.438,17.917 89.929,18.714 C92.901,23.948 96.98,28.87 100.928,33.615 L96.36,33.615 C91.881,29.758 89.84,27.362 82.967,18.226 L82.967,26.432 C82.967,29.004 83.012,30.068 83.899,33.615 L77.158,33.615 C77.867,30.334 78.044,27.894 78.044,25.011 L78.044,7.316 L78.044,7.316 Z" id="Fill-3"></path>
                <path d="M109.808,17.739 C112.957,16.852 118.013,15.432 118.013,10.333 C118.013,7.848 116.46,3.857 109.808,3.192 L109.808,17.739 Z M104.885,7.316 C104.885,3.414 104.353,1.595 104,0.444 L110.474,0.353 C119.033,0.221 123.068,5.365 123.068,9.845 C123.068,15.256 118.279,17.917 116.772,18.714 C119.743,23.948 123.822,28.87 127.768,33.615 L123.201,33.615 C118.721,29.758 116.682,27.362 109.808,18.226 L109.808,26.432 C109.808,29.004 109.852,30.068 110.739,33.615 L104,33.615 C104.709,30.334 104.885,27.894 104.885,25.011 L104.885,7.316 L104.885,7.316 Z" id="Fill-4"></path>
                <path d="M142.994,19.38 L151.066,19.38 L147.207,10.465 L142.994,19.38 Z M158.827,24.523 C161.221,29.712 162.774,31.841 164.016,33.528 L156.121,33.615 C156.121,32.151 155.946,30.468 154.746,27.761 L152.796,23.282 L141.132,23.282 L139.448,26.874 C138.869,28.115 137.585,31 137.762,33.615 L129.646,33.615 C130.753,32.329 131.731,31.133 134.48,25.677 L147.297,0.221 L147.563,0.221 L158.827,24.523 L158.827,24.523 Z" id="Fill-5"></path>
                <path d="M174.449,0.353 C173.651,2.572 173.118,4.036 173.118,8.603 L173.118,15.122 L181.678,4.699 C183.807,2.172 183.985,1.418 184.25,0.353 L192.675,0.353 C190.502,1.951 187.886,4.256 184.826,7.982 L178.839,15.122 L190.148,29.357 C191.39,30.91 191.655,31.309 193.918,33.571 L185.802,33.615 C185.359,32.018 184.87,30.378 182.21,27.14 L173.118,15.698 L173.118,25.277 C173.118,29.004 173.871,32.196 174.272,33.615 L166.776,33.615 C167.708,30.778 168.108,27.848 168.108,24.88 L168.108,7.539 C168.108,5.322 167.664,2.572 166.954,0.444 L174.449,0.353" id="Fill-6"></path>
                <path d="M214.567,0.353 L212.039,5.5 C208.315,3.812 206.362,3.371 202.858,3.502 L202.858,15.122 L213.282,15.122 L210.443,19.779 C206.628,18.67 205.386,18.493 202.858,18.315 L202.858,30.468 C207.116,30.468 209.467,30.468 216.519,28.072 L214.079,33.615 L196.65,33.615 C197.227,31.664 197.891,29.312 197.891,25.055 L197.891,8.78 C197.891,6.518 197.58,3.237 196.65,0.353 L214.567,0.353" id="Fill-7"></path>
                <path d="M234.512,6.74 C233.049,5.588 231.186,4.124 228.214,4.124 C225.331,4.124 223.071,5.986 223.071,8.603 C223.071,11.75 225.865,13.392 230.033,15.787 C234.823,18.537 236.153,21.153 236.153,24.346 C236.153,29.846 231.851,33.837 224.888,33.837 C222.271,33.837 220.719,33.393 219.167,32.949 L219.167,25.897 C220.675,27.629 222.626,29.934 225.686,29.934 C228.569,29.934 230.654,27.629 230.654,25.277 C230.654,22.971 228.835,21.509 227.86,20.887 C220.763,16.453 217.926,14.677 217.926,9.622 C217.926,4.344 222.316,0 227.77,0 C230.785,0 232.914,0.93 234.512,1.595 L234.512,6.74" id="Fill-8"></path>
                <path d="M246.535,0.266 C245.958,1.818 245.204,3.68 245.204,7.893 L245.204,14.635 L259.441,14.635 L259.441,8.737 C259.441,4.168 258.731,2.039 258.156,0.266 L265.74,0.266 C264.984,2.439 264.452,4.036 264.452,9.135 L264.452,24.523 C264.452,30.023 265.029,31.664 265.74,33.615 L258.156,33.615 C258.865,31.575 259.441,30.023 259.441,24.701 L259.441,18.849 L245.204,18.849 L245.204,24.346 C245.204,29.624 245.87,31.664 246.448,33.615 L238.909,33.615 C239.484,32.063 240.195,30.023 240.195,25.055 L240.195,8.825 C240.195,4.079 239.441,1.773 238.909,0.266 L246.535,0.266" id="Fill-9"></path>
            </g>
            <g id="emblema" transform="translate(275.535000, 0.000000)">
                <path d="M37,42.0002822 C37,43.1042122 35.6563911,44 34.0004233,44 C32.3433973,44 31,43.1042122 31,42.0002822 C31,40.8950822 32.3433973,40 34.0004233,40 C35.6563911,40 37,40.8950822 37,42.0002822" id="Fill-1" fill="#0A0B09"></path>
                <path d="M41,53.0001981 C41,54.1033185 40.1043948,55 38.9995045,55 C37.8946143,55 37,54.1033185 37,53.0001981 C37,51.8947003 37.8946143,51 38.9995045,51 C40.1043948,51 41,51.8947003 41,53.0001981" id="Fill-2" fill="#0A0B09"></path>
                <path d="M18,53.0001981 C18,54.1033185 17.1034722,55 15.9999009,55 C14.8943484,55 14,54.1033185 14,53.0001981 C14,51.8947003 14.8943484,51 15.9999009,51 C17.1034722,51 18,51.8947003 18,53.0001981" id="Fill-3" fill="#0A0B09"></path>
                <path d="M23,42.0002822 C23,43.1042122 21.6563184,44 20,44 C18.3426233,44 17,43.1042122 17,42.0002822 C17,40.8950822 18.3426233,40 20,40 C21.6563184,40 23,40.8950822 23,42.0002822" id="Fill-4" fill="#0A0B09"></path>
                <path d="M44.553296,39.2187838 C43.2415796,39.2187838 42.1779668,38.1846297 42.1779668,36.9110352 C42.1779668,35.6358118 43.2415796,34.6014947 44.553296,34.6014947 C45.8641749,34.6014947 46.9267825,35.6358118 46.9267825,36.9110352 C46.9267825,38.1846297 45.8641749,39.2187838 44.553296,39.2187838 Z M7.07321749,36.9110352 C7.07321749,35.6359747 8.13699778,34.6016576 9.4483792,34.6016576 C10.7592581,34.6016576 11.8220332,35.6359747 11.8220332,36.9110352 C11.8220332,38.1854441 10.7592581,39.2197612 9.4483792,39.2197612 C8.13699778,39.2197612 7.07321749,38.1854441 7.07321749,36.9110352 Z M17.270431,28.5335556 C18.5813099,28.5335556 19.6442525,29.5670582 19.6442525,30.8426073 C19.6442525,32.117342 18.5813099,33.1516591 17.270431,33.1516591 C15.9583795,33.1516591 14.8954368,32.117342 14.8954368,30.8426073 C14.8954368,29.5670582 15.9583795,28.5335556 17.270431,28.5335556 Z M17.270431,19.1158951 C18.5813099,19.1158951 19.6442525,20.1492348 19.6442525,21.424784 C19.6442525,22.6996816 18.5813099,23.7331842 17.270431,23.7331842 C15.9583795,23.7331842 14.8954368,22.6996816 14.8954368,21.424784 C14.8954368,20.1492348 15.9583795,19.1158951 17.270431,19.1158951 Z M17.270431,9.9580355 C18.5813099,9.9580355 19.6442525,10.9923526 19.6442525,12.2672502 C19.6442525,13.5427993 18.5813099,14.5763019 17.270431,14.5763019 C15.9583795,14.5763019 14.8954368,13.5427993 14.8954368,12.2672502 C14.8954368,10.9923526 15.9583795,9.9580355 17.270431,9.9580355 Z M36.6374305,14.5728813 C35.3258816,14.5728813 34.263274,13.5397045 34.263274,12.2644811 C34.263274,10.9895835 35.3258816,9.95559223 36.6374305,9.95559223 C37.9483094,9.95559223 39.0119222,10.9895835 39.0119222,12.2644811 C39.0119222,13.5397045 37.9483094,14.5728813 36.6374305,14.5728813 Z M36.6374305,23.7326955 C35.3258816,23.7326955 34.263274,22.6995187 34.263274,21.4249469 C34.263274,20.1495606 35.3258816,19.1163837 36.6374305,19.1163837 C37.9483094,19.1163837 39.0119222,20.1495606 39.0119222,21.4249469 C39.0119222,22.6995187 37.9483094,23.7326955 36.6374305,23.7326955 Z M36.6374305,33.1497045 C35.3258816,33.1497045 34.263274,32.1155503 34.263274,30.8411414 C34.263274,29.5657551 35.3258816,28.5324154 36.6374305,28.5324154 C37.9483094,28.5324154 39.0119222,29.5657551 39.0119222,30.8411414 C39.0119222,32.1155503 37.9483094,33.1497045 36.6374305,33.1497045 Z M54,36.2093284 C51.6921831,34.0385656 48.5509321,32.7035636 45.0882016,32.7035636 C43.2437574,32.7035636 42.5227321,33.0824332 40.9386209,33.7634536 L40.9386209,12.1823873 C40.9386209,9.88245706 39.003881,8 36.6374305,8 C34.27031,8 32.3345649,9.88245706 32.3345649,12.1823873 L32.3345649,35.2659009 C38.5443614,37.4070187 43.0026897,43.17411 43.0026897,49.9356117 C43.0026897,58.5158826 35.8235968,65.4966269 26.9999162,65.4966269 C18.1753981,65.4966269 10.9963052,58.5158826 10.9963052,49.9356117 C10.9963052,43.1716668 15.4593241,37.4021322 21.671801,35.262969 C21.6691206,35.2414682 21.6654351,35.2198046 21.6654351,35.1973265 L21.6654351,12.1823873 C21.6654351,9.88245706 19.7288524,8 17.3634071,8 C14.9969566,8 13.0613791,9.88245706 13.0613791,12.1823873 L13.0613791,33.7634536 C11.4771003,33.0824332 10.7562426,32.7035636 8.912636,32.7035636 C5.44906791,32.7035636 2.30681173,34.0385656 0,36.2093284 C4.74462758,36.5935731 8.47120906,40.4573582 8.47120906,45.1683059 L8.41525589,49.9300737 C8.41525589,59.9114777 16.7355254,68 26.9999162,68 C37.2644746,68 45.5849116,59.9114777 45.5849116,49.9300737 L45.5299636,45.1683059 C45.5299636,40.4573582 49.2560425,36.5935731 54,36.2093284 L54,36.2093284 Z" id="Fill-5" fill="#0A0B09"></path>
                <path d="M26.9994228,57.4045145 C24.6050863,57.4045145 22.6574925,55.4865216 22.6574925,53.1305619 C22.6574925,50.7716791 24.6050863,48.8538487 26.9994228,48.8538487 C29.3930997,48.8538487 31.3406934,50.7716791 31.3406934,53.1305619 C31.3406934,55.4865216 29.3930997,57.4045145 26.9994228,57.4045145 Z M41,45.0379994 C41,45.0379994 37.1798468,43.7468334 32.4769272,46.4212407 C31.498183,46.9772653 30.6978721,47.588178 30.0311386,48.2039623 C30.4223065,47.0215979 30.6940791,45.6261773 30.6940791,43.9983761 C30.6940791,37.9517701 26.9994228,35 26.9994228,35 C26.9994228,35 23.3047665,37.9517701 23.3047665,43.9983761 C23.3047665,45.6261773 23.5758795,47.0215979 23.9667175,48.2039623 C23.300149,47.588178 22.499838,46.9772653 21.5219184,46.4212407 C16.8181743,43.7468334 13,45.0379994 13,45.0379994 C13,45.0379994 13.7735955,48.9404027 18.476515,51.61481 C19.6266013,52.2694057 20.7225969,52.6831764 21.7252531,52.9399156 C21.2107321,53.1097759 20.6795552,53.3333875 20.1365047,53.6416044 C16.4876935,55.7164664 16.1379182,59.171809 16.1379182,59.171809 C16.1379182,59.171809 19.3510357,60.6019812 23.0008363,58.5280935 C23.4393335,58.2773628 23.8285225,58.0068204 24.1774732,57.7255602 C24.1517472,57.9663852 24.1362456,58.2143553 24.1362456,58.4730432 C24.1362456,62.18886 26.9994228,64 26.9994228,64 C26.9994228,64 29.864579,62.18886 29.864579,58.4730432 C29.864579,58.2143553 29.8480879,57.9671971 29.8215373,57.7265346 C30.1694986,58.0087691 30.5586875,58.2773628 30.9981742,58.5280935 C34.6471503,60.6019812 37.8610923,59.171809 37.8610923,59.171809 C37.8610923,59.171809 37.5103275,55.7164664 33.8613514,53.6416044 C33.3184659,53.3333875 32.7882784,53.1097759 32.2737574,52.9399156 C33.2744347,52.6831764 34.3714198,52.2694057 35.5224956,51.61481 C40.2242607,48.9404027 41,45.0379994 41,45.0379994 L41,45.0379994 Z" id="Fill-6" fill="#0A0B09"></path>
                <path d="M27.0007787,19.3604774 C25.7816065,19.3604774 24.7934042,18.2923944 24.7934042,16.9748788 C24.7934042,15.6575315 25.7816065,14.5896168 27.0007787,14.5896168 C28.2197952,14.5896168 29.2081533,15.6575315 29.2081533,16.9748788 C29.2081533,18.2923944 28.2197952,19.3604774 27.0007787,19.3604774 Z M27.0007787,29.0807734 C25.7816065,29.0807734 24.7934042,28.0126904 24.7934042,26.6953432 C24.7934042,25.3778276 25.7816065,24.3099129 27.0007787,24.3099129 C28.2197952,24.3099129 29.2081533,25.3778276 29.2081533,26.6953432 C29.2081533,28.0126904 28.2197952,29.0807734 27.0007787,29.0807734 Z M27.0003115,5.2257973 C28.2190165,5.2257973 29.207686,6.2935437 29.207686,7.61122759 C29.207686,8.92823825 28.2190165,9.99598465 27.0003115,9.99598465 C25.7809835,9.99598465 24.792937,8.92823825 24.792937,7.61122759 C24.792937,6.2935437 25.7809835,5.2257973 27.0003115,5.2257973 Z M31,7.5009858 C31,5.9244441 30.2190943,4.54566438 29.0516295,3.79147592 C28.453257,3.40302089 27.0003115,1.38517543 27.0003115,0 C27.0003115,1.60464915 25.5484562,3.40302089 24.9482148,3.79147592 C23.7816844,4.54566438 23,5.9244441 23,7.5009858 C23,7.61038605 23.0060741,7.71877645 23.0129268,7.82632531 C23.0060741,7.9325277 23,8.04024486 23,8.14964511 L23,35 C24.273683,34.615921 25.6149593,34.409407 27.0003115,34.409407 C28.3848849,34.409407 29.7261613,34.615921 31,35 L31,8.14964511 C31,8.04024486 30.9947047,7.93370586 30.9878519,7.82716685 C30.9947047,7.7199546 31,7.61122759 31,7.5009858 L31,7.5009858 Z" id="Fill-7" fill="#0A0B09"></path>
                <path d="M27.0003039,57 C24.7943556,57 23,55.2055265 23,53.0012914 C23,50.7943215 24.7943556,49 27.0003039,49 C29.2056444,49 31,50.7943215 31,53.0012914 C31,55.2055265 29.2056444,57 27.0003039,57" id="Fill-8" fill="#DF542A"></path>
            </g>
        </g>
    </g>
</svg>