<?xml version="1.0" encoding="UTF-8"?>
<svg width="599px" height="68px" viewBox="0 0 599 68" version="1.1" xmlns="http://www.w3.org/2000/svg" xmlns:xlink="http://www.w3.org/1999/xlink">
    <!-- Generator: Sketch 52.4 (67378) - http://www.bohemiancoding.com/sketch -->
    <title>logo-en</title>
    <desc>Created with Sketch.</desc>
    <g id="logo" stroke="none" stroke-width="1" fill="none" fill-rule="evenodd">
        <g id="logo-en">
            <g id="cementtile" transform="translate(339.535000, 27.000000)" fill="#131614">
                <path d="M27.2711523,32.3728981 C25.3791832,33.3402206 23.7077319,34.0052449 22.256748,34.3679909 C20.8057642,34.7307368 19.0916375,34.9121071 17.1143164,34.9121071 C12.334605,34.9121071 8.3551282,33.3473441 5.1757666,30.2177711 C1.996405,27.0881982 0.406748047,23.1620656 0.406748047,18.4392555 C0.406748047,13.2754602 2.09242455,8.98658705 5.46382812,5.57250748 C8.8352317,2.15842791 13.0600918,0.451413727 18.1385352,0.451413727 C19.7459976,0.451413727 21.2218536,0.568770952 22.5661475,0.803488922 C23.9104413,1.03820689 25.293834,1.42584136 26.7163672,1.96640396 L26.7163672,7.49291763 C25.421862,6.52559509 23.9886814,5.78588894 22.4167822,5.27377701 C20.8448831,4.76166507 19.2267759,4.50561295 17.5624121,4.50561295 C14.2336845,4.50561295 11.4633428,5.75742334 9.25130371,8.2610817 C7.03926466,10.76474 5.93326172,13.9013786 5.93326172,17.6710915 C5.93326172,21.4550297 6.97525162,24.5987808 9.0592627,27.1024391 C11.1432738,29.6060975 13.7500267,30.8579079 16.8795996,30.8579079 C18.9849487,30.8579079 20.8519954,30.5520678 22.4807959,29.9403786 C24.1095964,29.3286893 25.7917166,28.3044808 27.527207,26.8677223 L27.2711523,32.3728981 Z" id="Path"></path>
                <path d="M30.7674609,34.3999977 C31.1942208,32.9205632 31.4929483,31.4696012 31.6636523,30.047068 C31.8343563,28.6245349 31.919707,26.8463951 31.919707,24.7125954 L31.919707,10.6509254 C31.919707,8.55980171 31.8343563,6.80299962 31.6636523,5.38046646 C31.4929483,3.95793331 31.1871083,2.48563358 30.746123,0.963523102 L49.2033984,0.963523102 L47.9231249,3.6947731 L46.6215136,6.44736099 C45.3412338,5.76454508 44.0823108,5.28444734 42.844707,5.00705338 C41.6071031,4.72965941 40.1134657,4.59096451 38.3637499,4.59096451 L36.9981249,4.59096451 L36.9981249,15.5373024 L48.0298144,15.5373024 L44.9571582,20.9571266 C43.876033,20.3027614 42.7522486,19.840445 41.5857714,19.5701637 C40.4192942,19.2998824 38.9541071,19.1647438 37.190166,19.1647438 L36.9981249,19.1647438 L36.9981249,30.7298805 C40.0138952,30.6445285 42.4961784,30.4240392 44.4450488,30.0684059 C47.0340591,29.59897 49.3314157,28.7952508 51.3371874,27.6572243 L49.9502246,31.028611 L48.5419238,34.3999977 L30.7674609,34.3999977 Z" id="Path"></path>
                <path d="M59.6985351,24.7125954 C59.6985351,26.8179444 59.7838858,28.5818591 59.9545897,30.0043922 C60.1252937,31.4269254 60.4311338,32.8921126 60.872119,34.3999977 L53.467871,34.3999977 C53.8946309,32.9205632 54.1933584,31.4696012 54.3640624,30.047068 C54.5347664,28.6245349 54.6201171,26.8463951 54.6201171,24.7125954 L54.6201171,4.97504654 L51.1633788,0.963523102 L59.0157226,0.963523102 C59.0299479,1.40450838 59.1650865,1.90594379 59.4211425,2.46784439 C59.6771984,3.02974499 60.0114887,3.55963064 60.4240233,4.05751724 L70.9649413,17.0736305 L80.58833,4.8256813 C81.1573432,4.11441473 81.6196596,3.4067151 81.9752929,2.70256119 C82.3309262,1.99840728 82.5087401,1.41873371 82.5087401,0.963523102 L89.6569335,0.963523102 C88.6327096,2.47140825 87.9178974,3.93659542 87.5124755,5.35912857 C87.1070535,6.78166172 86.9043456,8.54557638 86.9043456,10.6509254 L86.9043456,24.7125954 C86.9043456,26.8179444 86.9896963,28.5818591 87.1604003,30.0043922 C87.3311043,31.4269254 87.6369443,32.8921126 88.0779296,34.3999977 L80.6736815,34.3999977 C81.1004415,32.9205632 81.399169,31.4696012 81.5698729,30.047068 C81.7405769,28.6245349 81.8259276,26.8463951 81.8259276,24.7125954 L81.8259276,10.3095192 L70.7729003,24.7125954 L59.6985351,11.0563454 L59.6985351,24.7125954 Z" id="Path"></path>
                <path d="M93.0892284,34.3999977 C93.5159883,32.9205632 93.8147158,31.4696012 93.9854198,30.047068 C94.1561237,28.6245349 94.2414745,26.8463951 94.2414745,24.7125954 L94.2414745,10.6509254 C94.2414745,8.55980171 94.1561237,6.80299962 93.9854198,5.38046646 C93.8147158,3.95793331 93.5088757,2.48563358 93.0678905,0.963523102 L111.525166,0.963523102 L110.244892,3.6947731 L108.943281,6.44736099 C107.663001,5.76454508 106.404078,5.28444734 105.166474,5.00705338 C103.928871,4.72965941 102.435233,4.59096451 100.685517,4.59096451 L99.3198924,4.59096451 L99.3198924,15.5373024 L110.351582,15.5373024 L107.278926,20.9571266 C106.1978,20.3027614 105.074016,19.840445 103.907539,19.5701637 C102.741062,19.2998824 101.275875,19.1647438 99.5119334,19.1647438 L99.3198924,19.1647438 L99.3198924,30.7298805 C102.335663,30.6445285 104.817946,30.4240392 106.766816,30.0684059 C109.355827,29.59897 111.653183,28.7952508 113.658955,27.6572243 L112.271992,31.028611 L110.863691,34.3999977 L93.0892284,34.3999977 Z" id="Path"></path>
                <path d="M122.297695,24.7125954 C122.297695,26.8179444 122.383046,28.5818591 122.55375,30.0043922 C122.724454,31.4269254 123.030294,32.8921126 123.471279,34.3999977 L116.664492,34.3999977 C117.091252,32.9205632 117.389979,31.4696012 117.560683,30.047068 C117.731387,28.6245349 117.816738,26.8463951 117.816738,24.7125954 L117.816738,5.89257584 C117.062795,4.89680263 116.415553,4.07885833 115.87499,3.43871841 C114.694288,2.01618526 113.919019,1.19112841 113.54916,0.963523102 L121.486855,0.963523102 C122.411502,2.64211222 123.297015,4.12152451 124.143423,5.40180435 C124.98983,6.68208419 126.024707,8.11170857 127.248086,9.69072037 L139.986806,26.2489235 L139.986806,10.6509254 C139.986806,8.55980171 139.901456,6.80299962 139.730752,5.38046646 C139.560048,3.95793331 139.254208,2.48563358 138.813222,0.963523102 L145.62001,0.963523102 C145.19325,2.45718291 144.894522,3.91525753 144.723818,5.33779068 C144.553114,6.76032383 144.467763,8.53135105 144.467763,10.6509254 L144.467763,26.3769508 C144.467763,28.012864 144.574452,29.6060772 144.787832,31.1566383 C145.001212,32.7071995 145.264376,33.7883085 145.577334,34.3999977 L138.770547,34.3999977 C138.69942,33.9163364 138.290448,33.0592731 137.543618,31.8287819 C136.796788,30.5982907 135.918387,29.3358115 134.908388,28.0413063 L122.297695,11.5684547 L122.297695,24.7125954 Z" id="Path"></path>
                <path d="M158.654355,24.7125954 L158.654355,4.56962662 C156.890414,4.64075328 155.375439,4.76877934 154.109385,4.95370865 C151.648402,5.30934194 149.621323,5.9067969 148.028086,6.74609146 L149.009629,3.86547623 L149.991172,0.963523102 L174.060312,0.963523102 L173.27081,3.71611099 L172.45997,6.46869888 C170.496875,5.72898164 168.825423,5.20265227 167.445566,4.88969498 C166.236413,4.63363901 164.998828,4.48427527 163.732773,4.44159927 L163.732773,24.7125954 C163.732773,26.6472405 163.828793,28.3258044 164.020835,29.7483376 C164.212877,31.1708707 164.550723,32.7214086 165.034385,34.3999977 L157.374082,34.3999977 C157.857743,32.7640846 158.192033,31.2348844 158.376963,29.8123512 C158.561892,28.3898181 158.654355,26.6899165 158.654355,24.7125954 Z" id="Path"></path>
                <path d="M184.982207,24.7125954 L184.982207,4.56962662 C183.218266,4.64075328 181.703291,4.76877934 180.437236,4.95370865 C177.976254,5.30934194 175.949174,5.9067969 174.355937,6.74609146 L175.33748,3.86547623 L176.319023,0.963523102 L200.388164,0.963523102 L199.598662,3.71611099 L198.787822,6.46869888 C196.824726,5.72898164 195.153275,5.20265227 193.773418,4.88969498 C192.564264,4.63363901 191.326679,4.48427527 190.060625,4.44159927 L190.060625,24.7125954 C190.060625,26.6472405 190.156644,28.3258044 190.348686,29.7483376 C190.540728,31.1708707 190.878575,32.7214086 191.362236,34.3999977 L183.701933,34.3999977 C184.185595,32.7640846 184.519885,31.2348844 184.704814,29.8123512 C184.889743,28.3898181 184.982207,26.6899165 184.982207,24.7125954 Z" id="Path"></path>
                <path d="M204.119189,24.7125954 L204.119189,10.6509254 C204.119189,8.55980171 204.033838,6.80299962 203.863134,5.38046646 C203.69243,3.95793331 203.38659,2.48563358 202.945605,0.963523102 L210.349853,0.963523102 C209.923093,2.45718291 209.624366,3.91170125 209.453662,5.32712173 C209.282958,6.74254222 209.197607,8.51712571 209.197607,10.6509254 L209.197607,24.7125954 C209.197607,26.8179444 209.282958,28.5818591 209.453662,30.0043922 C209.624366,31.4269254 209.930206,32.8921126 210.371191,34.3999977 L202.966943,34.3999977 C203.393703,32.9205632 203.69243,31.4696012 203.863134,30.047068 C204.033838,28.6387602 204.119189,26.8606204 204.119189,24.7125954 Z" id="Path"></path>
                <path d="M215.403828,34.3999977 C215.830588,32.9205632 216.129315,31.4696012 216.300019,30.047068 C216.470723,28.6245349 216.556074,26.8463951 216.556074,24.7125954 L216.556074,10.6509254 C216.556074,8.55980171 216.470723,6.80299962 216.300019,5.38046646 C216.129315,3.95793331 215.823475,2.48563358 215.38249,0.963523102 L222.786738,0.963523102 C222.359978,2.45718291 222.06125,3.91170125 221.890546,5.32712173 C221.719842,6.74254222 221.634492,8.51712571 221.634492,10.6509254 L221.634492,30.6872047 C224.152375,30.5876274 226.264805,30.3813632 227.971845,30.0684059 C230.560856,29.59897 232.858212,28.7952508 234.863984,27.6572243 L233.477021,31.028611 L232.06872,34.3999977 L215.403828,34.3999977 Z" id="Path"></path>
                <path d="M238.168251,34.3999977 C238.595011,32.9205632 238.893739,31.4696012 239.064443,30.047068 C239.235147,28.6245349 239.320498,26.8463951 239.320498,24.7125954 L239.320498,10.6509254 C239.320498,8.55980171 239.235147,6.80299962 239.064443,5.38046646 C238.893739,3.95793331 238.587899,2.48563358 238.146914,0.963523102 L256.604189,0.963523102 L255.323916,3.6947731 L254.022304,6.44736099 C252.742024,5.76454508 251.483101,5.28444734 250.245498,5.00705338 C249.007894,4.72965941 247.514256,4.59096451 245.764541,4.59096451 L244.398916,4.59096451 L244.398916,15.5373024 L255.430605,15.5373024 L252.357949,20.9571266 C251.276824,20.3027614 250.153039,19.840445 248.986562,19.5701637 C247.820085,19.2998824 246.354898,19.1647438 244.590957,19.1647438 L244.398916,19.1647438 L244.398916,30.7298805 C247.414686,30.6445285 249.896969,30.4240392 251.845839,30.0684059 C254.43485,29.59897 256.732206,28.7952508 258.737978,27.6572243 L257.351015,31.028611 L255.942714,34.3999977 L238.168251,34.3999977 Z" id="Path"></path>
            </g>
            <g id="marrakesh" transform="translate(0.000000, 27.516000)" fill="#131614">
                <path d="M7.54,0.353 C8.117,1.729 8.65,2.792 10.422,4.967 L19.514,16.275 L29.448,3.991 C30.424,2.792 30.868,2.261 31.843,0.487 L38.362,0.487 C36.989,2.127 35.701,3.636 35.701,8.47 L35.701,24.834 C35.701,27.229 35.745,30.378 37.209,33.615 L29.227,33.615 C30.335,31.133 30.69,28.56 30.69,25.367 L30.69,9.578 L19.514,23.503 L8.25,9.578 L8.25,26.208 C8.25,26.741 8.25,30.422 9.669,33.615 L1.775,33.615 C2.441,32.063 3.283,29.889 3.283,24.745 L3.283,3.991 L-1.42108547e-14,0.353 L7.54,0.353" id="Fill-1"></path>
                <path d="M53.151,19.38 L61.222,19.38 L57.364,10.465 L53.151,19.38 Z M68.984,24.523 C71.377,29.712 72.929,31.841 74.17,33.528 L66.277,33.615 C66.277,32.151 66.1,30.468 64.903,27.761 L62.952,23.282 L51.288,23.282 L49.602,26.874 C49.026,28.115 47.74,31 47.918,33.615 L39.801,33.615 C40.91,32.329 41.886,31.133 44.635,25.677 L57.453,0.221 L57.718,0.221 L68.984,24.523 Z" id="Fill-2"></path>
                <path d="M82.967,17.739 C86.117,16.852 91.171,15.432 91.171,10.333 C91.171,7.848 89.619,3.857 82.967,3.192 L82.967,17.739 Z M78.044,7.316 C78.044,3.414 77.511,1.595 77.158,0.444 L83.633,0.353 C92.192,0.221 96.228,5.365 96.228,9.845 C96.228,15.256 91.438,17.917 89.929,18.714 C92.901,23.948 96.98,28.87 100.928,33.615 L96.36,33.615 C91.881,29.758 89.84,27.362 82.967,18.226 L82.967,26.432 C82.967,29.004 83.012,30.068 83.899,33.615 L77.158,33.615 C77.867,30.334 78.044,27.894 78.044,25.011 L78.044,7.316 Z" id="Fill-3"></path>
                <path d="M109.808,17.739 C112.957,16.852 118.013,15.432 118.013,10.333 C118.013,7.848 116.46,3.857 109.808,3.192 L109.808,17.739 Z M104.885,7.316 C104.885,3.414 104.353,1.595 104,0.444 L110.474,0.353 C119.033,0.221 123.068,5.365 123.068,9.845 C123.068,15.256 118.279,17.917 116.772,18.714 C119.743,23.948 123.822,28.87 127.768,33.615 L123.201,33.615 C118.721,29.758 116.682,27.362 109.808,18.226 L109.808,26.432 C109.808,29.004 109.852,30.068 110.739,33.615 L104,33.615 C104.709,30.334 104.885,27.894 104.885,25.011 L104.885,7.316 Z" id="Fill-4"></path>
                <path d="M142.994,19.38 L151.066,19.38 L147.207,10.465 L142.994,19.38 Z M158.827,24.523 C161.221,29.712 162.774,31.841 164.016,33.528 L156.121,33.615 C156.121,32.151 155.946,30.468 154.746,27.761 L152.796,23.282 L141.132,23.282 L139.448,26.874 C138.869,28.115 137.585,31 137.762,33.615 L129.646,33.615 C130.753,32.329 131.731,31.133 134.48,25.677 L147.297,0.221 L147.563,0.221 L158.827,24.523 Z" id="Fill-5"></path>
                <path d="M174.449,0.353 C173.651,2.572 173.118,4.036 173.118,8.603 L173.118,15.122 L181.678,4.699 C183.807,2.172 183.985,1.418 184.25,0.353 L192.675,0.353 C190.502,1.951 187.886,4.256 184.826,7.982 L178.839,15.122 L190.148,29.357 C191.39,30.91 191.655,31.309 193.918,33.571 L185.802,33.615 C185.359,32.018 184.87,30.378 182.21,27.14 L173.118,15.698 L173.118,25.277 C173.118,29.004 173.871,32.196 174.272,33.615 L166.776,33.615 C167.708,30.778 168.108,27.848 168.108,24.88 L168.108,7.539 C168.108,5.322 167.664,2.572 166.954,0.444 L174.449,0.353" id="Fill-6"></path>
                <path d="M214.567,0.353 L212.039,5.5 C208.315,3.812 206.362,3.371 202.858,3.502 L202.858,15.122 L213.282,15.122 L210.443,19.779 C206.628,18.67 205.386,18.493 202.858,18.315 L202.858,30.468 C207.116,30.468 209.467,30.468 216.519,28.072 L214.079,33.615 L196.65,33.615 C197.227,31.664 197.891,29.312 197.891,25.055 L197.891,8.78 C197.891,6.518 197.58,3.237 196.65,0.353 L214.567,0.353" id="Fill-7"></path>
                <path d="M234.512,6.74 C233.049,5.588 231.186,4.124 228.214,4.124 C225.331,4.124 223.071,5.986 223.071,8.603 C223.071,11.75 225.865,13.392 230.033,15.787 C234.823,18.537 236.153,21.153 236.153,24.346 C236.153,29.846 231.851,33.837 224.888,33.837 C222.271,33.837 220.719,33.393 219.167,32.949 L219.167,25.897 C220.675,27.629 222.626,29.934 225.686,29.934 C228.569,29.934 230.654,27.629 230.654,25.277 C230.654,22.971 228.835,21.509 227.86,20.887 C220.763,16.453 217.926,14.677 217.926,9.622 C217.926,4.344 222.316,0 227.77,0 C230.785,0 232.914,0.93 234.512,1.595 L234.512,6.74" id="Fill-8"></path>
                <path d="M246.535,0.266 C245.958,1.818 245.204,3.68 245.204,7.893 L245.204,14.635 L259.441,14.635 L259.441,8.737 C259.441,4.168 258.731,2.039 258.156,0.266 L265.74,0.266 C264.984,2.439 264.452,4.036 264.452,9.135 L264.452,24.523 C264.452,30.023 265.029,31.664 265.74,33.615 L258.156,33.615 C258.865,31.575 259.441,30.023 259.441,24.701 L259.441,18.849 L245.204,18.849 L245.204,24.346 C245.204,29.624 245.87,31.664 246.448,33.615 L238.909,33.615 C239.484,32.063 240.195,30.023 240.195,25.055 L240.195,8.825 C240.195,4.079 239.441,1.773 238.909,0.266 L246.535,0.266" id="Fill-9"></path>
            </g>
            <g id="emblema" transform="translate(275.535000, 0.000000)">
                <path d="M37,42.0002822 C37,43.1042122 35.6563911,44 34.0004233,44 C32.3433973,44 31,43.1042122 31,42.0002822 C31,40.8950822 32.3433973,40 34.0004233,40 C35.6563911,40 37,40.8950822 37,42.0002822" id="Fill-1" fill="#0A0B09"></path>
                <path d="M41,53.0001981 C41,54.1033185 40.1043948,55 38.9995045,55 C37.8946143,55 37,54.1033185 37,53.0001981 C37,51.8947003 37.8946143,51 38.9995045,51 C40.1043948,51 41,51.8947003 41,53.0001981" id="Fill-2" fill="#0A0B09"></path>
                <path d="M18,53.0001981 C18,54.1033185 17.1034722,55 15.9999009,55 C14.8943484,55 14,54.1033185 14,53.0001981 C14,51.8947003 14.8943484,51 15.9999009,51 C17.1034722,51 18,51.8947003 18,53.0001981" id="Fill-3" fill="#0A0B09"></path>
                <path d="M23,42.0002822 C23,43.1042122 21.6563184,44 20,44 C18.3426233,44 17,43.1042122 17,42.0002822 C17,40.8950822 18.3426233,40 20,40 C21.6563184,40 23,40.8950822 23,42.0002822" id="Fill-4" fill="#0A0B09"></path>
                <path d="M44.553296,39.2187838 C43.2415796,39.2187838 42.1779668,38.1846297 42.1779668,36.9110352 C42.1779668,35.6358118 43.2415796,34.6014947 44.553296,34.6014947 C45.8641749,34.6014947 46.9267825,35.6358118 46.9267825,36.9110352 C46.9267825,38.1846297 45.8641749,39.2187838 44.553296,39.2187838 Z M7.07321749,36.9110352 C7.07321749,35.6359747 8.13699778,34.6016576 9.4483792,34.6016576 C10.7592581,34.6016576 11.8220332,35.6359747 11.8220332,36.9110352 C11.8220332,38.1854441 10.7592581,39.2197612 9.4483792,39.2197612 C8.13699778,39.2197612 7.07321749,38.1854441 7.07321749,36.9110352 Z M17.270431,28.5335556 C18.5813099,28.5335556 19.6442525,29.5670582 19.6442525,30.8426073 C19.6442525,32.117342 18.5813099,33.1516591 17.270431,33.1516591 C15.9583795,33.1516591 14.8954368,32.117342 14.8954368,30.8426073 C14.8954368,29.5670582 15.9583795,28.5335556 17.270431,28.5335556 Z M17.270431,19.1158951 C18.5813099,19.1158951 19.6442525,20.1492348 19.6442525,21.424784 C19.6442525,22.6996816 18.5813099,23.7331842 17.270431,23.7331842 C15.9583795,23.7331842 14.8954368,22.6996816 14.8954368,21.424784 C14.8954368,20.1492348 15.9583795,19.1158951 17.270431,19.1158951 Z M17.270431,9.9580355 C18.5813099,9.9580355 19.6442525,10.9923526 19.6442525,12.2672502 C19.6442525,13.5427993 18.5813099,14.5763019 17.270431,14.5763019 C15.9583795,14.5763019 14.8954368,13.5427993 14.8954368,12.2672502 C14.8954368,10.9923526 15.9583795,9.9580355 17.270431,9.9580355 Z M36.6374305,14.5728813 C35.3258816,14.5728813 34.263274,13.5397045 34.263274,12.2644811 C34.263274,10.9895835 35.3258816,9.95559223 36.6374305,9.95559223 C37.9483094,9.95559223 39.0119222,10.9895835 39.0119222,12.2644811 C39.0119222,13.5397045 37.9483094,14.5728813 36.6374305,14.5728813 Z M36.6374305,23.7326955 C35.3258816,23.7326955 34.263274,22.6995187 34.263274,21.4249469 C34.263274,20.1495606 35.3258816,19.1163837 36.6374305,19.1163837 C37.9483094,19.1163837 39.0119222,20.1495606 39.0119222,21.4249469 C39.0119222,22.6995187 37.9483094,23.7326955 36.6374305,23.7326955 Z M36.6374305,33.1497045 C35.3258816,33.1497045 34.263274,32.1155503 34.263274,30.8411414 C34.263274,29.5657551 35.3258816,28.5324154 36.6374305,28.5324154 C37.9483094,28.5324154 39.0119222,29.5657551 39.0119222,30.8411414 C39.0119222,32.1155503 37.9483094,33.1497045 36.6374305,33.1497045 Z M54,36.2093284 C51.6921831,34.0385656 48.5509321,32.7035636 45.0882016,32.7035636 C43.2437574,32.7035636 42.5227321,33.0824332 40.9386209,33.7634536 L40.9386209,12.1823873 C40.9386209,9.88245706 39.003881,8 36.6374305,8 C34.27031,8 32.3345649,9.88245706 32.3345649,12.1823873 L32.3345649,35.2659009 C38.5443614,37.4070187 43.0026897,43.17411 43.0026897,49.9356117 C43.0026897,58.5158826 35.8235968,65.4966269 26.9999162,65.4966269 C18.1753981,65.4966269 10.9963052,58.5158826 10.9963052,49.9356117 C10.9963052,43.1716668 15.4593241,37.4021322 21.671801,35.262969 C21.6691206,35.2414682 21.6654351,35.2198046 21.6654351,35.1973265 L21.6654351,12.1823873 C21.6654351,9.88245706 19.7288524,8 17.3634071,8 C14.9969566,8 13.0613791,9.88245706 13.0613791,12.1823873 L13.0613791,33.7634536 C11.4771003,33.0824332 10.7562426,32.7035636 8.912636,32.7035636 C5.44906791,32.7035636 2.30681173,34.0385656 0,36.2093284 C4.74462758,36.5935731 8.47120906,40.4573582 8.47120906,45.1683059 L8.41525589,49.9300737 C8.41525589,59.9114777 16.7355254,68 26.9999162,68 C37.2644746,68 45.5849116,59.9114777 45.5849116,49.9300737 L45.5299636,45.1683059 C45.5299636,40.4573582 49.2560425,36.5935731 54,36.2093284 Z" id="Fill-5" fill="#0A0B09"></path>
                <path d="M26.9994228,57.4045145 C24.6050863,57.4045145 22.6574925,55.4865216 22.6574925,53.1305619 C22.6574925,50.7716791 24.6050863,48.8538487 26.9994228,48.8538487 C29.3930997,48.8538487 31.3406934,50.7716791 31.3406934,53.1305619 C31.3406934,55.4865216 29.3930997,57.4045145 26.9994228,57.4045145 Z M41,45.0379994 C41,45.0379994 37.1798468,43.7468334 32.4769272,46.4212407 C31.498183,46.9772653 30.6978721,47.588178 30.0311386,48.2039623 C30.4223065,47.0215979 30.6940791,45.6261773 30.6940791,43.9983761 C30.6940791,37.9517701 26.9994228,35 26.9994228,35 C26.9994228,35 23.3047665,37.9517701 23.3047665,43.9983761 C23.3047665,45.6261773 23.5758795,47.0215979 23.9667175,48.2039623 C23.300149,47.588178 22.499838,46.9772653 21.5219184,46.4212407 C16.8181743,43.7468334 13,45.0379994 13,45.0379994 C13,45.0379994 13.7735955,48.9404027 18.476515,51.61481 C19.6266013,52.2694057 20.7225969,52.6831764 21.7252531,52.9399156 C21.2107321,53.1097759 20.6795552,53.3333875 20.1365047,53.6416044 C16.4876935,55.7164664 16.1379182,59.171809 16.1379182,59.171809 C16.1379182,59.171809 19.3510357,60.6019812 23.0008363,58.5280935 C23.4393335,58.2773628 23.8285225,58.0068204 24.1774732,57.7255602 C24.1517472,57.9663852 24.1362456,58.2143553 24.1362456,58.4730432 C24.1362456,62.18886 26.9994228,64 26.9994228,64 C26.9994228,64 29.864579,62.18886 29.864579,58.4730432 C29.864579,58.2143553 29.8480879,57.9671971 29.8215373,57.7265346 C30.1694986,58.0087691 30.5586875,58.2773628 30.9981742,58.5280935 C34.6471503,60.6019812 37.8610923,59.171809 37.8610923,59.171809 C37.8610923,59.171809 37.5103275,55.7164664 33.8613514,53.6416044 C33.3184659,53.3333875 32.7882784,53.1097759 32.2737574,52.9399156 C33.2744347,52.6831764 34.3714198,52.2694057 35.5224956,51.61481 C40.2242607,48.9404027 41,45.0379994 41,45.0379994 Z" id="Fill-6" fill="#0A0B09"></path>
                <path d="M27.0007787,19.3604774 C25.7816065,19.3604774 24.7934042,18.2923944 24.7934042,16.9748788 C24.7934042,15.6575315 25.7816065,14.5896168 27.0007787,14.5896168 C28.2197952,14.5896168 29.2081533,15.6575315 29.2081533,16.9748788 C29.2081533,18.2923944 28.2197952,19.3604774 27.0007787,19.3604774 Z M27.0007787,29.0807734 C25.7816065,29.0807734 24.7934042,28.0126904 24.7934042,26.6953432 C24.7934042,25.3778276 25.7816065,24.3099129 27.0007787,24.3099129 C28.2197952,24.3099129 29.2081533,25.3778276 29.2081533,26.6953432 C29.2081533,28.0126904 28.2197952,29.0807734 27.0007787,29.0807734 Z M27.0003115,5.2257973 C28.2190165,5.2257973 29.207686,6.2935437 29.207686,7.61122759 C29.207686,8.92823825 28.2190165,9.99598465 27.0003115,9.99598465 C25.7809835,9.99598465 24.792937,8.92823825 24.792937,7.61122759 C24.792937,6.2935437 25.7809835,5.2257973 27.0003115,5.2257973 Z M31,7.5009858 C31,5.9244441 30.2190943,4.54566438 29.0516295,3.79147592 C28.453257,3.40302089 27.0003115,1.38517543 27.0003115,0 C27.0003115,1.60464915 25.5484562,3.40302089 24.9482148,3.79147592 C23.7816844,4.54566438 23,5.9244441 23,7.5009858 C23,7.61038605 23.0060741,7.71877645 23.0129268,7.82632531 C23.0060741,7.9325277 23,8.04024486 23,8.14964511 L23,35 C24.273683,34.615921 25.6149593,34.409407 27.0003115,34.409407 C28.3848849,34.409407 29.7261613,34.615921 31,35 L31,8.14964511 C31,8.04024486 30.9947047,7.93370586 30.9878519,7.82716685 C30.9947047,7.7199546 31,7.61122759 31,7.5009858 Z" id="Fill-7" fill="#0A0B09"></path>
                <path d="M27.0003039,57 C24.7943556,57 23,55.2055265 23,53.0012914 C23,50.7943215 24.7943556,49 27.0003039,49 C29.2056444,49 31,50.7943215 31,53.0012914 C31,55.2055265 29.2056444,57 27.0003039,57" id="Fill-8" fill="#DF542A"></path>
            </g>
        </g>
    </g>
</svg>