<?xml version="1.0" encoding="UTF-8"?>
<svg width="539px" height="81px" viewBox="0 0 539 81" version="1.1" xmlns="http://www.w3.org/2000/svg" xmlns:xlink="http://www.w3.org/1999/xlink">
    <!-- Generator: Sketch 54.1 (76490) - https://sketchapp.com -->
    <title>orient dekor logo</title>
    <desc>Created with Sketch.</desc>
    <g id="Page-1" stroke="none" stroke-width="1" fill="none" fill-rule="evenodd">
        <g id="orient-dekor-logo" fill="#1A1919">
            <g id="orient" transform="translate(0.000000, 16.576600)">
                <path d="M199.0314,5.7238 C196.5934,5.8228 194.4984,5.9998 192.7474,6.2548 C189.3444,6.7468 186.5424,7.5728 184.3394,8.7328 L185.6964,4.7358 L187.0534,0.7078 L202.5424,0.7078 L220.3324,0.7078 L219.2414,4.5288 L218.1194,8.3498 C215.4054,7.3268 213.0944,6.5988 211.1864,6.1668 C209.5144,5.8128 207.8034,5.6058 206.0524,5.5468 L206.0524,33.5548 C206.0524,36.2278 206.1854,38.5468 206.4514,40.5128 C206.7174,42.4778 207.1834,44.6198 207.8524,46.9388 L202.5724,46.9388 L197.2614,46.9388 C197.9294,44.6788 198.3924,42.5668 198.6484,40.6008 C198.9034,38.6348 199.0314,36.2858 199.0314,33.5548 L199.0314,5.7238 Z" id="t"></path>
                <path d="M148.8849,33.5285 C148.8849,36.4435 149.0029,38.8845 149.2389,40.8545 C149.4749,42.8235 149.8979,44.8515 150.5079,46.9395 L145.8169,46.9395 L141.0959,46.9395 C141.6869,44.8935 142.0999,42.8875 142.3359,40.9205 C142.5719,38.9545 142.6899,36.4955 142.6899,33.5455 L142.6899,7.5235 C141.6469,6.1475 140.7519,5.0155 140.0049,4.1315 C138.3719,2.1645 137.2999,1.0235 136.7889,0.7085 L142.2769,0.7085 L147.7639,0.7085 C149.0419,3.0285 150.2669,5.0735 151.4379,6.8425 C152.6079,8.6115 154.0379,10.5885 155.7299,12.7705 L173.3429,35.6545 L173.3429,14.0975 C173.3429,11.2075 173.2249,8.7795 172.9889,6.8135 C172.7529,4.8465 172.3289,2.8125 171.7199,0.7085 L176.4109,0.7085 L181.1309,0.7085 C180.5409,2.7735 180.1289,4.7905 179.8929,6.7565 C179.6559,8.7235 179.5379,11.1725 179.5379,14.1025 L179.5379,35.8465 C179.5379,38.1085 179.6859,40.3115 179.9809,42.4545 C180.2759,44.5985 180.6399,46.0935 181.0729,46.9395 L176.3809,46.9395 L171.6609,46.9395 C171.5629,46.2705 170.9969,45.0865 169.9649,43.3835 C168.9319,41.6835 167.7169,39.9375 166.3219,38.1475 L148.8849,15.3325 L148.8849,33.5285 Z" id="n"></path>
                <path d="M107.5822,46.9391 C108.1732,44.8941 108.5862,42.8881 108.8212,40.9201 C109.0582,38.9541 109.1762,36.4951 109.1762,33.5451 L109.1762,14.1031 C109.1762,11.2121 109.0582,8.7821 108.8212,6.8151 C108.5862,4.8491 108.1622,2.8131 107.5532,0.7081 L116.1972,0.7081 L133.0732,0.7081 L131.3032,4.4841 L129.5032,8.2911 C127.7322,7.3471 125.9922,6.6831 124.2812,6.2991 C122.5702,5.9161 120.5052,5.7241 118.0862,5.7241 L116.1972,5.7241 L116.1972,20.8591 L131.4502,20.8591 L129.3262,24.6061 L127.2022,28.3531 C125.7072,27.4481 124.1522,26.8091 122.5412,26.4351 C120.9282,26.0621 118.9012,25.8741 116.4632,25.8741 L116.1972,25.8741 L116.1972,41.8651 C120.3672,41.7471 123.7992,41.4421 126.4942,40.9501 C130.0732,40.3011 133.2502,39.1901 136.0232,37.6161 L134.1052,42.2781 L132.1582,46.9391 L116.1972,46.9391 L107.5822,46.9391 Z" id="e"></path>
                <path d="M91.8029,14.1031 C91.8029,11.2121 91.6859,8.7821 91.4489,6.8161 C91.2129,4.8491 90.7899,2.8131 90.1809,0.7081 L95.2839,0.7081 L100.4179,0.7081 C99.8279,2.7741 99.4149,4.7851 99.1789,6.7421 C98.9429,8.6991 98.8239,11.1521 98.8239,14.1031 L98.8239,33.5451 C98.8239,36.4561 98.9429,38.8951 99.1789,40.8611 C99.4149,42.8281 99.8379,44.8551 100.4479,46.9391 L95.3439,46.9391 L90.2099,46.9391 C90.7999,44.8941 91.2129,42.8881 91.4489,40.9201 C91.6859,38.9741 91.8029,36.5151 91.8029,33.5451 L91.8029,14.1031 Z" id="i"></path>
                <path d="M61.1603,23.9567 C64.2093,23.7797 66.6873,22.8947 68.5953,21.3017 C70.7983,19.4917 71.8993,17.1117 71.8993,14.1617 C71.8993,11.4677 70.8563,9.2937 68.7713,7.6417 C66.8253,6.1267 64.2873,5.3007 61.1603,5.1637 L61.1603,23.9567 Z M54.1393,33.5447 L54.1393,14.1027 C54.1393,11.2117 54.0203,8.7827 53.7853,6.8157 C53.5493,4.8487 53.1253,2.8127 52.5153,0.7077 L57.6493,0.7077 L61.1313,0.7077 C67.0313,0.7077 71.5743,1.8987 74.7623,4.2787 C77.9473,6.6587 79.5413,10.0417 79.5413,14.4277 C79.5413,18.3617 77.7703,21.5287 74.2303,23.9267 C73.1093,24.6547 71.8893,25.3037 70.5723,25.8737 L73.9053,30.8897 C75.4993,33.2307 77.2593,35.5767 79.1863,37.9257 C81.1133,40.2767 83.7393,43.2807 87.0633,46.9387 L78.8243,46.9387 C76.4453,44.9337 73.6683,42.0517 70.4933,38.2947 C67.3183,34.5387 64.6103,30.9487 62.3693,27.5267 L61.1603,25.6677 L61.1603,33.5447 C61.1603,36.4567 61.2783,38.8947 61.5143,40.8617 C61.7503,42.8287 62.1733,44.8547 62.7833,46.9387 L57.6793,46.9387 L52.5463,46.9387 C53.1363,44.8937 53.5493,42.8877 53.7853,40.9207 C54.0203,38.9547 54.1393,36.4957 54.1393,33.5447 L54.1393,33.5447 Z" id="r"></path>
                <path d="M35.093,38.277 C37.975,35.101 39.415,31.123 39.415,26.343 C39.415,20.679 37.837,15.973 34.68,12.226 C31.524,8.48 27.555,6.606 22.776,6.606 C18.448,6.606 14.844,8.194 11.963,11.37 C9.082,14.547 7.641,18.535 7.641,23.334 C7.641,28.979 9.219,33.675 12.376,37.422 C15.533,41.169 19.49,43.042 24.251,43.042 C28.598,43.042 32.211,41.453 35.093,38.277 M6.49,41.759 C2.163,37.166 7.10542736e-15,31.399 7.10542736e-15,24.455 C7.10542736e-15,17.729 2.306,12.138 6.918,7.683 C11.531,3.228 17.308,1 24.251,1 C30.801,1 36.239,3.301 40.567,7.904 C44.893,12.506 47.057,18.279 47.057,25.222 C47.057,31.929 44.75,37.51 40.138,41.965 C35.526,46.42 29.739,48.647 22.776,48.647 C16.246,48.647 10.817,46.352 6.49,41.759" id="o"></path>
            </g>
            <g id="dekor" transform="translate(344.342500, 16.577100)">
                <path d="M168.3364,23.9562 C171.3854,23.7792 173.8624,22.8942 175.7714,21.3012 C177.9744,19.4922 179.0754,17.1112 179.0754,14.1612 C179.0754,11.4672 178.0324,9.2932 175.9484,7.6412 C174.0014,6.1272 171.4644,5.3012 168.3364,5.1632 L168.3364,23.9562 Z M161.3154,33.5442 L161.3154,14.1022 C161.3154,11.2112 161.1964,8.7822 160.9604,6.8152 C160.7254,4.8492 160.3024,2.8122 159.6924,0.7082 L164.8254,0.7082 L168.3074,0.7082 C174.2074,0.7082 178.7514,1.8982 181.9374,4.2782 C185.1234,6.6582 186.7164,10.0412 186.7164,14.4272 C186.7164,18.3612 184.9464,21.5282 181.4054,23.9272 C180.2844,24.6552 179.0654,25.3042 177.7474,25.8732 L181.0814,30.8892 C182.6754,33.2302 184.4354,35.5762 186.3624,37.9262 C188.2904,40.2762 190.9154,43.2802 194.2394,46.9392 L185.9994,46.9392 C183.6214,44.9332 180.8444,42.0512 177.6694,38.2942 C174.4944,34.5382 171.7864,30.9482 169.5464,27.5262 L168.3364,25.6672 L168.3364,33.5442 C168.3364,36.4562 168.4544,38.8942 168.6904,40.8612 C168.9274,42.8282 169.3494,44.8542 169.9594,46.9392 L164.8554,46.9392 L159.7224,46.9392 C160.3124,44.8932 160.7254,42.8872 160.9604,40.9202 C161.1964,38.9542 161.3154,36.4952 161.3154,33.5442 L161.3154,33.5442 Z" id="r"></path>
                <path d="M142.269,37.277 C145.15,34.101 146.591,30.122 146.591,25.343 C146.591,19.678 145.013,14.973 141.857,11.226 C138.7,7.479 134.732,5.606 129.953,5.606 C125.624,5.606 122.02,7.194 119.139,10.37 C116.257,13.547 114.817,17.535 114.817,22.334 C114.817,27.979 116.396,32.674 119.552,36.421 C122.709,40.168 126.667,42.042 131.427,42.042 C135.774,42.042 139.388,40.453 142.269,37.277 M113.666,40.758 C109.339,36.166 107.175,30.398 107.175,23.455 C107.175,16.728 109.482,11.137 114.094,6.682 C118.707,2.227 124.484,2.84217094e-14 131.427,2.84217094e-14 C137.977,2.84217094e-14 143.415,2.301 147.742,6.904 C152.069,11.506 154.233,17.279 154.233,24.222 C154.233,30.929 151.926,36.509 147.314,40.965 C142.702,45.42 136.915,47.647 129.953,47.647 C123.421,47.647 117.994,45.351 113.666,40.758" id="o"></path>
                <path d="M80.7798,33.5446 C80.7798,36.4556 80.8978,38.8946 81.1338,40.8616 C81.3698,42.8276 81.7928,44.8546 82.4018,46.9396 L77.2988,46.9396 L72.1658,46.9396 C72.7558,44.8936 73.1688,42.8876 73.4038,40.9206 C73.6398,38.9536 73.7588,36.4946 73.7588,33.5446 L73.7588,14.1026 C73.7588,11.2116 73.6398,8.7866 73.4038,6.8296 C73.1688,4.8726 72.7458,2.8326 72.1358,0.7086 L77.2398,0.7086 L82.3728,0.7086 C81.7828,2.7736 81.3698,4.7896 81.1338,6.7556 C80.8978,8.7236 80.7798,11.1716 80.7798,14.1026 L80.7798,21.0946 L80.8088,21.0946 L87.5128,12.7746 C90.1488,9.5886 92.0718,7.1096 93.2808,5.3396 C94.4908,3.5696 95.3018,2.0256 95.7158,0.7086 L101.5388,0.7086 L107.3618,0.7086 C106.0238,1.4756 104.5688,2.6406 102.9958,4.2036 C101.4218,5.7676 99.2978,8.1726 96.6228,11.4176 L88.5978,21.1536 L98.3628,33.5446 C102.1598,38.2656 104.8928,41.6086 106.5648,43.5756 C108.2368,45.5426 109.2888,46.6636 109.7218,46.9396 L103.6958,46.9396 L97.6398,46.9396 C97.6208,46.0736 97.2718,44.9526 96.5928,43.5756 C95.9148,42.1986 95.0248,40.8216 93.9238,39.4446 L80.7808,22.8646 L80.7798,22.8646 L80.7798,33.5446 Z" id="k"></path>
                <path d="M40.9155,46.9391 C41.5055,44.8941 41.9185,42.8871 42.1535,40.9201 C42.3905,38.9541 42.5085,36.4951 42.5085,33.5441 L42.5085,14.1021 C42.5085,11.2111 42.3905,8.7821 42.1535,6.8151 C41.9185,4.8491 41.4955,2.8131 40.8865,0.7081 L49.5295,0.7081 L66.4055,0.7081 L64.6355,4.4841 L62.8355,8.2901 C61.0655,7.3461 59.3245,6.6821 57.6135,6.2991 C55.9025,5.9151 53.8375,5.7241 51.4185,5.7241 L49.5295,5.7241 L49.5295,20.8581 L64.7825,20.8581 L62.6585,24.6051 L60.5345,28.3521 C59.0395,27.4481 57.4855,26.8081 55.8725,26.4341 C54.2605,26.0611 52.2335,25.8741 49.7955,25.8741 L49.5295,25.8741 L49.5295,41.8641 C53.6995,41.7461 57.1315,41.4421 59.8265,40.9501 C63.4055,40.3011 66.5825,39.1891 69.3555,37.6161 L67.4375,42.2781 L65.4905,46.9391 L49.5295,46.9391 L40.9155,46.9391 Z" id="e"></path>
                <path d="M8.644,41.8937 C14.408,41.8937 19.04,40.3407 22.54,37.2327 C26.04,34.1257 27.792,30.0337 27.792,24.9597 C27.792,19.1967 26.129,14.5557 22.806,11.0337 C19.482,7.5137 15.085,5.7527 9.619,5.7527 L8.644,5.7527 L8.644,41.8937 Z M1.623,33.5447 L1.623,14.1017 C1.623,11.2117 1.505,8.7827 1.269,6.8147 C1.033,4.8487 0.61,2.8127 0,0.7077 L5.134,0.7077 L7.877,0.7077 C16.256,0.7077 22.904,2.8277 27.822,7.0657 C32.738,11.3047 35.197,17.0337 35.197,24.2517 C35.197,31.2137 32.911,36.7357 28.337,40.8167 C23.765,44.8987 17.574,46.9387 9.765,46.9387 L5.134,46.9387 L0.03,46.9387 C0.621,44.8937 1.033,42.8877 1.269,40.9207 C1.505,38.9537 1.623,36.4947 1.623,33.5447 L1.623,33.5447 Z" id="d"></path>
            </g>
            <path d="M314.7795,27.816 L314.7835,27.826 C314.7815,27.829 314.7795,27.832 314.7775,27.834 C314.7815,27.836 314.7845,27.836 314.7885,27.837 C314.7835,27.839 314.7765,27.841 314.7705,27.844 C314.7065,27.94 314.6405,28.031 314.5765,28.124 C312.0865,32.166 309.3635,34.628 306.1525,35.879 C302.9985,37.265 299.3325,37.449 294.7145,36.352 C294.6015,36.331 294.4915,36.313 294.3785,36.291 L294.3605,36.298 C294.3625,36.295 294.3645,36.292 294.3665,36.289 C294.3635,36.288 294.3595,36.288 294.3555,36.287 L294.3515,36.278 C294.3535,36.274 294.3555,36.272 294.3585,36.269 C294.3545,36.267 294.3505,36.267 294.3475,36.266 C294.3525,36.263 294.3595,36.261 294.3655,36.258 C294.4285,36.165 294.4925,36.075 294.5565,35.983 C297.0475,31.939 299.7695,29.474 302.9825,28.224 C306.1375,26.837 309.8055,26.654 314.4265,27.753 C314.5375,27.772 314.6445,27.791 314.7575,27.812 C314.7625,27.809 314.7695,27.807 314.7755,27.804 C314.7725,27.808 314.7705,27.81 314.7695,27.814 C314.7725,27.815 314.7755,27.816 314.7795,27.816 L314.7795,27.816 Z M314.7835,52.976 L314.7795,52.986 C314.7755,52.986 314.7725,52.987 314.7685,52.988 C314.7705,52.991 314.7725,52.994 314.7745,52.997 C314.7695,52.995 314.7635,52.992 314.7575,52.99 C314.6445,53.011 314.5335,53.03 314.4215,53.05 C309.8025,54.148 306.1365,53.964 302.9825,52.577 C299.7715,51.327 297.0495,48.864 294.5585,44.823 C294.4945,44.73 294.4295,44.638 294.3645,44.543 C294.3585,44.541 294.3525,44.538 294.3475,44.536 C294.3505,44.535 294.3535,44.534 294.3575,44.533 C294.3555,44.53 294.3535,44.528 294.3515,44.524 L294.3555,44.515 C294.3595,44.514 294.3635,44.514 294.3665,44.513 C294.3645,44.509 294.3625,44.506 294.3605,44.503 C294.3665,44.505 294.3725,44.508 294.3795,44.511 C294.4895,44.489 294.5985,44.471 294.7095,44.451 C299.3295,43.353 302.9975,43.535 306.1535,44.923 C309.3655,46.173 312.0885,48.637 314.5785,52.682 C314.6425,52.774 314.7065,52.864 314.7695,52.957 C314.7755,52.96 314.7825,52.962 314.7885,52.964 C314.7845,52.965 314.7815,52.966 314.7775,52.967 L314.7835,52.976 Z M286.2615,44.869 C283.7935,45.891 280.9645,44.719 279.9415,42.252 C278.9205,39.784 280.0915,36.955 282.5595,35.932 C285.0275,34.91 287.8565,36.082 288.8795,38.55 C289.9005,41.018 288.7285,43.847 286.2615,44.869 L286.2615,44.869 Z M297.0585,70.417 C297.0395,70.527 297.0205,70.635 296.9995,70.747 C297.0025,70.754 297.0045,70.759 297.0075,70.765 C297.0035,70.763 297.0005,70.761 296.9975,70.759 C296.9965,70.763 296.9965,70.766 296.9955,70.77 L296.9855,70.774 C296.9825,70.772 296.9795,70.77 296.9765,70.767 C296.9755,70.771 296.9745,70.774 296.9735,70.778 C296.9715,70.773 296.9685,70.767 296.9675,70.761 C296.8715,70.696 296.7805,70.631 296.6865,70.566 C292.6445,68.077 290.1825,65.354 288.9325,62.143 C287.5465,58.989 287.3625,55.322 288.4595,50.704 C288.4795,50.592 288.4985,50.481 288.5195,50.368 C288.5175,50.362 288.5145,50.357 288.5125,50.351 C288.5155,50.353 288.5195,50.355 288.5225,50.357 C288.5225,50.353 288.5235,50.35 288.5235,50.346 L288.5335,50.342 C288.5375,50.344 288.5395,50.346 288.5425,50.348 C288.5445,50.344 288.5445,50.341 288.5455,50.337 C288.5475,50.343 288.5505,50.349 288.5525,50.355 C288.6465,50.42 288.7365,50.483 288.8285,50.547 C292.8725,53.037 295.3375,55.76 296.5875,58.972 C297.9745,62.128 298.1575,65.796 297.0585,70.417 L297.0585,70.417 Z M274.4635,36.268 C274.4655,36.271 274.4665,36.274 274.4685,36.276 L274.4655,36.287 C274.4615,36.287 274.4585,36.287 274.4545,36.289 C274.4565,36.292 274.4585,36.295 274.4605,36.298 C274.4555,36.295 274.4485,36.293 274.4425,36.291 C274.3315,36.312 274.2225,36.33 274.1125,36.35 C269.4915,37.448 265.8235,37.266 262.6685,35.879 C259.4555,34.628 256.7325,32.164 254.2425,28.119 C254.1775,28.028 254.1145,27.938 254.0505,27.844 C254.0455,27.841 254.0385,27.839 254.0325,27.837 C254.0365,27.836 254.0405,27.836 254.0435,27.834 C254.0425,27.831 254.0395,27.828 254.0375,27.825 L254.0425,27.815 C254.0455,27.815 254.0495,27.814 254.0515,27.814 C254.0505,27.81 254.0485,27.808 254.0465,27.804 C254.0515,27.806 254.0575,27.809 254.0635,27.811 C254.1765,27.79 254.2875,27.771 254.3995,27.751 C259.0175,26.654 262.6835,26.837 265.8385,28.224 C269.0505,29.473 271.7715,31.937 274.2615,35.978 C274.3265,36.072 274.3905,36.163 274.4565,36.258 C274.4625,36.261 274.4685,36.263 274.4735,36.265 C274.4695,36.267 274.4665,36.267 274.4635,36.268 L274.4635,36.268 Z M280.3005,50.369 C280.3215,50.48 280.3405,50.588 280.3595,50.699 C281.4595,55.32 281.2755,58.988 279.8885,62.143 C278.6375,65.355 276.1745,68.079 272.1295,70.569 C272.0375,70.633 271.9475,70.696 271.8535,70.76 C271.8515,70.766 271.8485,70.773 271.8465,70.778 C271.8455,70.774 271.8445,70.771 271.8435,70.767 C271.8405,70.769 271.8385,70.771 271.8355,70.773 L271.8255,70.769 C271.8245,70.766 271.8245,70.762 271.8235,70.759 L271.8145,70.765 C271.8165,70.759 271.8185,70.754 271.8215,70.747 C271.8005,70.634 271.7815,70.524 271.7605,70.412 C270.6635,65.793 270.8465,62.128 272.2335,58.973 C273.4835,55.761 275.9465,53.039 279.9885,50.549 C280.0815,50.484 280.1735,50.42 280.2675,50.355 C280.2705,50.349 280.2735,50.342 280.2755,50.337 C280.2765,50.341 280.2775,50.344 280.2775,50.348 C280.2815,50.346 280.2835,50.344 280.2865,50.342 L280.2965,50.346 C280.2975,50.35 280.2975,50.353 280.2995,50.357 C280.3015,50.355 280.3045,50.353 280.3075,50.351 C280.3055,50.356 280.3025,50.363 280.3005,50.369 L280.3005,50.369 Z M254.3945,53.048 C254.2845,53.029 254.1755,53.01 254.0645,52.989 C254.0585,52.992 254.0515,52.995 254.0465,52.997 L254.0515,52.988 C254.0485,52.986 254.0455,52.986 254.0415,52.985 L254.0375,52.975 C254.0395,52.972 254.0415,52.97 254.0435,52.967 C254.0395,52.966 254.0365,52.965 254.0325,52.964 L254.0505,52.957 C254.1155,52.862 254.1795,52.771 254.2445,52.676 C256.7345,48.635 259.4575,46.172 262.6685,44.923 C265.8225,43.536 269.4885,43.353 274.1065,44.45 C274.2185,44.47 274.3295,44.489 274.4425,44.51 C274.4485,44.508 274.4555,44.505 274.4605,44.503 L274.4545,44.512 C274.4585,44.513 274.4615,44.513 274.4655,44.514 L274.4685,44.524 L274.4635,44.533 C274.4665,44.534 274.4695,44.535 274.4735,44.536 C274.4675,44.538 274.4625,44.541 274.4555,44.543 C274.3915,44.636 274.3285,44.726 274.2635,44.818 C271.7735,48.862 269.0505,51.327 265.8385,52.577 C262.6825,53.964 259.0145,54.147 254.3945,53.048 L254.3945,53.048 Z M271.7615,10.384 C271.7825,10.274 271.8005,10.166 271.8215,10.054 C271.8195,10.048 271.8165,10.042 271.8145,10.037 C271.8175,10.038 271.8205,10.04 271.8245,10.042 C271.8245,10.039 271.8255,10.035 271.8255,10.031 L271.8365,10.027 C271.8385,10.03 271.8415,10.031 271.8435,10.033 C271.8445,10.03 271.8455,10.026 271.8465,10.023 C271.8485,10.028 271.8515,10.034 271.8535,10.04 C271.9495,10.105 272.0415,10.17 272.1335,10.235 C276.1755,12.724 278.6385,15.446 279.8885,18.658 C281.2755,21.812 281.4595,25.479 280.3615,30.097 C280.3415,30.209 280.3225,30.32 280.3005,30.433 C280.3025,30.439 280.3055,30.445 280.3075,30.45 C280.3045,30.448 280.3015,30.446 280.2995,30.445 C280.2985,30.448 280.2975,30.451 280.2975,30.455 L280.2875,30.459 C280.2845,30.457 280.2815,30.455 280.2785,30.453 C280.2775,30.457 280.2765,30.46 280.2755,30.463 C280.2735,30.458 280.2705,30.452 280.2675,30.446 C280.1755,30.382 280.0845,30.318 279.9925,30.254 C275.9485,27.764 273.4845,25.041 272.2335,21.829 C270.8455,18.673 270.6645,15.004 271.7615,10.384 L271.7615,10.384 Z M288.5205,30.432 C288.4995,30.322 288.4805,30.212 288.4615,30.102 C287.3625,25.482 287.5455,21.814 288.9325,18.658 C290.1825,15.446 292.6475,12.722 296.6915,10.232 C296.7835,10.168 296.8735,10.105 296.9675,10.041 C296.9685,10.035 296.9715,10.028 296.9745,10.023 C296.9755,10.026 296.9755,10.03 296.9765,10.033 C296.9805,10.032 296.9825,10.03 296.9865,10.028 L296.9965,10.032 C296.9965,10.035 296.9975,10.039 296.9975,10.042 C297.0005,10.04 297.0045,10.038 297.0075,10.037 C297.0055,10.042 297.0025,10.047 297.0005,10.054 C297.0215,10.167 297.0395,10.278 297.0605,10.389 C298.1575,15.007 297.9745,18.674 296.5875,21.829 C295.3385,25.04 292.8745,27.762 288.8335,30.252 C288.7395,30.316 288.6475,30.381 288.5525,30.446 C288.5505,30.453 288.5485,30.459 288.5455,30.464 C288.5445,30.461 288.5445,30.457 288.5435,30.453 C288.5405,30.455 288.5375,30.457 288.5345,30.46 L288.5245,30.455 C288.5235,30.452 288.5235,30.448 288.5225,30.444 C288.5195,30.446 288.5155,30.448 288.5125,30.45 C288.5155,30.445 288.5175,30.439 288.5205,30.432 L288.5205,30.432 Z M324.8105,23.666 L324.8105,23.666 C319.6065,23.12 313.0045,20.264 303.1845,21.626 C304.5475,11.807 301.6905,5.205 301.1445,2.84217094e-14 C297.0785,3.294 290.3905,5.944 284.4105,13.849 C278.4295,5.944 271.7425,3.294 267.6755,2.84217094e-14 C267.1305,5.205 264.2745,11.807 265.6355,21.626 C255.8165,20.265 249.2155,23.121 244.0095,23.666 C247.3035,27.733 249.9535,34.42 257.8595,40.401 C249.9535,46.381 247.3035,53.069 244.0095,57.135 C249.2155,57.681 255.8165,60.537 265.6355,59.175 C264.2745,68.995 267.1305,75.596 267.6755,80.801 C271.7425,77.507 278.4295,74.858 284.4105,66.952 C290.3905,74.858 297.0785,77.507 301.1445,80.801 C301.6905,75.596 304.5475,68.995 303.1845,59.175 C313.0045,60.537 319.6065,57.681 324.8105,57.135 C321.5165,53.069 318.8675,46.381 310.9625,40.4 C318.8675,34.42 321.5165,27.733 324.8105,23.666 L324.8105,23.666 Z" id="flower"></path>
        </g>
    </g>
</svg>
