<svg viewBox="0 0 179 256" fill="black" xmlns="http://www.w3.org/2000/svg">
<path d="M85.1245 196.214C86.2517 197.313 87.7638 197.928 89.3381 197.928C90.9124 197.928 92.4244 197.313 93.5516 196.214L167.004 122.192C167.582 121.659 168.043 121.012 168.358 120.292C168.674 119.571 168.837 118.793 168.837 118.007C168.837 117.221 168.674 116.443 168.358 115.723C168.043 115.002 167.582 114.355 167.004 113.822L153.794 100.555C152.666 99.4561 151.154 98.841 149.58 98.841C148.006 98.841 146.494 99.4561 145.367 100.555L104.655 141.552V5.69395C104.655 4.18382 104.055 2.73554 102.987 1.66772C101.919 0.599892 100.471 0 98.9608 0H80.1708C78.6607 0 77.2124 0.599892 76.1446 1.66772C75.0767 2.73554 74.4769 4.18382 74.4769 5.69395V141.552L33.7651 100.783C32.6379 99.6839 31.1259 99.0687 29.5516 99.0687C27.9773 99.0687 26.4653 99.6839 25.3381 100.783L12.1281 114.05C11.5501 114.583 11.0889 115.23 10.7734 115.95C10.4579 116.671 10.295 117.449 10.295 118.235C10.295 119.021 10.4579 119.799 10.7734 120.519C11.0889 121.24 11.5501 121.887 12.1281 122.42L85.1245 196.214Z" />
<path d="M172.811 225.423H5.92169C2.65122 225.423 0 228.075 0 231.345V250.078C0 253.349 2.65122 256 5.92169 256H172.811C176.082 256 178.733 253.349 178.733 250.078V231.345C178.733 228.075 176.082 225.423 172.811 225.423Z" />
</svg>
