<?xml version="1.0" encoding="UTF-8"?>
<svg width="100px" height="100px" viewBox="0 0 100 100" version="1.1" xmlns="http://www.w3.org/2000/svg" xmlns:xlink="http://www.w3.org/1999/xlink">
    <!-- Generator: Sketch 51.3 (57544) - http://www.bohemiancoding.com/sketch -->
    <title>esernyo</title>
    <desc>Created with Sketch.</desc>
    <defs></defs>
    <g id="esernyo" stroke="none" stroke-width="1" fill="none" fill-rule="evenodd">
        <path d="M43.9995594,91 C40.1389186,91 37,87.7559939 37,83.7681335 L39.048845,83.7681335 C39.048845,86.5896813 41.2704098,88.8822458 43.9995594,88.8822458 C46.728709,88.8822458 48.9493926,86.5887709 48.9493926,83.7681335 L48.9493926,52 L51,52 L51,83.7681335 C51,87.7550835 47.8602002,91 43.9995594,91 Z" id="Shape" fill="#000000" fill-rule="nonzero"></path>
        <path d="M22.2461614,47.3624559 C18.8022826,47.3624559 15.7648411,48.6528796 14,50.6041865 C15.8822563,33.6791291 29.7652517,20.2940057 47,19 C42.1995238,22.2363575 31.9437556,31.4027537 30.8219887,51 C29.1230807,48.8292942 25.9167419,47.3624559 22.2461614,47.3624559 Z" id="Shape" fill="#000000" fill-rule="nonzero"></path>
        <path d="M41.4337259,47.4446466 C37.8860031,47.4446466 34.7724902,48.8043942 33,50.8435608 C34.3446792,29.6733366 46.4257676,21.0855527 50,19 L50,51 C48.2531053,48.8716994 45.0682906,47.4446466 41.4337259,47.4446466 Z" id="Shape" fill="#000000" fill-rule="nonzero"></path>
        <path d="M60.5658135,47.4474761 C56.9305302,47.4474761 53.7468007,48.8735789 52,51 L52,19 C55.5740402,21.0754889 67.6590494,29.634834 69,50.8499318 C67.2294333,48.8071851 64.1124314,47.4474761 60.5658135,47.4474761 Z" id="Shape" fill="#000000" fill-rule="nonzero"></path>
        <path d="M77.7529354,47.3631479 C74.0832581,47.3631479 70.8769193,48.8300683 69.1780113,51 C68.0553412,31.4025523 57.8004762,22.2365387 53,19 C70.2338451,20.2940781 84.1168405,33.6790552 86,50.6050599 C84.2333525,48.6536438 81.1968142,47.3631479 77.7529354,47.3631479 Z" id="Shape" fill="#000000" fill-rule="nonzero"></path>
        <path d="M48,17.998933 L48,10.7583877 C48,9.78743331 48.4473445,9 48.9996965,9 C49.5526555,9 50,9.78743331 50,10.7583877 L50,18 L48,18 L48,17.998933 Z" id="Shape" fill="#000000" fill-rule="nonzero"></path>
    </g>
</svg>