<?xml version="1.0" encoding="UTF-8"?>
<svg viewBox="0 0 100 100" version="1.1" xmlns="http://www.w3.org/2000/svg" xmlns:xlink="http://www.w3.org/1999/xlink">
    <!-- Generator: Sketch 51.3 (57544) - http://www.bohemiancoding.com/sketch -->
    <title>floor</title>
    <desc>Created with Sketch.</desc>
    <defs></defs>
    <g id="floor" stroke="none" stroke-width="1" fill="none" fill-rule="evenodd">
        <path d="M98.0178753,53.0191176 L70.3607597,34.9044118 L73.8123419,32.5088235 C74.3943417,32.1029412 74.7459666,31.4014706 74.7459666,30.6470588 C74.7459666,29.8926471 74.3943417,29.1911765 73.8123419,28.7852941 L51.5831828,13.3441176 C50.9203497,12.8852941 50.0756416,12.8852941 49.4128085,13.3441176 L27.1836494,28.7852941 C26.6016496,29.1911765 26.2500247,29.8926471 26.2500247,30.6470588 C26.2500247,31.4014706 26.6016496,32.1029412 27.1836494,32.5088235 L30.6352316,34.9088235 L2.98215764,53.0191176 C2.37590784,53.4161765 2.00003297,54.1308824 2.00003297,54.9029412 C1.9959913,55.675 2.36378285,56.3941176 2.97003264,56.7955882 L49.4491835,87.6779412 C49.7725167,87.8941176 50.1362666,88 50.5000165,88 C50.8637664,88 51.2275162,87.8941176 51.5508495,87.6779412 L98.0300003,56.7955882 C98.6362501,56.3897059 99,55.675 99,54.9029412 C98.9959583,54.1308824 98.6241251,53.4161765 98.0178753,53.0191176 Z M50.5,18 L69,31 L50.5,44 L32,31 L50.5,18 Z M49.4272757,48.5758301 C49.7548861,48.8091535 50.1304395,48.9258151 50.5019976,48.9258151 C50.8735558,48.9258151 51.2491092,48.8091535 51.5727243,48.5758301 L66.367131,38 L69,39.7768471 L50.5019976,53 L32,39.7768471 L34.632869,38.004487 L49.4272757,48.5758301 Z M28.0808165,42 L47,54.9475806 L27.9264737,68 L8,54.9519489 L28.0808165,42 Z M51,84 L32,71.2880948 L51,58 L70,71.2880948 L51,84 Z M73.0735263,68 L54,54.9454057 L72.9191835,42 L93,54.9541408 L73.0735263,68 Z" id="Shape" fill="#000000" fill-rule="nonzero"></path>
    </g>
</svg>
