<svg viewBox="0 0 112 100" fill="black" xmlns="http://www.w3.org/2000/svg">
<path d="M101.182 57.1283C107.381 47.9781 111.672 38.1782 111.672 28.3374V28.3383C111.692 18.9851 107.086 10.2274 99.3669 4.94374C91.6489 -0.338994 81.8178 -1.4637 73.1068 1.93919C64.3955 5.34209 57.9296 12.8334 55.8363 21.9488C53.7421 12.8295 47.2733 5.33725 38.5574 1.93532C29.8413 -1.4666 20.0066 -0.336432 12.29 4.95389C4.57198 10.2434 -0.0291092 19.0085 0.000138607 28.3647C0.000138607 63.5587 55.8368 100 55.8368 100C55.8368 100 61.5351 96.2911 69.2918 90.0782V90.0773C73.5218 94.9409 79.5979 97.8074 86.042 97.9793C92.4853 98.1502 98.7058 95.6112 103.189 90.9799C107.672 86.3486 110.007 80.0487 109.626 73.6139C109.244 67.1801 106.182 61.2005 101.183 57.13L101.182 57.1283ZM86.5078 95.1505C81.1231 95.1505 75.959 93.0118 72.151 89.2037C68.343 85.3957 66.2036 80.2309 66.2036 74.8462C66.2036 69.4615 68.3432 64.2965 72.151 60.4894C75.959 56.6814 81.1229 54.542 86.5078 54.542C91.8935 54.542 97.0576 56.6815 100.865 60.4894C104.673 64.2965 106.812 69.4612 106.812 74.8462C106.812 80.2312 104.673 85.396 100.865 89.2037C97.0573 93.0117 91.8935 95.1505 86.5078 95.1505Z" />
<path d="M86.5021 59.7208C86.1476 59.7228 85.8071 59.863 85.5554 60.1134C85.2997 60.3664 85.1541 60.7109 85.1528 61.0701L85.162 73.5032L72.7197 73.5032L72.7191 73.5039C72.0147 73.558 71.4706 74.1461 71.4706 74.8539C71.4706 75.5603 72.0147 76.1485 72.7197 76.2032L85.162 76.2032L85.1528 88.6363C85.1521 89.1377 85.4292 89.5977 85.8712 89.8327C86.0695 89.9536 86.2985 90.017 86.5315 90.015C87.2759 90.013 87.8788 89.4101 87.8808 88.6656L87.8901 76.2326L100.314 76.2326L100.315 76.2319C101.059 76.2299 101.662 75.627 101.664 74.8826C101.662 74.1382 101.058 73.5346 100.314 73.5326H87.8901L87.8808 61.0996C87.8875 60.7323 87.7446 60.3772 87.4849 60.1175C87.2245 59.8571 86.87 59.7148 86.5021 59.7208Z" />
</svg>
