<svg viewBox="0 0 112 100" fill="black" xmlns="http://www.w3.org/2000/svg">
<path d="M82.5405 0.000258675C76.7517 -0.0218149 71.0926 1.70637 66.3035 4.95864C61.5153 8.20999 57.8218 12.8333 55.7081 18.2221C52.3723 9.83508 45.3068 3.48989 36.6109 1.0718C27.9138 -1.34629 18.5868 0.441777 11.4011 5.90492C4.21506 11.3672 -0.002824 19.8757 1.41859e-06 28.902C1.41859e-06 43.5111 9.22948 59.9016 27.5973 77.6876L27.5982 77.6885C36.0884 85.8126 45.2489 93.2043 54.9836 99.7869C55.4205 100.071 55.9834 100.071 56.4203 99.7869C66.163 93.1758 75.3292 85.7528 83.8198 77.5955C102.134 59.8749 111.417 43.4856 111.417 28.9017C111.413 21.2422 108.371 13.8971 102.957 8.47815C97.5429 3.05993 90.2 0.0103831 82.5405 0.000258675ZM55.7084 97.0959C49.3135 92.7448 2.63753 59.9793 2.63753 28.902C2.65961 20.2592 6.9383 12.183 14.0763 7.30939C21.2133 2.43671 30.294 1.39366 38.3513 4.5207C46.4083 7.64773 52.4076 14.5429 54.3887 22.9559C54.5257 23.5555 55.0592 23.9814 55.6745 23.9814C56.2897 23.9814 56.8232 23.5555 56.9602 22.9559C58.8613 14.4539 64.8608 7.45019 72.97 4.26688C81.0792 1.08287 90.2409 2.13402 97.4193 7.07205C104.598 12.0101 108.853 20.1903 108.779 28.902C108.779 59.9793 62.1033 92.7448 55.7084 97.0959Z" />
</svg>
