<?xml version="1.0" encoding="UTF-8"?>
<svg width="100px" height="100px" viewBox="0 0 100 100" version="1.1" xmlns="http://www.w3.org/2000/svg" xmlns:xlink="http://www.w3.org/1999/xlink">
    <!-- Generator: Sketch 51.3 (57544) - http://www.bohemiancoding.com/sketch -->
    <title>padlo</title>
    <desc>Created with Sketch.</desc>
    <defs></defs>
    <g id="padlo" stroke="none" stroke-width="1" fill="none" fill-rule="evenodd">
        <path d="M88.9649435,85.9113333 L78.5650476,35.6446667 C78.4003826,34.8473333 77.689723,34.2666667 76.8663979,34.2666667 L23.1336021,34.2666667 C22.310277,34.2666667 21.5996174,34.8473333 21.4349524,35.6446667 L11.0350565,85.9113333 C10.9310575,86.4226667 11.0610562,86.9513333 11.3903862,87.3586667 C11.7197163,87.766 12.2137113,88 12.7337061,88 L87.2662939,88 C87.7862887,88 88.2802837,87.766 88.6096138,87.3586667 C88.9389438,86.96 89.0689425,86.4226667 88.9649435,85.9113333 Z M79.9343672,59.4 C79.9170341,59.4 79.9083675,59.4 79.8997009,59.4 L51.733316,59.4 L51.733316,37.7333333 L75.4537454,37.7333333 L79.9343672,59.4 Z M24.5462546,37.7333333 L48.266684,37.7333333 L48.266684,59.4 L20.1002991,59.4 C20.0829659,59.4 20.0742994,59.4 20.0656328,59.4 L24.5462546,37.7333333 Z M19.380973,62.702 C19.5976375,62.806 19.8403017,62.8666667 20.1002991,62.8666667 L48.266684,62.8666667 L48.266684,84.5333333 L14.8656848,84.5333333 L19.380973,62.702 Z M51.733316,84.5333333 L51.733316,62.8666667 L79.8997009,62.8666667 C80.1596983,62.8666667 80.4023625,62.806 80.619027,62.702 L85.1343152,84.5333333 L51.733316,84.5333333 Z M56.066606,19.5333333 C58.458582,19.5333333 60.399896,21.4746667 60.399896,23.8666667 C60.399896,24.82 61.1798882,25.6 62.133212,25.6 C63.0865358,25.6 63.8665279,24.82 63.8665279,23.8666667 C63.8665279,21.4746667 65.8078419,19.5333333 68.1998179,19.5333333 C69.1531417,19.5333333 69.9331339,18.7533333 69.9331339,17.8 C69.9331339,16.8466667 69.1531417,16.0666667 68.1998179,16.0666667 C65.8078419,16.0666667 63.8665279,14.1253333 63.8665279,11.7333333 C63.8665279,10.78 63.0865358,10 62.133212,10 C61.1798882,10 60.399896,10.78 60.399896,11.7333333 C60.399896,14.1253333 58.458582,16.0666667 56.066606,16.0666667 C55.1132822,16.0666667 54.33329,16.8466667 54.33329,17.8 C54.33329,18.7533333 55.1132822,19.5333333 56.066606,19.5333333 Z M62.133212,16.6213333 C62.4798752,17.0546667 62.8785378,17.4446667 63.3118668,17.8 C62.8785378,18.1466667 62.4885417,18.5453333 62.133212,18.9786667 C61.7865488,18.5453333 61.3878861,18.1553333 60.9545571,17.8 C61.3878861,17.4533333 61.7865488,17.0546667 62.133212,16.6213333 Z M31.8001821,23 C34.1921581,23 36.1334721,24.9413333 36.1334721,27.3333333 C36.1334721,28.2866667 36.9134642,29.0666667 37.866788,29.0666667 C38.8201118,29.0666667 39.600104,28.2866667 39.600104,27.3333333 C39.600104,24.9413333 41.541418,23 43.933394,23 C44.8867178,23 45.66671,22.22 45.66671,21.2666667 C45.66671,20.3133333 44.8867178,19.5333333 43.933394,19.5333333 C41.541418,19.5333333 39.600104,17.592 39.600104,15.2 C39.600104,14.2466667 38.8201118,13.4666667 37.866788,13.4666667 C36.9134642,13.4666667 36.1334721,14.2466667 36.1334721,15.2 C36.1334721,17.592 34.1921581,19.5333333 31.8001821,19.5333333 C30.8468583,19.5333333 30.0668661,20.3133333 30.0668661,21.2666667 C30.0668661,22.22 30.8468583,23 31.8001821,23 Z M37.866788,20.088 C38.2134512,20.5213333 38.6121139,20.9113333 39.0454429,21.2666667 C38.6121139,21.6133333 38.2221178,22.012 37.866788,22.4453333 C37.5201248,22.012 37.1214622,21.622 36.6881332,21.2666667 C37.1214622,20.92 37.5201248,20.5213333 37.866788,20.088 Z" id="Shape" fill="#000000" fill-rule="nonzero"></path>
    </g>
</svg>