<svg xmlns="http://www.w3.org/2000/svg" xmlns:xlink="http://www.w3.org/1999/xlink" viewBox="0 0 100 125" enable-background="new 0 0 100 100" xml:space="preserve"><g><path fill="#000000" d="M51.505,17.928h10.413V21.8l3.786-2.186l3.786-2.186l-3.786-2.186l-3.786-2.186v3.872H51.505   c-0.276,0-0.5,0.224-0.5,0.5S51.229,17.928,51.505,17.928z"/><path fill="#000000" d="M25.325,21.8v-3.872h10.413c0.276,0,0.5-0.224,0.5-0.5s-0.224-0.5-0.5-0.5H25.325v-3.872l-3.786,2.187   l-3.787,2.185l3.787,2.187L25.325,21.8z"/><path fill="#000000" d="M74.596,44.222c-0.097-3.268-1.869-5.297-4.625-5.297c-1.613,0-2.695,0.764-3.384,1.706v-1.038   c0-0.799-0.848-4.855-4.874-4.855c-1.861,0-3.079,0.962-3.819,2.079c-0.305-1.736-1.595-4.63-5.364-4.63   c-2.02,0-3.328,1.044-4.12,2.27V21.643c0-5.191-2.566-6.281-4.719-6.281c-1.407,0-2.562,0.447-3.433,1.328   c-1.674,1.694-1.663,4.377-1.661,4.484v33.189c0,0.12-0.062,0.219-0.17,0.271c-0.188,0.091-0.461,0.021-0.783-0.231   c-1.101-0.84-2.225-1.918-2.973-2.674l-0.717-0.731c-1.758-1.798-3.751-3.837-5.754-4.862c-4.506-2.305-7.949-0.525-9.061,1.136   c-0.59,0.879-0.793,1.78-0.605,2.676c0.247,1.176,1.166,2.278,2.732,3.274c4.446,2.826,9.563,9.555,11.754,14.168   c1.693,3.563,4.883,6.592,7.697,9.263c1.86,1.767,3.467,3.292,4.245,4.605c0.156,0.264,0.335,0.756,0.416,0.997v8.795   c0,0.276,0.224,0.5,0.5,0.5s0.5-0.224,0.5-0.5v-8.875c0-0.052-0.008-0.104-0.024-0.152c-0.026-0.084-0.269-0.83-0.532-1.274   c-0.849-1.434-2.502-3.003-4.417-4.82c-2.751-2.611-5.869-5.571-7.482-8.968c-2.301-4.843-7.463-11.622-12.122-14.582   c-1.33-0.846-2.101-1.732-2.29-2.636c-0.13-0.623,0.023-1.267,0.458-1.914c0.92-1.376,3.846-2.811,7.775-0.802   c1.857,0.95,3.874,3.013,5.494,4.671l0.722,0.735c0.771,0.779,1.931,1.891,3.121,2.8c0.577,0.451,1.242,0.565,1.784,0.302   c0.452-0.22,0.732-0.668,0.732-1.17V21.168c0-0.023-0.012-2.375,1.373-3.776c0.676-0.684,1.591-1.03,2.721-1.03   c2.468,0,3.719,1.777,3.719,5.281v24.844c0,0.276,0.224,0.5,0.5,0.5s0.5-0.224,0.5-0.5v-9.277c0.059-0.396,0.692-4.022,4.12-4.022   c4.251,0,4.441,4.381,4.441,4.426v8.125c0,0.276,0.224,0.5,0.5,0.5s0.5-0.224,0.5-0.5v-6.519c0.071-0.391,0.731-3.481,3.742-3.481   c3.462,0,3.873,3.821,3.874,3.855v6.395c0,0.276,0.224,0.5,0.5,0.5s0.5-0.224,0.5-0.5v-2.809c0.051-0.347,0.565-3.254,3.384-3.254   c3.156,0,3.587,3.026,3.625,4.327c0.05,1.7-0.198,26.607-0.198,26.811l-0.049,0.431c-0.219,1.877-0.717,3.428-1.046,4.454   l-0.155,0.488c-0.362,1.188-0.346,2.379-0.345,2.42l0.012,12.215c0,0.276,0.224,0.5,0.5,0.5s0.5-0.225,0.5-0.5l-0.012-12.215   c0-0.003,0-0.006,0-0.009c0-0.011-0.016-1.081,0.302-2.119l0.15-0.475c0.32-0.998,0.857-2.67,1.087-4.641l0.053-0.492   C74.405,70.093,74.646,45.941,74.596,44.222z"/></g></svg>
