<svg viewBox="0 0 78 86" xmlns="http://www.w3.org/2000/svg">
<path d="M39 0C29.0707 0 21 8.0707 21 18C21 27.9293 29.0707 36 39 36C48.9293 36 57 27.9293 57 18C57 8.0707 48.9293 0 39 0ZM39 2C47.8485 2 55 9.1516 55 18C55 26.8484 47.8485 34 39 34C30.1515 34 23 26.8484 23 18C23 9.1516 30.1515 2 39 2ZM39 44C17.4442 44 0 62.3952 0 85C2.65169e-05 85.2652 0.105392 85.5196 0.292923 85.7072C0.480454 85.8947 0.734792 86 1 86H77C77.2652 86 77.5195 85.8947 77.7071 85.7072C77.8946 85.5196 78 85.2652 78 85C78 62.3952 60.5558 44 39 44V44ZM39 46C59.094 46 75.3914 62.8976 75.9062 84H2.09375C2.60857 62.8976 18.906 46 39 46V46Z" />
</svg>
