<svg viewBox="0 0 76 63" fill="black" xmlns="http://www.w3.org/2000/svg">
<path d="M31.4894 55.6331C31.4894 58.4431 29.2094 60.723 26.4093 60.723C23.5993 60.723 21.3194 58.4431 21.3194 55.6331C21.3194 54.1831 21.9294 52.8731 22.9093 51.953C23.8194 51.083 25.0594 50.553 26.4093 50.553C27.7594 50.553 28.9894 51.083 29.8994 51.953C30.8794 52.8731 31.4894 54.1831 31.4894 55.6331Z"/>
<path d="M26.4092 62.2229C22.7754 62.2229 19.8193 59.2669 19.8193 55.6331C19.8193 53.8304 20.5713 52.0901 21.8823 50.8597C23.0977 49.6976 24.709 49.053 26.4092 49.053C28.103 49.053 29.7109 49.6976 30.936 50.8694C32.2373 52.0901 32.9893 53.8304 32.9893 55.6331C32.9893 59.2669 30.0376 62.2229 26.4092 62.2229ZM26.4092 52.053C25.4849 52.053 24.6099 52.4026 23.9458 53.0374C23.2158 53.7229 22.8193 54.6409 22.8193 55.6331C22.8193 57.6126 24.4297 59.2229 26.4092 59.2229C28.3833 59.2229 29.9893 57.6126 29.9893 55.6331C29.9893 54.6409 29.5928 53.7229 28.8726 53.0472C28.1987 52.4026 27.3271 52.053 26.4092 52.053Z"/>
<path d="M62.4894 55.6331C62.4894 58.4431 60.2094 60.723 57.4093 60.723C54.5993 60.723 52.3194 58.4431 52.3194 55.6331C52.3194 54.1831 52.9294 52.8731 53.9093 51.953C54.8194 51.083 56.0594 50.553 57.4093 50.553C58.7594 50.553 59.9894 51.083 60.8994 51.953C61.8794 52.8731 62.4894 54.1831 62.4894 55.6331Z"/>
<path d="M57.4092 62.2229C53.7754 62.2229 50.8193 59.2669 50.8193 55.6331C50.8193 53.8304 51.5713 52.0901 52.8823 50.8597C54.0977 49.6976 55.709 49.053 57.4092 49.053C59.103 49.053 60.7109 49.6976 61.936 50.8694C63.2373 52.0901 63.9893 53.8304 63.9893 55.6331C63.9893 59.2669 61.0376 62.2229 57.4092 62.2229ZM57.4092 52.053C56.4849 52.053 55.6099 52.4026 54.9458 53.0374C54.2158 53.7229 53.8193 54.6409 53.8193 55.6331C53.8193 57.6126 55.4297 59.2229 57.4092 59.2229C59.3833 59.2229 60.9893 57.6126 60.9893 55.6331C60.9893 54.6409 60.5928 53.7229 59.8726 53.0472C59.1987 52.4026 58.3271 52.053 57.4092 52.053Z"/>
<path d="M22.9092 53.4534H9.97949V8.49541C9.7959 7.23857 8.9248 3.84892 7.07275 3.14189C5.53174 2.5501 3.44092 3.95049 1.95898 5.22978L0 2.95635C3.05957 0.320604 5.80273 -0.558302 8.15137 0.342088C12.0508 1.83916 12.8853 7.55693 12.9673 8.20342L12.9795 8.39287V50.4534H22.9092V53.4534Z"/>
<path d="M75.4893 50.4534H60.8994V53.4534H75.4893V50.4534Z"/>
<path d="M53.9092 50.4534H29.8994V53.4534H53.9092V50.4534Z"/>
<path d="M12.2401 14.6784V40.9492H62.9068L70.2401 14.6784H12.2401ZM64.3405 35.0744H13.2635V30.4923H65.5192L64.3405 35.0744ZM13.2635 25.1352V20.5531H68.3914L67.1478 25.1352H13.2635Z"/>
<path d="M64.0454 42.4495H10.7402V13.178H72.2163L64.0454 42.4495ZM13.7402 39.4495H61.7681L62.5708 36.5745H13.7402V39.4495ZM14.7637 33.5745H63.1772L63.5845 31.9925H14.7637V33.5745ZM13.7402 28.9925H64.687L65.3452 26.6351H13.7402V28.9925ZM14.7637 23.6351H66.001L66.4302 22.053H14.7637V23.6351ZM13.7402 19.053H67.4614L68.2642 16.178H13.7402V19.053Z"/>
</svg>
