<svg viewBox="0 0 56 55" fill="black" xmlns="http://www.w3.org/2000/svg">
<path d="M21.17 42.05L10.54 2.37999C10.3361 1.61055 9.83653 0.952813 9.15 0.549986C8.80802 0.353278 8.43042 0.22636 8.03905 0.176581C7.64769 0.126802 7.25034 0.155151 6.87 0.259986L1.07 1.80999C0.818479 1.88377 0.605205 2.05191 0.474754 2.27927C0.344304 2.50663 0.306771 2.7756 0.370002 3.02999C0.401605 3.15742 0.458646 3.27714 0.537696 3.38197C0.616746 3.4868 0.716173 3.57456 0.830002 3.63999C1.06025 3.77221 1.33339 3.80815 1.59 3.73999L6.42 2.44999C6.93186 2.3124 7.4774 2.38362 7.93678 2.648C8.39616 2.91237 8.73181 3.34829 8.87 3.85999L19.24 42.57C19.8554 42.3061 20.5053 42.131 21.17 42.05Z"/>
<path d="M26.14 46.2C25.6829 45.5222 25.0663 44.9671 24.3445 44.5835C23.6226 44.1999 22.8175 43.9995 22 44C21.009 43.9978 20.0403 44.294 19.22 44.85C19.2123 44.8507 19.2052 44.8543 19.2 44.86C18.4852 45.3431 17.9076 46.0031 17.5233 46.7755C17.139 47.548 16.9612 48.4068 17.0071 49.2684C17.053 50.13 17.321 50.965 17.7852 51.6923C18.2493 52.4196 18.8938 53.0144 19.6559 53.4189C20.418 53.8234 21.2718 54.0238 22.1343 54.0006C22.9967 53.9775 23.8385 53.7315 24.5778 53.2867C25.3171 52.8419 25.9287 52.2133 26.3531 51.4622C26.7776 50.711 27.0004 49.8628 27 49C27.0022 48.009 26.706 47.0403 26.15 46.22C26.1493 46.2123 26.1457 46.2052 26.14 46.2ZM22 52C21.4067 52 20.8266 51.824 20.3333 51.4944C19.8399 51.1647 19.4554 50.6962 19.2284 50.148C19.0013 49.5999 18.9419 48.9967 19.0576 48.4147C19.1734 47.8328 19.4591 47.2982 19.8787 46.8787C20.2982 46.4591 20.8328 46.1734 21.4147 46.0576C21.9967 45.9419 22.5999 46.0013 23.1481 46.2283C23.6962 46.4554 24.1648 46.8399 24.4944 47.3333C24.8241 47.8266 25 48.4066 25 49C25 49.7956 24.6839 50.5587 24.1213 51.1213C23.5587 51.6839 22.7957 52 22 52Z"/>
<path d="M22 50C22.5523 50 23 49.5523 23 49C23 48.4477 22.5523 48 22 48C21.4477 48 21 48.4477 21 49C21 49.5523 21.4477 50 22 50Z"/>
<path d="M54.58 39.23L28.43 46.24C28.6939 46.8554 28.869 47.5053 28.95 48.17L55.1 41.17C55.3566 41.0985 55.5754 40.9299 55.71 40.7C55.8422 40.4697 55.8782 40.1966 55.81 39.94C55.7381 39.6846 55.5693 39.4674 55.3395 39.3347C55.1097 39.2021 54.8371 39.1645 54.58 39.23Z"/>
<path d="M31.43 18.52L43.02 15.41L39.4 1.88999L33.6 3.43999L34.9 8.26999C34.9447 8.43508 34.9463 8.60887 34.9046 8.77475C34.8629 8.94062 34.7794 9.09305 34.662 9.21744C34.5447 9.34184 34.3974 9.43405 34.2342 9.48527C34.071 9.53649 33.8974 9.545 33.73 9.50999L32.03 9.15999L30.73 10.32C30.5477 10.4808 30.3131 10.5696 30.07 10.57C29.9722 10.5665 29.8751 10.5531 29.78 10.53C29.6171 10.4797 29.4694 10.3892 29.3506 10.2669C29.2317 10.1446 29.1456 9.99432 29.1 9.82999L27.81 4.99999L22.01 6.54999L25.64 20.07L31.43 18.52ZM41.54 13.741C41.574 13.8678 41.5827 14.0002 41.5656 14.1304C41.5485 14.2606 41.5059 14.3862 41.4402 14.4999C41.3746 14.6137 41.2872 14.7134 41.183 14.7934C41.0788 14.8733 40.9599 14.932 40.833 14.966L36.97 16C36.8852 16.0228 36.7978 16.0346 36.71 16.035C36.4668 16.0358 36.2316 15.9479 36.0485 15.7877C35.8653 15.6276 35.7469 15.4062 35.7152 15.165C35.6836 14.9239 35.741 14.6794 35.8766 14.4775C36.0122 14.2755 36.2168 14.13 36.452 14.068L40.315 13.033C40.4419 12.999 40.5743 12.9903 40.7046 13.0075C40.8349 13.0247 40.9605 13.0674 41.0742 13.1331C41.188 13.1989 41.2877 13.2864 41.3676 13.3907C41.4475 13.495 41.5061 13.614 41.54 13.741ZM35.676 11.172L39.539 10.136C39.7952 10.0673 40.0682 10.1032 40.2979 10.2358C40.5277 10.3684 40.6953 10.5868 40.764 10.843C40.8327 11.0992 40.7968 11.3722 40.6642 11.6019C40.5316 11.8316 40.3132 11.9993 40.057 12.068L36.193 13.1C35.9373 13.1671 35.6653 13.1303 35.4367 12.9975C35.2081 12.8647 35.0413 12.6467 34.973 12.3913C34.9046 12.1359 34.9402 11.8638 35.072 11.6345C35.2037 11.4053 35.4209 11.2375 35.676 11.168V11.172Z"/>
<path d="M44.51 17.09L38.71 18.64L41.56 29.27C41.6058 29.4448 41.6034 29.6288 41.553 29.8023C41.5026 29.9759 41.4061 30.1326 41.2738 30.2557C41.1414 30.3788 40.9782 30.4637 40.8015 30.5014C40.6247 30.5392 40.4411 30.5283 40.27 30.47L37.49 29.53L35.55 31.74C35.4563 31.8467 35.3409 31.9321 35.2116 31.9908C35.0823 32.0494 34.942 32.0798 34.8 32.08C34.7223 32.0805 34.6449 32.0704 34.57 32.05C34.3943 32.0089 34.2329 31.9213 34.1027 31.7964C33.9725 31.6714 33.8783 31.5138 33.83 31.34L30.98 20.71L25.19 22.26L22.29 23.04L27.98 44.29L53.1 37.56L47.41 16.31L44.51 17.09ZM50.391 35.181C50.425 35.3078 50.4337 35.4402 50.4166 35.5704C50.3995 35.7006 50.3569 35.8262 50.2912 35.9399C50.2256 36.0537 50.1382 36.1534 50.034 36.2334C49.9298 36.3133 49.8109 36.372 49.684 36.406L43.884 37.958C43.7993 37.9813 43.7118 37.9931 43.624 37.993C43.3814 37.9929 43.1471 37.9045 42.9648 37.7445C42.7825 37.5845 42.6646 37.3636 42.633 37.1231C42.6015 36.8826 42.6584 36.6388 42.7933 36.4371C42.9281 36.2355 43.1317 36.0897 43.366 36.027L49.166 34.474C49.2929 34.44 49.4252 34.4313 49.5554 34.4484C49.6856 34.4655 49.8112 34.5081 49.9249 34.5737C50.0387 34.6394 50.1384 34.7268 50.2184 34.831C50.2983 34.9352 50.357 35.0541 50.391 35.181ZM49.614 32.281C49.648 32.4078 49.6567 32.5402 49.6396 32.6704C49.6225 32.8006 49.5799 32.9262 49.5142 33.0399C49.4486 33.1537 49.3612 33.2534 49.257 33.3334C49.1528 33.4133 49.0339 33.472 48.907 33.506L43.107 35.059C43.0225 35.0818 42.9355 35.0935 42.848 35.094C42.6048 35.0948 42.3696 35.0069 42.1865 34.8467C42.0033 34.6866 41.8849 34.4652 41.8532 34.224C41.8216 33.9829 41.879 33.7384 42.0146 33.5365C42.1502 33.3345 42.3548 33.189 42.59 33.127L48.39 31.574C48.5169 31.5401 48.6493 31.5316 48.7795 31.549C48.9097 31.5663 49.0352 31.6091 49.1489 31.6749C49.2625 31.7408 49.3621 31.8283 49.4419 31.9327C49.5217 32.037 49.5802 32.156 49.614 32.283V32.281Z"/>
<path d="M31.08 7.33999C31.195 7.23609 31.3325 7.16033 31.4817 7.11868C31.631 7.07703 31.7879 7.07063 31.94 7.09999L32.55 7.22999L31.67 3.95999L29.74 4.47999L30.62 7.74999L31.08 7.33999Z"/>
<path d="M35.28 29.01L36.43 27.71C36.5599 27.5615 36.7307 27.4547 36.9211 27.4031C37.1115 27.3515 37.3129 27.3574 37.5 27.42L39.14 27.98L36.78 19.16L32.92 20.19L35.28 29.01Z"/>
</svg>
