<svg viewBox="0 0 132 103" xmlns="http://www.w3.org/2000/svg">
<path fill-rule="evenodd" clip-rule="evenodd" d="M0 1.5C0 0.671573 0.671573 0 1.5 0H6.516C10.9805 0 14.9827 2.75853 16.5691 6.93397C16.5691 6.93408 16.5691 6.93386 16.5691 6.93397L19.7176 15.216H85.037C85.1988 15.216 85.3546 15.2416 85.5006 15.289H120.181C120.661 15.289 121.113 15.5192 121.395 15.908C121.677 16.2969 121.756 16.7974 121.607 17.2542L105.857 65.5352C105.656 66.1524 105.08 66.5701 104.431 66.57L34.5308 66.562C33.8814 66.5619 33.3058 66.144 33.1047 65.5265L27.1367 47.2015C27.1069 47.1099 27.0864 47.0176 27.0746 46.9255L17.7616 18.3785C17.6896 18.277 17.6292 18.1648 17.5829 18.043L13.7649 8.00003C12.6212 4.98965 9.73542 3 6.516 3H1.5C0.671573 3 0 2.32843 0 1.5ZM20.8642 18.216L35.6364 63.4969L103.364 63.4881L108.996 46.1994C109.016 46.1361 109.041 46.0751 109.069 46.0166L118.114 18.289H53.946C53.7842 18.289 53.6284 18.2634 53.4824 18.216H20.8642ZM39.684 76.329C39.684 75.5006 40.3556 74.829 41.184 74.829H98.169C98.9974 74.829 99.669 75.5006 99.669 76.329C99.669 77.1574 98.9974 77.829 98.169 77.829H41.184C40.3556 77.829 39.684 77.1574 39.684 76.329ZM50.971 87.258C47.5905 87.258 44.85 89.9985 44.85 93.379C44.85 96.7595 47.5905 99.5 50.971 99.5C54.3515 99.5 57.092 96.7595 57.092 93.379C57.092 89.9985 54.3515 87.258 50.971 87.258ZM41.85 93.379C41.85 88.3416 45.9336 84.258 50.971 84.258C56.0084 84.258 60.092 88.3416 60.092 93.379C60.092 98.4164 56.0084 102.5 50.971 102.5C45.9336 102.5 41.85 98.4164 41.85 93.379ZM88.383 87.258C85.0025 87.258 82.262 89.9985 82.262 93.379C82.262 96.7595 85.0025 99.5 88.383 99.5C91.7635 99.5 94.504 96.7595 94.504 93.379C94.504 89.9985 91.7635 87.258 88.383 87.258ZM79.262 93.379C79.262 88.3416 83.3456 84.258 88.383 84.258C93.4204 84.258 97.504 88.3416 97.504 93.379C97.504 98.4164 93.4204 102.5 88.383 102.5C83.3456 102.5 79.262 98.4164 79.262 93.379Z" />
<path d="M39.091 59.79L69.675 59.782H80.623C72.496 56.097 64.433 52.256 56.879 47.518C54.696 46.149 52.513 44.663 51.006 42.575C49.498 40.486 48.773 37.661 49.771 35.286C50.883 32.637 53.711 31.241 56.08 29.61C58.461 27.968 60.528 25.884 62.18 23.509H27.254L39.091 59.79Z" fill="#DF542A"/>
</svg>

