<svg viewBox="0 0 100 100" version="1.1" xmlns="http://www.w3.org/2000/svg" xmlns:xlink="http://www.w3.org/1999/xlink">
    <!-- Generator: Sketch 51.3 (57544) - http://www.bohemiancoding.com/sketch -->
    <title>designer</title>
    <desc>Created with Sketch.</desc>
    <defs></defs>
    <g id="designer" stroke="none" stroke-width="1" fill="none" fill-rule="evenodd">
        <path d="M83.4098918,13 C80.0608991,13 71.8115787,18.8689285 63.2348901,27.4287111 C56.781953,33.8689285 51.5548951,40.4734628 49.5945091,44.6310715 C49.3967217,45.0617565 49.2792644,45.4278511 49.210026,45.7583647 C47.8486547,45.0473508 46.3129145,44.7463041 44.7749084,45.0386802 C42.977888,45.3647671 41.5886425,46.4242318 40.8534978,47.9731448 C40.2000358,49.3590144 40.0369896,51.1521739 40.3637206,52.9456522 L40.445084,53.5984628 C40.445084,53.7615063 40.3643586,54.0054348 40.2009931,54.1684783 C39.8742621,54.6576087 38.974476,55.1461024 37.667552,55.1461024 C37.2591383,55.1461024 36.8510431,55.0652174 36.3609466,54.9836957 C36.0342156,54.9021739 35.6261212,54.9840144 35.4627558,55.3101014 C35.2993903,55.5546666 35.2990709,55.9619565 35.5441191,56.2065217 C37.0960913,58.2445652 40.1193103,59.4673913 43.468303,59.4673913 C45.2653235,59.4673913 47.1427508,59.0597826 48.694723,58.2445652 C52.2887639,56.5326087 53.9224189,53.7615063 53.1872742,50.7452019 C53.0491707,50.1938785 52.8598619,49.6846416 52.6273005,49.2055236 C52.8616965,49.1545522 53.1070535,49.0727989 53.351597,48.9507682 C57.5174171,47.1572899 64.2154025,41.858059 70.9133878,35.1732764 C77.1212767,29.0591459 87.9030801,16.5863198 84.8808184,13.5700155 C84.5540874,13.1624068 84.0633538,13 83.4098918,13 Z M83.4098918,14.6304348 C83.5732573,14.6304348 83.7369414,14.630116 83.7369414,14.7116378 C84.6354516,15.6083769 80.5516327,23.2723758 69.76951,34.0332454 C65.8232392,37.9717375 61.791404,41.4718954 58.35307,43.9973679 L54.3933706,40.0454736 C56.8992976,36.6263092 60.3997808,32.6226804 64.378768,28.6515372 C73.5272358,19.5211024 80.9594094,14.6304348 83.4098918,14.6304348 Z M15.6961686,22.7014057 C14.2258792,22.7014057 13,23.9232764 13,25.3906677 L13,67.6195652 L13,67.7007682 L13,72.9184783 C13,74.3858696 14.2258792,75.6093323 15.6961686,75.6093323 L41.5889619,75.6093323 C41.4255964,77.1582454 41.2625503,80.173913 41.0991848,81.4782609 C41.0991848,81.8043478 41.0995033,82.0482772 41.0178206,82.0482772 C40.9361378,83.026538 40.7714964,83.3529429 40.5264482,83.5975082 C40.4447654,83.6790299 40.4454034,83.678712 40.3637206,83.678712 C40.2820379,83.7602337 40.118353,83.8423913 40.0366703,83.923913 C39.791622,84.0869565 39.5465738,84.2493641 39.2198428,84.4939293 L38.9757519,84.6579266 C38.4856554,84.9024918 37.9946016,85.6365054 37.9946016,86.2071576 C37.9946016,86.6147663 38.2402886,87.0217391 38.6487023,87.1847826 C39.3021643,87.4293478 41.0165447,88 42.9769306,88 L58.0068749,88 C59.9672608,88 61.6832373,87.5108696 62.3366993,87.1847826 C62.745113,87.0217391 62.9892039,86.6959701 62.9892039,86.2883614 C62.9892039,85.6361875 62.4180627,84.9833777 62.0096489,84.8203342 C61.6012352,84.575769 61.2741848,84.3312038 60.8657711,84.0051168 C60.7840883,83.9235951 60.702087,83.8430272 60.5387215,83.7615054 L60.3759939,83.5975082 C60.1309457,83.3529429 59.9678996,83.1086957 59.8862168,82.2934783 C59.8862168,82.2119565 59.8865354,82.0482772 59.8048527,81.6406685 C59.7231699,80.2547981 59.4781217,77.3209709 59.3964389,75.6905361 L85.2892321,75.6905361 C86.7595216,75.6905361 87.9854,74.4670726 87.9854,72.9996812 L87.9854,67.781972 L87.9854,67.7007682 L87.9854,25.3906677 C88.1400417,24.0016554 87.0455828,22.8463016 85.6816932,22.7252891 C85.4273005,23.1442367 84.7149779,24.1709484 84.5537688,24.3318405 L85.4519605,24.3318405 C86.0237397,24.3318405 86.5144734,24.8200155 86.5144734,25.3906677 L86.5144734,66.8043478 L14.633655,66.8043478 L14.633655,25.3906677 C14.633655,24.8200155 15.1243894,24.3318405 15.6961686,24.3318405 L61.7639627,24.3318405 C62.2540592,23.8427101 62.8271143,23.2720579 63.4805763,22.7014057 L15.6961686,22.7014057 Z M85.6816932,22.7252891 C85.6850912,22.719687 85.6944112,22.7067837 85.6976459,22.7014057 L85.4519605,22.7014057 C85.5304903,22.7014057 85.6047318,22.7184601 85.6816932,22.7252891 Z M53.4537004,41.3909011 L57.0113664,44.9415552 C55.3779908,46.0671772 53.897326,46.9604418 52.6974962,47.4843323 C52.2890825,47.7288976 52.0437157,47.7279421 51.9620329,47.7279421 C51.8803502,47.7279421 51.7986674,47.7276242 51.5536192,47.4015372 L51.3095283,47.1579274 L51.1452055,46.9939285 C50.7367917,46.5863198 50.5737448,46.4245497 51.0638413,45.4462889 C51.5858047,44.2860274 52.418691,42.9018984 53.4537004,41.3909011 Z M45.9155949,46.5767663 C46.8881302,46.5767663 47.8370542,46.8512655 48.694723,47.4015372 L48.8590458,47.4843323 C50.737749,48.7071584 51.308571,50.093028 51.5536192,51.1528106 C52.1253984,53.3538976 50.8197504,55.3906677 47.9608542,56.7765372 C46.5722474,57.5102329 45.0189993,57.8369565 43.3853444,57.8369565 C41.5883239,57.8369565 39.7913035,57.3478261 38.4843795,56.6141304 C39.7096207,56.451087 40.771815,55.9625932 41.2619115,55.2288976 C41.752008,54.6582454 41.9163308,54.0054348 41.8346481,53.3532609 L41.7516894,52.7004503 C41.5066412,51.1515372 41.6700067,49.766941 42.1601032,48.7071584 C42.7318824,47.5658541 43.6307112,46.9136802 44.9376352,46.6691149 C45.2643662,46.6079736 45.5914165,46.5767663 45.9155949,46.5767663 Z M14.633655,68.4347826 L86.5144734,68.4347826 L86.5144734,72.9184783 C86.5144734,73.4891304 86.0237397,73.9788976 85.4519605,73.9788976 L15.6961686,73.9788976 C15.1243894,73.9788976 14.633655,73.4891304 14.633655,72.9184783 L14.633655,68.4347826 Z M43.3039802,75.6905361 L57.9255115,75.6905361 C58.088877,77.2394492 58.3336059,80.4191141 58.4152886,81.723462 C58.4152886,82.1310707 58.4966528,82.3746821 58.4966528,82.3746821 C58.6600183,83.4344647 58.8240217,84.0869565 59.5591665,84.7391304 L59.6405298,84.901538 C59.8038953,85.0645815 59.8855781,85.1464212 60.0489436,85.2279429 L61.0300939,85.9619565 C60.2949491,86.2065217 59.2330734,86.3695652 58.1711977,86.3695652 L43.0598893,86.3695652 C41.9163308,86.3695652 40.8534978,86.125 40.0366703,85.9619565 C40.3634013,85.798913 40.7724538,85.553712 41.0991848,85.3091467 C41.1808675,85.3091467 41.1802287,85.2279429 41.2619115,85.2279429 C41.425277,85.1464212 41.5069597,85.0645815 41.6703252,84.901538 C42.40547,84.2493641 42.5694742,83.4344647 42.7328397,82.3746821 C42.7328397,82.3746821 42.7325203,82.1310707 42.8142031,81.723462 C42.8958858,80.4191141 43.1406147,77.2394492 43.3039802,75.6905361 Z" id="Shape" fill="#ffffff" fill-rule="nonzero"></path>
    </g>
</svg>
