<?xml version="1.0" encoding="UTF-8"?>
<svg width="100px" height="100px" viewBox="0 0 100 100" version="1.1" xmlns="http://www.w3.org/2000/svg" xmlns:xlink="http://www.w3.org/1999/xlink">
    <!-- Generator: Sketch 51.3 (57544) - http://www.bohemiancoding.com/sketch -->
    <title>fal</title>
    <desc>Created with Sketch.</desc>
    <defs></defs>
    <g id="fal" stroke="none" stroke-width="1" fill="none" fill-rule="evenodd">
        <path d="M62.1985294,9.2976495 C61.9922271,9.31983762 61.7902235,9.3810604 61.6066176,9.47745545 L22.9007353,29.2002277 C22.3625671,29.4732238 22.0005682,30.0615376 22,30.6639861 L22,70.1095307 C22.0005682,70.7119792 22.3625671,71.3002931 22.9007353,71.5732891 L61.6066176,91.2960614 C61.8366624,91.4132475 62.0946412,91.4754564 62.3529412,91.4758673 L76.3529412,91.4758673 C77.2153247,91.4757851 77.9999341,90.6928733 78,89.832303 L78,10.9412139 C77.9999341,10.0806436 77.2153247,9.29773168 76.3529412,9.2976495 C71.6396682,9.2976495 66.9002729,9.2976495 62.1985294,9.2976495 Z M64,12.5847782 L74.7058824,12.5847782 L74.7058824,88.1887386 L64,88.1887386 L64,12.5847782 Z M60.7058824,13.6120059 L60.7058824,27.7621089 L45.8823529,31.845298 L45.8823529,21.1621297 L60.7058824,13.6120059 Z M29.4117647,29.5596752 L29.4117647,36.3908218 L25.2941176,37.5464119 L25.2941176,31.6655743 L29.4117647,29.5596752 Z M42.5882353,36.1596545 L42.5882353,43.4272495 L32.7058824,44.480199 L32.7058824,38.8818079 L42.5882353,36.1596545 Z M60.7058824,44.8140891 L60.7058824,55.9850673 L45.8823529,54.7267545 L45.8823529,46.3805703 L60.7058824,44.8140891 Z M29.4117647,48.1268574 L29.4117647,53.3400792 L25.2941176,52.9804673 L25.2941176,48.5633881 L29.4117647,48.1268574 Z M32.7058824,56.8839327 L42.5882353,57.7314366 L42.5882353,64.8963089 L32.7058824,62.3282396 L32.7058824,56.8839327 Z M25.2941176,63.817802 L29.4117647,64.8706693 L29.4117647,71.2138416 L25.2941176,69.1079426 L25.2941176,63.817802 Z M45.8823529,69.1593861 L60.7058824,73.0114079 L60.7058824,87.1615109 L45.8823529,79.6113871 L45.8823529,69.1593861 Z" id="Shape" fill="#000000" fill-rule="nonzero"></path>
    </g>
</svg>