<?xml version="1.0" encoding="utf-8"?>
<!-- Generator: Adobe Illustrator 16.0.0, SVG Export Plug-In . SVG Version: 6.00 Build 0)  -->
<!DOCTYPE svg PUBLIC "-//W3C//DTD SVG 1.1//EN" "http://www.w3.org/Graphics/SVG/1.1/DTD/svg11.dtd">
<svg version="1.1" id="Layer_1" xmlns="http://www.w3.org/2000/svg" xmlns:xlink="http://www.w3.org/1999/xlink" x="0px" y="0px" viewBox="-213.513 0.717 106.281 106.281"
	 enable-background="new -213.513 0.717 106.281 106.281" xml:space="preserve">
<g>
	<g>
		<path d="M-160.373,0.717c-22.449,0-53.141,16.967-53.141,53.141c0,35.254,29.52,53.141,53.141,53.141
			c40.525,0,53.141-35.504,53.141-53.141C-107.232,27.832-127.15,0.717-160.373,0.717z M-172.696,5.717
			c-5.544,4.729-10.147,12.553-13.118,22.261c-3.849-2.281-7.385-5.105-10.523-8.391C-189.851,12.789-181.651,8.019-172.696,5.717z
			 M-198.617,22.141c3.515,3.661,7.511,6.778,11.863,9.247c-1.632,6.338-2.595,13.37-2.72,20.754h-20.565
			C-209.664,41.117-205.647,30.593-198.617,22.141z M-198.617,85.574c-7.05-8.453-11.046-18.977-11.422-30.001h20.565
			c0.125,7.407,1.088,14.414,2.72,20.754C-191.086,78.816-195.081,81.913-198.617,85.574z M-196.337,88.148
			c3.138-3.286,6.674-6.109,10.523-8.391c2.971,9.688,7.574,17.531,13.118,22.261C-181.651,99.696-189.851,94.926-196.337,88.148z
			 M-162.089,103.44c-8.913-1.129-16.591-11.087-20.733-25.355c6.402-3.243,13.474-5.063,20.733-5.336V103.44L-162.089,103.44z
			 M-162.089,69.339c-7.573,0.252-14.938,2.112-21.612,5.378c-1.401-5.858-2.238-12.324-2.363-19.144h23.976V69.339z
			 M-162.089,52.142h-23.976c0.125-6.821,0.962-13.285,2.363-19.143c6.695,3.263,14.06,5.125,21.612,5.377V52.142z M-162.089,34.966
			c-7.28-0.251-14.331-2.093-20.733-5.335c4.143-14.29,11.821-24.228,20.733-25.357V34.966z M-122.128,22.141
			c7.029,8.453,11.046,18.976,11.423,30.001h-20.544c-0.126-7.407-1.088-14.416-2.72-20.754
			C-129.639,28.898-125.643,25.802-122.128,22.141z M-124.409,19.567c-3.138,3.286-6.673,6.109-10.523,8.391
			c-2.97-9.688-7.573-17.512-13.117-22.262C-139.096,8.019-130.894,12.789-124.409,19.567z M-158.658,4.273
			c8.913,1.13,16.592,11.088,20.734,25.357c-6.402,3.242-13.453,5.063-20.734,5.335V4.273z M-158.658,38.375
			c7.574-0.251,14.938-2.114,21.612-5.377c1.402,5.858,2.239,12.322,2.364,19.143h-23.977V38.375z M-158.658,55.573h23.977
			c-0.125,6.819-0.962,13.285-2.364,19.144c-6.674-3.286-14.038-5.146-21.612-5.378V55.573z M-158.658,103.44V72.749
			c7.281,0.251,14.332,2.093,20.734,5.336C-142.066,92.374-149.745,102.312-158.658,103.44z M-148.05,101.998
			c5.544-4.729,10.147-12.553,13.117-22.262c3.85,2.281,7.385,5.105,10.523,8.391C-130.894,94.926-139.096,99.696-148.05,101.998z
			 M-122.128,85.574c-3.515-3.661-7.511-6.758-11.841-9.247c1.631-6.34,2.594-13.369,2.72-20.754h20.544
			C-111.082,66.598-115.099,77.121-122.128,85.574z"/>
	</g>
</g>
</svg>
