<svg viewBox="0 0 112 100" fill="black" xmlns="http://www.w3.org/2000/svg">
<path d="M101.182 57.1283C107.381 47.9781 111.672 38.1782 111.672 28.3374V28.3383C111.692 18.9851 107.086 10.2274 99.3669 4.94374C91.6489 -0.338994 81.8178 -1.4637 73.1068 1.93919C64.3955 5.34209 57.9296 12.8334 55.8363 21.9488C53.7421 12.8295 47.2733 5.33725 38.5574 1.93532C29.8413 -1.4666 20.0066 -0.336432 12.29 4.95389C4.57198 10.2434 -0.0291092 19.0085 0.000138607 28.3647C0.000138607 63.5587 55.8368 100 55.8368 100C55.8368 100 61.5351 96.2911 69.2918 90.0782V90.0773C73.5218 94.9409 79.5979 97.8074 86.042 97.9793C92.4853 98.1502 98.7058 95.6112 103.189 90.9799C107.672 86.3486 110.007 80.0487 109.626 73.6139C109.244 67.1801 106.182 61.2005 101.183 57.13L101.182 57.1283ZM86.5078 95.1505C81.1231 95.1505 75.959 93.0118 72.151 89.2037C68.343 85.3957 66.2036 80.2309 66.2036 74.8462C66.2036 69.4615 68.3432 64.2965 72.151 60.4894C75.959 56.6814 81.1229 54.542 86.5078 54.542C91.8935 54.542 97.0576 56.6815 100.865 60.4894C104.673 64.2965 106.812 69.4612 106.812 74.8462C106.812 80.2312 104.673 85.396 100.865 89.2037C97.0573 93.0117 91.8935 95.1505 86.5078 95.1505Z" />
<path d="M97.2152 64.1406C96.9631 63.8913 96.6232 63.7496 96.2681 63.7487C95.9084 63.7468 95.5619 63.8875 95.3069 64.1406L86.5219 72.9386L77.7239 64.1406H77.723C77.1867 63.6807 76.386 63.7119 75.8855 64.2123C75.3861 64.7118 75.3549 65.5125 75.8147 66.0497L84.6127 74.8478L75.8147 83.6327C75.4597 83.9868 75.3303 84.508 75.4767 84.9867C75.5315 85.2124 75.6486 85.4192 75.8147 85.5825C76.3425 86.1075 77.1951 86.1075 77.723 85.5825L86.521 76.7976L95.306 85.5825H95.3069C95.8347 86.1075 96.6873 86.1075 97.2151 85.5825C97.7401 85.0547 97.7401 84.2012 97.2151 83.6733L88.4302 74.8884L97.2151 66.0904C97.4795 65.8354 97.6296 65.4832 97.6296 65.1159C97.6296 64.7477 97.4795 64.3964 97.2152 64.1406Z" />
</svg>
