<svg viewBox="0 0 112 100" fill="black" xmlns="http://www.w3.org/2000/svg">
<path d="M63.5433 91.4522C59.8247 94.2739 56.9504 96.2386 55.7105 97.082C49.3154 92.7444 2.63804 59.9784 2.63804 28.9001C2.65552 20.2562 6.9314 12.1752 14.0698 7.2996C21.207 2.423 30.2899 1.37733 38.348 4.50352C46.4078 7.62971 52.4084 14.5261 54.3905 22.9411C54.5276 23.5408 55.061 23.9667 55.6763 23.9667C56.2916 23.9667 56.8251 23.5408 56.9622 22.9411C58.8633 14.4361 64.8646 7.43216 72.9762 4.24875C81.0885 1.06535 90.2521 2.1195 97.4286 7.06131C104.606 12.0022 108.86 20.1863 108.781 28.9001C108.781 35.7826 106.474 43.2862 101.924 51.1842H101.925C101.598 51.8106 101.821 52.5832 102.434 52.9373C103.046 53.2905 103.827 53.0992 104.206 52.5031C108.98 44.1959 111.405 36.2454 111.405 28.9007V28.8998C111.403 19.8796 107.185 11.3793 100.003 5.92042C92.8224 0.462475 83.5025 -1.32725 74.8112 1.08432C66.1195 3.49495 59.0529 9.82856 55.7096 18.2067C52.3736 9.8175 45.3061 3.47117 36.6071 1.05395C27.908 -1.36233 18.5798 0.42758 11.3941 5.89381C4.20884 11.36 -0.00635021 19.8723 7.18093e-06 28.8998C7.18093e-06 43.5093 9.22976 59.9003 27.5982 77.6869L27.5991 77.6878C36.0886 85.8121 45.2503 93.2051 54.9853 99.7868C55.4222 100.071 55.9851 100.071 56.422 99.7868C56.5673 99.6949 59.9824 97.4663 65.1248 93.5627C65.707 93.1258 65.8257 92.2999 65.3888 91.7168C64.9519 91.1346 64.125 91.0159 63.5428 91.4528L63.5433 91.4522Z" />
<path d="M85.587 51.7632C79.6426 51.7632 73.9409 54.1251 69.7368 58.3285C65.5334 62.5326 63.1715 68.2343 63.1715 74.1787C63.1715 80.124 65.5334 85.8257 69.7368 90.0288C73.9409 94.233 79.6426 96.5941 85.587 96.5941C91.5323 96.5941 97.234 94.2332 101.437 90.0288C105.641 85.8254 108.003 80.124 108.003 74.1787C108.003 68.2343 105.641 62.5326 101.437 58.3285C97.2337 54.1251 91.5323 51.7632 85.587 51.7632ZM85.587 93.9575C80.3417 93.9575 75.3113 91.8742 71.6019 88.1647C67.8925 84.4553 65.8084 79.4242 65.8084 74.1789C65.8084 68.9336 67.8926 63.9023 71.6019 60.1938C75.3113 56.4844 80.3414 54.4004 85.587 54.4004C90.8332 54.4004 95.8636 56.4845 99.5728 60.1938C103.282 63.9023 105.366 68.9334 105.366 74.1789C105.366 79.4245 103.282 84.4555 99.5728 88.1647C95.8634 91.8741 90.8332 93.9575 85.587 93.9575Z" />
<path d="M96.0178 63.7504C95.5037 63.24 94.6731 63.24 94.159 63.7504L85.6015 72.308L77.0439 63.7504C76.5206 63.3025 75.7406 63.3329 75.2531 63.8203C74.7666 64.3069 74.7362 65.0868 75.1842 65.6102L83.7417 74.1677L75.1842 82.7253C74.9055 82.9644 74.739 83.3084 74.7243 83.6763C74.7105 84.0433 74.8503 84.3992 75.1097 84.6595C75.369 84.9189 75.7259 85.0587 76.0929 85.044C76.4599 85.0302 76.8048 84.8637 77.0439 84.5841L85.6015 76.0266L94.159 84.5841C94.6823 85.032 95.4614 85.0026 95.9489 84.5151C96.4363 84.0286 96.4658 83.2486 96.0178 82.7253L87.4603 74.1677L96.0178 65.6102C96.5292 65.0961 96.5292 64.2655 96.0178 63.7504Z" />
</svg>
