<?xml version="1.0" encoding="UTF-8"?>
<svg width="100px" height="100px" viewBox="0 0 100 100" version="1.1" xmlns="http://www.w3.org/2000/svg" xmlns:xlink="http://www.w3.org/1999/xlink">
    <!-- Generator: Sketch 51.3 (57544) - http://www.bohemiancoding.com/sketch -->
    <title>outdoor</title>
    <desc>Created with Sketch.</desc>
    <defs></defs>
    <g id="outdoor" stroke="none" stroke-width="1" fill="none" fill-rule="evenodd">
        <path d="M67.9009164,32.0000595 C60.7343681,32.0525838 54.9638235,37.6721363 55.0001708,44.5632441 C55.036518,51.4543519 60.8660451,57.0173342 68.0327788,56.9999594 C75.1995125,56.9825846 80.9997918,51.3914073 81,44.5002109 C80.9672343,37.5724349 75.1057563,31.9789625 67.9009164,32.0000595 Z M67.9009164,51.2838296 C64.0179815,51.2313857 60.9091982,48.1714275 60.9454318,44.4375848 C60.9816655,40.703742 64.1492908,37.7000972 68.0325673,37.7173335 C71.9158439,37.7345698 75.0544958,40.7662056 75.0548789,44.5002109 C75.02217,48.2708357 71.8223931,51.3049678 67.9009164,51.2838296 Z" id="Shape" fill="#000000" fill-rule="nonzero"></path>
        <path d="M52.8873965,54.8756246 L46.8787907,60.8779853 C46.0231959,61.7336868 45.7653733,63.0188073 46.2248058,64.1377833 C46.6842382,65.2567592 47.7711379,65.9909067 48.9818027,65.9999998 C49.7746286,66.0003193 50.5363038,65.691659 51.1048434,65.1396614 L57.1134492,59.1373007 C57.8755164,58.3795997 58.1750463,57.2733196 57.8992088,56.2351854 C57.6233713,55.1970513 56.8140727,54.3847804 55.7761681,54.1043474 C54.7382634,53.8239143 53.629435,54.1179235 52.8673678,54.8756246 L52.8873965,54.8756246 Z" id="Shape" fill="#000000" fill-rule="nonzero"></path>
        <path d="M80.0814516,35.9999349 C80.827573,35.9701548 81.5362998,35.6654529 82.0711793,35.1444942 L88.0403623,29.176303 C88.8419531,28.436059 89.1756086,27.3174421 88.9104824,26.2591289 C88.6453563,25.2008156 87.8237155,24.3715246 86.7677746,24.0964704 C85.7118336,23.8214163 84.589933,24.1444486 83.8420369,24.9388873 L77.8728539,30.8076086 C76.7090487,31.9726693 76.7090487,33.8600696 77.8728539,35.0251303 C78.4358802,35.6507261 79.2397464,36.005527 80.0814516,35.9999349 Z" id="Shape" fill="#000000" fill-rule="nonzero"></path>
        <path d="M41.1163435,47 L49.8836565,47 C51.6047655,47 53,45.6568542 53,44 C53,42.3431458 51.6047655,41 49.8836565,41 L41.1163435,41 C39.3952345,41 38,42.3431458 38,44 C38,45.6568542 39.3952345,47 41.1163435,47 Z" id="Shape" fill="#000000" fill-rule="nonzero"></path>
        <path d="M93.8879668,41 L85.1120332,41 C83.3933047,41 82,42.3431458 82,44 C82,45.6568542 83.3933047,47 85.1120332,47 L93.8879668,47 C95.6066953,47 97,45.6568542 97,44 C97,42.3431458 95.6066953,41 93.8879668,41 Z" id="Shape" fill="#000000" fill-rule="nonzero"></path>
        <path d="M52.897309,35.1387958 C53.4656944,35.6842852 54.2181861,35.9920457 55.0028747,35.9999481 C56.2159709,36.0071143 57.3122609,35.2720625 57.7748133,34.1413902 C58.2373657,33.0107179 57.9738181,31.7101976 57.1084405,30.8530612 L51.1492921,24.945156 C50.4026533,24.1454131 49.2826387,23.8202239 48.2284729,24.0971145 C47.174307,24.3740052 46.3540476,25.2088331 46.0893671,26.2742125 C45.8246866,27.3395918 46.1577812,28.4656774 46.9580244,29.2108638 L52.897309,35.1387958 Z" id="Shape" fill="#000000" fill-rule="nonzero"></path>
        <path d="M82.1152287,54.8017925 C80.9092852,53.6976077 79.0377701,53.7388034 77.8824546,54.894964 C76.7271392,56.0511246 76.7032407,57.9067291 77.8284039,59.0917533 L83.9234155,65.1339516 C84.465071,65.6680058 85.1914735,65.9776523 85.955086,66 C87.186854,65.998926 88.2968535,65.2628717 88.7680841,64.1346667 C89.2393148,63.0064617 88.979107,61.7079721 88.1086568,60.8439908 L82.1152287,54.8017925 Z" id="Shape" fill="#000000" fill-rule="nonzero"></path>
        <path d="M68,30 C69.6568542,30 71,28.6923477 71,27.0792768 L71,18.9207232 C71,17.3076523 69.6568542,16 68,16 C66.3431458,16 65,17.3076523 65,18.9207232 L65,27.0792768 C65,28.6923477 66.3431458,30 68,30 Z" id="Shape" fill="#000000" fill-rule="nonzero"></path>
        <path d="M68,59 C66.3476846,59.0106185 65.0109067,60.3120712 65,61.9207232 L65,70.0792768 C65,71.6923477 66.3431458,73 68,73 C69.6568542,73 71,71.6923477 71,70.0792768 L71,61.9207232 C71,60.3076523 69.6568542,59 68,59 Z" id="Shape" fill="#000000" fill-rule="nonzero"></path>
        <path d="M54.7703109,70.9767813 C53.1988275,70.5946696 51.6154138,71.5601536 51.2297117,73.1356561 C50.491788,76.0963182 47.8357724,78.1698528 44.794037,78.1599468 L16.8800313,78.1599468 C14.1156158,78.3018088 11.4984787,76.9028184 10.0738324,74.5216939 C8.64918601,72.1405694 8.64918601,69.1653307 10.0738324,66.7842062 C11.4984787,64.4030817 14.1156158,63.0040913 16.8800313,63.1459533 C17.1666013,63.1264457 17.4541595,63.1264457 17.7407295,63.1459533 C19.3310661,63.3560344 20.7948003,62.2458548 21.0270315,60.6534342 C21.4656757,57.9725755 23.2291949,55.6977139 25.7110259,54.611289 C28.192857,53.524864 31.0544433,53.7750793 33.3115413,55.2758731 C34.656567,56.2080455 36.5001053,55.8697491 37.4291994,54.5202669 C38.3582934,53.1707846 38.0211142,51.321138 36.6760886,50.3889655 C33.1181594,47.9789974 28.6503868,47.3525346 24.5702543,48.6915078 C20.4901218,50.030481 17.2549113,53.1848243 15.8041587,57.2384866 C8.44162827,57.5365651 2.71396043,63.7664914 3.01105447,71.1534165 C3.3081485,78.5403416 9.51750095,84.2869873 16.8800313,83.9889089 L44.794037,83.9889089 C50.5456464,84.0158917 55.5634564,80.0776637 56.9220562,74.4702333 C57.2889047,72.9094625 56.3257262,71.3457003 54.7703109,70.9767813 Z" id="Shape" fill="#000000" fill-rule="nonzero"></path>
    </g>
</svg>