<?xml version="1.0" encoding="UTF-8"?>
<svg width="100px" height="100px" viewBox="0 0 100 100" version="1.1" xmlns="http://www.w3.org/2000/svg" xmlns:xlink="http://www.w3.org/1999/xlink">
    <!-- Generator: Sketch 51.3 (57544) - http://www.bohemiancoding.com/sketch -->
    <title>padlofutes</title>
    <desc>Created with Sketch.</desc>
    <defs></defs>
    <g id="padlofutes" stroke="none" stroke-width="1" fill="none" fill-rule="evenodd">
        <path d="M76.221397,65 C76.1295218,65 76.0412801,64.9849292 75.9592673,64.9562947 C75.8772544,64.9849292 75.7890127,65 75.6971376,65 L22,65 L22,33.6145425 L49.5002595,7 L77,33.6145425 L77,64.2464597 C77,64.6624139 76.6517049,65 76.221397,65 Z M23.5572061,63.4929193 L75.4427939,63.4929193 L75.4427939,34.2384739 L49.5002595,9.13101208 L23.5572061,34.2389762 L23.5572061,63.4929193 Z" id="Shape" fill="#000000" fill-rule="nonzero"></path>
        <g id="Group" transform="translate(26.000000, 51.000000)" fill="#000000" fill-rule="nonzero">
            <path d="M4.94157895,11.5309091 C4.50526316,11.5309091 4.15210526,11.1643636 4.15210526,10.7127273 L4.15210526,2.48018182 C4.15210526,2.02854545 4.50526316,1.662 4.94157895,1.662 C5.37789474,1.662 5.73105263,2.02854545 5.73105263,2.48018182 L5.73105263,10.7127273 C5.73105263,11.1643636 5.37736842,11.5309091 4.94157895,11.5309091 Z" id="Shape"></path>
            <path d="M8.99105263,6.162 C8.78894737,6.162 8.58684211,6.08236364 8.43263158,5.92254545 L4.94157895,2.30454545 L1.45052632,5.92254545 C1.14210526,6.24218182 0.642631579,6.24218182 0.334210526,5.92254545 C0.0257894737,5.60290909 0.0257894737,5.08527273 0.334210526,4.76563636 L4.47315789,0.476181818 L5.41,0.476181818 L9.54894737,4.76563636 C9.85736842,5.08527273 9.85736842,5.60290909 9.54894737,5.92254545 C9.39473684,6.08181818 9.19263158,6.162 8.99105263,6.162 Z" id="Shape"></path>
        </g>
        <g id="Group" transform="translate(45.000000, 51.000000)" fill="#000000" fill-rule="nonzero">
            <path d="M5.06105263,11.5309091 C4.62473684,11.5309091 4.27157895,11.1643636 4.27157895,10.7127273 L4.27157895,2.48018182 C4.27157895,2.02854545 4.62473684,1.662 5.06105263,1.662 C5.49736842,1.662 5.85052632,2.02854545 5.85052632,2.48018182 L5.85052632,10.7127273 C5.85052632,11.1643636 5.49684211,11.5309091 5.06105263,11.5309091 Z" id="Shape"></path>
            <path d="M9.11052632,6.162 C8.90842105,6.162 8.70631579,6.08236364 8.55210526,5.92254545 L5.06105263,2.30454545 L1.57,5.92254545 C1.26157895,6.24218182 0.762105263,6.24218182 0.453684211,5.92254545 C0.145263158,5.60290909 0.145263158,5.08527273 0.453684211,4.76563636 L4.59263158,0.476181818 L5.52947368,0.476181818 L9.66842105,4.76563636 C9.97684211,5.08527273 9.97684211,5.60290909 9.66842105,5.92254545 C9.51421053,6.08181818 9.31210526,6.162 9.11052632,6.162 Z" id="Shape"></path>
        </g>
        <g id="Group" transform="translate(63.000000, 51.000000)" fill="#000000" fill-rule="nonzero">
            <path d="M4.9215,11.5309091 C4.5075,11.5309091 4.1715,11.1643636 4.1715,10.7127273 L4.1715,2.48018182 C4.1715,2.02854545 4.5075,1.662 4.9215,1.662 C5.3355,1.662 5.6715,2.02854545 5.6715,2.48018182 L5.6715,10.7127273 C5.6715,11.1643636 5.3355,11.5309091 4.9215,11.5309091 Z" id="Shape"></path>
            <path d="M8.7685,6.162 C8.5765,6.162 8.3845,6.08236364 8.238,5.92254545 L4.921,2.30454545 L1.6045,5.92254545 C1.3115,6.24218182 0.837,6.24218182 0.544,5.92254545 C0.251,5.60290909 0.251,5.08527273 0.544,4.76563636 L4.476,0.476181818 L5.3655,0.476181818 L9.298,4.76563636 C9.591,5.08527273 9.591,5.60290909 9.298,5.92254545 C9.1525,6.08181818 8.9605,6.162 8.7685,6.162 Z" id="Shape"></path>
        </g>
        <path d="M36.9318535,93 C36.9142561,93 36.9013169,93 36.8925183,92.9994688 L22.7763529,93 C22.3472885,93 22,92.6430485 22,92.2032333 C22,91.763418 22.3472885,91.4064665 22.7763529,91.4064665 L36.9127034,91.4064665 C36.9349589,91.4107159 37.5684628,91.4069977 37.9468055,91.0213626 C38.158491,90.8057044 38.2614871,90.4923095 38.2614871,90.0625866 C38.2614871,89.6291455 38.1564207,89.3130947 37.9405946,89.0974365 C37.5669101,88.7240185 36.9478981,88.7139261 36.9328886,88.7187067 L25.7151073,88.7181755 C25.6053827,88.7187067 24.4434413,88.7282679 23.6034275,87.8879446 C23.2431997,87.527806 22.8136178,86.8696767 22.8136178,85.7812933 C22.8136178,84.6934411 23.2431997,84.035843 23.6034275,83.6751732 C24.4434413,82.8348499 25.607453,82.8364434 25.7352924,82.8449423 L25.9386969,82.8444111 L37.0990281,82.8444111 C37.1254241,82.841224 37.7547875,82.8449423 38.1326126,82.4593072 C38.3442981,82.243649 38.4472943,81.930254 38.4472943,81.5 C38.4472943,81.069746 38.3442981,80.7568822 38.1326126,80.5406928 C37.7547875,80.1555889 37.1124849,80.149746 37.1124849,80.1555889 L25.7151073,80.1555889 C25.60383,80.1566513 24.4429237,80.1635566 23.6034275,79.3248268 C23.2431997,78.964157 22.8136178,78.3065589 22.8136178,77.2187067 C22.8136178,76.1308545 23.2431997,75.4732564 23.6034275,75.1125866 C24.4434413,74.2722633 25.607453,74.2749192 25.7352924,74.2823557 L25.9350739,74.2807621 L37.0990281,74.2807621 C37.1254241,74.2850115 37.7532348,74.2828868 38.1326126,73.8961894 C38.3442981,73.6805312 38.4472943,73.3671363 38.4472943,72.9368822 C38.4472943,72.5039723 38.3422278,72.1879215 38.1264017,71.9722633 C37.7578929,71.6036259 37.1357755,71.5930023 37.1192133,71.5930023 L22.9626776,71.5935335 C22.5336132,71.5935335 22.1863247,71.236582 22.1863247,70.7967667 C22.1863247,70.3569515 22.5336132,70 22.9626776,70 L37.0990281,70 C37.2077175,70.0010624 38.3706941,69.99097 39.2101904,70.8307621 C39.5704181,71.1914319 40,71.84903 40,72.9368822 C40,74.0247344 39.5709356,74.6828637 39.2107079,75.0430023 C38.3706941,75.8827945 37.2128932,75.8817321 37.0788429,75.8732333 L25.7187302,75.8748268 C25.6959572,75.8711085 25.0588303,75.8748268 24.6810052,76.2599307 C24.4693197,76.4755889 24.3663235,76.7889838 24.3663235,77.2187067 C24.3663235,77.6516166 24.47139,77.9676674 24.6872161,78.1833256 C25.0557249,78.5514319 25.6778423,78.5625866 25.6949221,78.5625866 L37.0985106,78.5620554 C37.2072,78.5647113 38.369659,78.5530254 39.2096728,79.3928176 C39.5699005,79.7534873 39.9994824,80.4110855 39.9994824,81.4994688 C39.9994824,82.587321 39.5704181,83.2454503 39.2101904,83.6055889 C38.369659,84.4464434 37.2072,84.4416628 37.0788429,84.436351 L25.7151073,84.4368822 C25.686641,84.4368822 25.0593479,84.436351 24.6810052,84.8219861 C24.4693197,85.0376443 24.3663235,85.3510393 24.3663235,85.7807621 C24.3663235,86.2142032 24.47139,86.530254 24.6872161,86.7459122 C25.0552073,87.1140185 25.6768072,87.124642 25.6944045,87.124642 C25.6944045,87.124642 25.6944045,87.124642 25.6949221,87.124642 L36.5778366,87.1241109 L36.9147737,87.1251732 C37.0229455,87.1267667 38.1838519,87.1150808 39.0238657,87.9554042 C39.3840934,88.3155427 39.8136753,88.9736721 39.8136753,90.0620554 C39.8136753,91.1499076 39.3840934,91.8075058 39.0238657,92.1681755 C38.2402668,92.9532564 37.1751107,93 36.9318535,93 Z" id="Shape" fill="#000000" fill-rule="nonzero"></path>
        <path d="M55.9322828,93 C55.9152026,93 55.9017454,93 55.8934641,92.9994688 L41.7763752,93 C41.3472985,93 41,92.6430585 41,92.2032556 C41,91.7634527 41.3472985,91.4065112 41.7763752,91.4065112 L55.9131322,91.4065112 C55.9322828,91.409167 56.5647698,91.4112917 56.9467464,91.0214181 C57.158438,90.8062971 57.2614372,90.4923798 57.2614372,90.062669 C57.2614372,89.62924 57.1563677,89.3131981 56.9405354,89.0975459 C56.5725336,88.72945 55.9514334,88.7188267 55.9338356,88.7188267 L55.933318,88.7188267 L44.7152141,88.7182956 C44.6065216,88.7188267 43.4440291,88.7283877 42.6039911,87.8880879 C42.2437531,87.5279594 41.8141588,86.8698486 41.8141588,85.7814957 C41.8141588,84.693674 42.2437531,84.0360943 42.6039911,83.6754347 C43.4440291,82.8351349 44.6054864,82.8367284 44.7353998,82.845227 L44.9388101,82.8446958 L56.0994623,82.8446958 C56.1144722,82.845227 56.7505823,82.8494763 57.1325589,82.4596027 C57.3442505,82.2444817 57.4472496,81.9305644 57.4472496,81.5003224 C57.4472496,81.0700804 57.3442505,80.7566943 57.1325589,80.5410422 C56.7500647,80.1516997 56.1243063,80.1548867 56.1124019,80.155949 L44.7152141,80.155949 C44.6049688,80.1570114 43.4429939,80.1639165 42.6034736,79.3252102 C42.2432355,78.9645506 41.8136412,78.3069709 41.8136412,77.2191492 C41.8136412,76.1313275 42.2432355,75.4737477 42.6034736,75.1130881 C43.4435115,74.2727884 44.6049688,74.2754442 44.7348822,74.2828804 L44.9346695,74.281287 L56.0994623,74.281287 C56.1315525,74.2924414 56.7557581,74.281287 57.1325589,73.896725 C57.3442505,73.6810728 57.4472496,73.3676867 57.4472496,72.9374447 C57.4472496,72.5077339 57.3442505,72.1943478 57.1325589,71.9786956 C56.7588636,71.5978518 56.1356931,71.5936025 56.113437,71.5936025 C56.1129195,71.5936025 56.1129195,71.5936025 56.1124019,71.5936025 L41.9621877,71.5936025 C41.533111,71.5936025 41.1858125,71.236661 41.1858125,70.7968581 C41.1858125,70.3570552 41.533111,70.0001137 41.9621877,70.0001137 L56.0994623,70.0001137 C56.2066021,69.9990514 57.3696121,69.9900216 58.2106852,70.8308525 C58.5704057,71.1915122 59,71.8490919 59,72.9369136 C59,74.0252664 58.5704057,74.6828461 58.2101676,75.0435058 C57.3716824,75.8816809 56.2086724,75.8779627 56.0792765,75.8731823 L44.7183196,75.8747758 C44.6846767,75.8710576 44.0584007,75.8747758 43.6810823,76.2598689 C43.4693907,76.4749899 43.3663916,76.7889072 43.3663916,77.218618 C43.3663916,77.6483288 43.4693907,77.9617149 43.6810823,78.1773671 C44.0589183,78.5624602 44.6939932,78.565116 44.7017569,78.5624602 L56.0994623,78.5624602 C56.2066021,78.5629914 57.3696121,78.5523681 58.2101676,79.3931991 C58.5704057,79.7538587 59,80.4114384 59,81.4997913 C59,82.5881441 58.5704057,83.2457238 58.2101676,83.6063835 C57.3711649,84.4461521 56.2102251,84.4461521 56.0797941,84.4365911 L44.7146965,84.4371223 C44.6919228,84.4371223 44.0589183,84.4365911 43.6805647,84.8222154 C43.4688731,85.0373364 43.365874,85.3512537 43.365874,85.7809645 C43.365874,86.2143935 43.4709434,86.5304354 43.6867757,86.7460876 C44.0547776,87.1141835 44.6763953,87.1248068 44.6934756,87.1248068 C44.6934756,87.1248068 44.6934756,87.1248068 44.6939932,87.1248068 L55.5777382,87.1242756 L55.914685,87.1253379 C56.0166489,87.1269314 57.1827645,87.1152458 58.02332,87.9555456 C58.3835581,88.3156741 58.8131524,88.9737849 58.8131524,90.0621378 C58.8131524,91.1499595 58.3835581,91.8075392 58.0238376,92.1681988 C57.2402162,92.9532577 56.1755471,93 55.9322828,93 Z" id="Shape" fill="#000000" fill-rule="nonzero"></path>
        <path d="M74.9317652,93 C74.914685,93 74.9012278,93 74.8929465,92.9994688 L60.7763752,93 C60.3478161,93 60,92.6430585 60,92.2032556 C60,91.7634527 60.3478161,91.4065112 60.7763752,91.4065112 L74.9126147,91.4065112 C74.9322828,91.409167 75.5652874,91.4112917 75.947264,91.0214181 C76.1589556,90.8057659 76.2619547,90.4923798 76.2619547,90.062669 C76.2619547,89.62924 76.1568853,89.3137292 75.941053,89.0980771 C75.5621819,88.7188267 74.9338356,88.7257319 74.9328004,88.7188267 L63.7152141,88.7182956 C63.6044512,88.7177644 62.4435115,88.7278565 61.6034736,87.8880879 C61.2432355,87.5274283 60.8136412,86.8698486 60.8136412,85.7814957 C60.8136412,84.693674 61.2432355,84.0360943 61.602956,83.6759658 C62.4429939,82.835666 63.6039336,82.8399154 63.7348822,82.845227 L63.9382925,82.8446958 L75.0994623,82.8446958 C75.1149898,82.845227 75.7505823,82.8494763 76.1325589,82.4596027 C76.3442505,82.2444817 76.4472496,81.9305644 76.4472496,81.5003224 C76.4472496,81.0700804 76.3442505,80.7566943 76.1325589,80.5410422 C75.7505823,80.1516997 75.1325876,80.1548867 75.1124019,80.155949 L63.7152141,80.155949 C63.6091095,80.1580737 62.4445467,80.1665723 61.602956,79.324679 C61.2432355,78.9645506 60.8136412,78.3069709 60.8136412,77.2191492 C60.8136412,76.1313275 61.2432355,75.4737477 61.602956,75.1136193 C62.4429939,74.2738507 63.6039336,74.2743818 63.7348822,74.2828804 L63.9346695,74.281287 L75.0994623,74.281287 C75.13207,74.2924414 75.7557581,74.281287 76.1325589,73.896725 C76.3442505,73.6810728 76.4472496,73.3676867 76.4472496,72.9374447 C76.4472496,72.5077339 76.3442505,72.1943478 76.1325589,71.9786956 C75.7588636,71.5978518 75.1351755,71.5936025 75.113437,71.5936025 C75.1129195,71.5936025 75.1129195,71.5936025 75.1124019,71.5936025 L60.9616701,71.5936025 C60.533111,71.5936025 60.1852949,71.236661 60.1852949,70.7968581 C60.1852949,70.3570552 60.533111,70.0001137 60.9616701,70.0001137 L75.0989447,70.0001137 C75.2076372,69.9990514 76.3690945,69.9900216 77.2101676,70.8308525 C77.5698881,71.1915122 77.9994824,71.8490919 77.9994824,72.9369136 C77.9994824,74.0252664 77.5698881,74.6828461 77.2096501,75.0435058 C76.3711649,75.8816809 75.2071196,75.8779627 75.0787589,75.8731823 L63.7183196,75.8747758 C63.6862294,75.8710576 63.0584007,75.8747758 62.6805647,76.2598689 C62.4688731,76.475521 62.365874,76.7889072 62.365874,77.218618 C62.365874,77.6483288 62.4688731,77.9611838 62.6805647,78.1773671 C63.05426,78.5582109 63.6779481,78.5624602 63.7007217,78.5624602 C63.7012393,78.5624602 63.7012393,78.5624602 63.7017569,78.5624602 L75.0994623,78.5624602 C75.2081548,78.5629914 76.3696121,78.5523681 77.2101676,79.3931991 C77.5704057,79.7538587 78,80.4114384 78,81.4997913 C78,82.5881441 77.5704057,83.2457238 77.2101676,83.6063835 C76.3706473,84.4461521 75.20919,84.4461521 75.0797941,84.4365911 L63.7152141,84.4371223 C63.7043448,84.4349977 63.0630589,84.4323418 62.6810823,84.8222154 C62.4693907,85.0378676 62.3663916,85.3512537 62.3663916,85.7809645 C62.3663916,86.2112065 62.4693907,86.5240615 62.6810823,86.7402448 C63.0615062,87.1274626 63.6955459,87.118964 63.7017569,87.1248068 L74.9152026,87.1258691 C75.0150962,87.1274626 76.1843172,87.115777 77.0248728,87.9560768 C77.3851108,88.3167364 77.8147051,88.9743161 77.8147051,90.062669 C77.8147051,91.1499595 77.3851108,91.8080704 77.0253903,92.1681988 C76.2407338,92.9532577 75.1750295,93 74.9317652,93 Z" id="Shape" fill="#000000" fill-rule="nonzero"></path>
    </g>
</svg>