<?xml version="1.0" encoding="UTF-8"?>
<svg width="100px" height="100px" viewBox="0 0 100 100" version="1.1" xmlns="http://www.w3.org/2000/svg" xmlns:xlink="http://www.w3.org/1999/xlink">
    <!-- Generator: Sketch 51.3 (57544) - http://www.bohemiancoding.com/sketch -->
    <title>padlofutes2</title>
    <desc>Created with Sketch.</desc>
    <defs></defs>
    <g id="padlofutes2" stroke="none" stroke-width="1" fill="none" fill-rule="evenodd">
        <polygon id="Shape" fill="#000000" fill-rule="nonzero" points="49.151 19.331 49.151 30.265 51.423 30.265 51.423 19.331 56.251 24.23 57.884 22.597 50.287 15 42.619 22.597 44.252 24.23"></polygon>
        <polygon id="Shape" fill="#000000" fill-rule="nonzero" points="74.143 19.331 74.143 30.265 76.415 30.265 76.415 19.331 81.314 24.23 82.947 22.597 75.279 15 67.682 22.597 69.244 24.23"></polygon>
        <polygon id="Shape" fill="#000000" fill-rule="nonzero" points="24.088 19.331 24.088 30.265 26.36 30.265 26.36 19.331 31.259 24.23 32.892 22.597 25.224 15 17.627 22.597 19.189 24.23"></polygon>
        <path d="M78.687,72.368 L24.088,72.368 C21.603,72.368 19.544,70.309 19.544,67.824 C19.544,65.339 21.603,63.28 24.088,63.28 L76.415,63.28 C80.178,63.28 83.231,60.227 83.231,56.464 C83.231,52.701 80.178,49.648 76.415,49.648 L21.816,49.648 C19.331,49.648 17.272,47.589 17.272,45.104 C17.272,42.619 19.331,40.56 21.816,40.56 L84.367,40.56 L84.367,38.288 L21.816,38.288 C18.053,38.217 15,41.27 15,45.033 C15,48.796 18.053,51.849 21.816,51.849 L76.415,51.849 C78.9,51.849 80.959,53.908 80.959,56.393 C80.959,58.878 78.9,60.937 76.415,60.937 L24.088,60.937 C20.325,60.937 17.272,63.99 17.272,67.753 C17.272,71.516 20.325,74.64 24.088,74.64 L78.687,74.64 C81.172,74.64 83.231,76.699 83.231,79.184 C83.231,81.669 81.172,83.728 78.687,83.728 L16.136,83.728 L16.136,86 L78.687,86 C82.45,86 85.503,82.947 85.503,79.184 C85.503,75.421 82.45,72.368 78.687,72.368 Z" id="Shape" fill="#000000" fill-rule="nonzero"></path>
    </g>
</svg>