<?xml version="1.0" standalone="no"?><!-- Generator: Gravit.io --><svg xmlns="http://www.w3.org/2000/svg" xmlns:xlink="http://www.w3.org/1999/xlink" style="isolation:isolate" viewBox="0 0 45 46.735"><path d=" M 44.754 45.241 L 31.643 31.606 C 34.987 28.252 37.059 23.629 37.059 18.53 C 37.059 8.312 28.747 0 18.53 0 C 8.312 0 0 8.312 0 18.53 C 0 28.747 8.312 37.059 18.53 37.059 C 23.015 37.059 27.131 35.456 30.339 32.795 L 43.482 46.464 C 43.655 46.645 43.886 46.735 44.118 46.735 C 44.339 46.735 44.558 46.653 44.729 46.489 C 45.081 46.151 45.091 45.592 44.754 45.241 Z  M 1.765 18.53 C 1.765 9.285 9.285 1.765 18.53 1.765 C 27.774 1.765 35.294 9.285 35.294 18.53 C 35.294 27.774 27.774 35.294 18.53 35.294 C 9.285 35.294 1.765 27.774 1.765 18.53 Z " /></svg>
