<svg xmlns="http://www.w3.org/2000/svg" viewBox="0 0 32 32">
<title>star-checked</title>
<path d="M23.2 20.93c-6.255 0-11.389-4.816-11.947-10.964l-0.214 0.459-11.038 1.694 7.985 8.227-1.89 11.653 9.905-5.505 9.905 5.505-1.802-11.107c-0.299 0.023-0.599 0.038-0.904 0.038zM23.2 0c-4.86 0-8.8 3.965-8.8 8.855s3.94 8.855 8.8 8.855 8.8-3.965 8.8-8.855c0-4.891-3.94-8.855-8.8-8.855zM28.471 6.794l-5.599 5.75c-0.219 0.224-0.506 0.337-0.792 0.337s-0.573-0.113-0.792-0.337l-3.359-3.45c-0.438-0.45-0.438-1.177 0-1.626s1.146-0.45 1.583 0l2.568 2.637 4.808-4.937c0.438-0.45 1.146-0.45 1.583 0s0.438 1.176 0 1.626z"></path>
</svg>
