<svg xmlns="http://www.w3.org/2000/svg" viewBox="0 0 32 32">
<title>star-add</title>
<path d="M23.2 20.93c-0.427 0-0.847-0.023-1.262-0.067l1.155 7.122-7.092-3.941-7.092 3.941 1.356-8.362-5.834-6.012 7.324-1.124c-0.253-0.807-0.422-1.651-0.501-2.521l-0.214 0.459-11.038 1.695 7.985 8.227-1.89 11.652 9.905-5.504 9.905 5.504-1.802-11.107c-0.299 0.023-0.599 0.038-0.903 0.038zM23.2 0c-4.86 0-8.8 3.965-8.8 8.855s3.94 8.855 8.8 8.855c4.86 0 8.8-3.965 8.8-8.855s-3.94-8.855-8.8-8.855zM28.8 9.66h-4.8v4.83h-1.6v-4.83h-4.8v-1.61h4.8v-4.83h1.6v4.83h4.8v1.61z"></path>
</svg>
